STARTFONT 2.1
COMMENT
COMMENT Converted from OpenType font "TimesI.otf" by "otf2bdf 3.0".
COMMENT
FONT -FreeType-Times New Roman-Medium-I-Normal--44-320-100-100-P-227-ISO10646-1
SIZE 32 100 100
FONTBOUNDINGBOX 71 59 -22 -14
STARTPROPERTIES 19
FOUNDRY "FreeType"
FAMILY_NAME "Times New Roman"
WEIGHT_NAME "Medium"
SLANT "I"
SETWIDTH_NAME "Normal"
ADD_STYLE_NAME ""
PIXEL_SIZE 44
POINT_SIZE 320
RESOLUTION_X 100
RESOLUTION_Y 100
SPACING "P"
AVERAGE_WIDTH 227
CHARSET_REGISTRY "ISO10646"
CHARSET_ENCODING "1"
FONT_ASCENT 39
FONT_DESCENT 9
COPYRIGHT "© 2006 The Monotype Corporation. All Rights Reserved."
_OTF_FONTFILE "TimesI.otf"
_OTF_PSNAME "TimesNewRomanPS-ItalicMT"
ENDPROPERTIES
CHARS 943
STARTCHAR 0020
ENCODING 32
SWIDTH 247 0
DWIDTH 11 0
BBX 0 0 0 0
BITMAP
ENDCHAR
STARTCHAR 0021
ENCODING 33
SWIDTH 337 0
DWIDTH 15 0
BBX 11 31 3 -1
BITMAP
00E0
00E0
01E0
01E0
01E0
01C0
03C0
03C0
0380
0380
0300
0300
0300
0600
0600
0600
0400
0400
0800
0800
0800
1000
1000
0000
0000
0000
3000
7800
F800
7800
2000
ENDCHAR
STARTCHAR 0022
ENCODING 34
SWIDTH 427 0
DWIDTH 19 0
BBX 14 13 6 17
BITMAP
1C1C
3C3C
3C3C
7C7C
7878
7878
7070
7070
6060
6060
4040
C0C0
8080
ENDCHAR
STARTCHAR 0023
ENCODING 35
SWIDTH 495 0
DWIDTH 22 0
BBX 21 31 3 -1
BITMAP
00C060
00C060
008060
018040
0180C0
0180C0
0180C0
0100C0
030080
030180
FFFFF8
FFFFF8
020180
060100
060300
060300
060300
040300
0C0200
FFFFF8
FFFFF8
0C0600
080600
180400
180C00
180C00
180C00
100C00
300800
301800
301800
ENDCHAR
STARTCHAR 0024
ENCODING 36
SWIDTH 495 0
DWIDTH 22 0
BBX 20 34 2 -3
BITMAP
000300
000A00
00FF80
0187E0
0306F0
070460
070460
0F0C60
0F0860
0F0840
079800
07D800
07F000
03F000
01F800
00FC00
007E00
007F00
004F80
004780
00C780
00C3C0
0083C0
4081C0
418180
410380
410300
E30700
F20600
7A1C00
3FF000
060000
040000
040000
ENDCHAR
STARTCHAR 0025
ENCODING 37
SWIDTH 832 0
DWIDTH 37 0
BBX 33 31 3 -1
BITMAP
03E0000180
0630000300
1C18000600
3C18000C00
381C001800
781C003000
701C006000
703C00C000
F038018000
E038030000
E078060000
E0700C0000
60E0180000
60C0300000
3180600000
0E00C00800
0001807600
000301C300
0006038380
000C038380
0018070380
0030070380
00600E0380
00C00E0380
01800E0780
03000E0700
06000E0700
0C000C0E00
18000E1C00
3000061800
600003F000
ENDCHAR
STARTCHAR 0026
ENCODING 38
SWIDTH 787 0
DWIDTH 35 0
BBX 30 31 2 -1
BITMAP
00007C00
0001EF00
00038700
00030380
00070380
00060380
000E0700
000E0700
000E0E00
000F1C00
000F7000
000FC000
000F0000
007F0000
01C78000
078783FC
1E0781E0
3C07C1C0
3C03C180
7803C300
7803E300
F801E600
F801F400
F801F800
F800F800
F8007800
7C00FC00
7E01BE04
3FFF1F8C
1FFC0FF0
03C003C0
ENDCHAR
STARTCHAR 0027
ENCODING 39
SWIDTH 225 0
DWIDTH 10 0
BBX 6 13 6 17
BITMAP
38
7C
78
78
78
70
F0
E0
E0
C0
C0
80
80
ENDCHAR
STARTCHAR 0028
ENCODING 40
SWIDTH 337 0
DWIDTH 15 0
BBX 16 39 3 -9
BITMAP
0003
0006
000C
0018
0030
0060
00C0
0180
0380
0700
0F00
0E00
1E00
1C00
3C00
3C00
7800
7800
7800
7000
F000
F000
F000
E000
E000
E000
E000
E000
E000
6000
6000
6000
6000
2000
3000
1000
1000
0800
0800
ENDCHAR
STARTCHAR 0029
ENCODING 41
SWIDTH 337 0
DWIDTH 15 0
BBX 16 39 -4 -9
BITMAP
0010
0010
0008
0008
000C
000C
0006
0006
0006
0006
0007
0007
0007
0007
0007
000F
000F
000F
000E
001E
001E
001E
003C
003C
003C
0078
0070
00F0
00E0
01C0
01C0
0380
0700
0600
0C00
1800
3000
4000
8000
ENDCHAR
STARTCHAR 002A
ENCODING 42
SWIDTH 495 0
DWIDTH 22 0
BBX 16 18 6 13
BITMAP
0180
01C0
01C0
01C0
71C7
F98F
7C9F
3EBE
07E0
03C0
1EFC
7C9F
F99F
F1CF
01C0
01C0
01C0
01C0
ENDCHAR
STARTCHAR 002B
ENCODING 43
SWIDTH 675 0
DWIDTH 30 0
BBX 24 23 4 3
BITMAP
001800
001800
001800
001800
001800
001800
001800
001800
001800
001800
FFFFFF
FFFFFF
001800
001800
001800
001800
001800
001800
001800
001800
001800
001800
001800
ENDCHAR
STARTCHAR 002C
ENCODING 44
SWIDTH 247 0
DWIDTH 11 0
BBX 6 9 0 -6
BITMAP
38
3C
7C
3C
1C
18
10
20
C0
ENDCHAR
STARTCHAR 002D
ENCODING 45
SWIDTH 337 0
DWIDTH 15 0
BBX 12 3 1 8
BITMAP
7FF0
7FF0
FFF0
ENDCHAR
STARTCHAR 002E
ENCODING 46
SWIDTH 247 0
DWIDTH 11 0
BBX 5 4 1 0
BITMAP
30
78
F8
78
ENDCHAR
STARTCHAR 002F
ENCODING 47
SWIDTH 270 0
DWIDTH 12 0
BBX 18 32 -1 -1
BITMAP
0000C0
000180
000180
000300
000300
000600
000600
000C00
000C00
001800
001800
003000
002000
006000
004000
00C000
008000
018000
030000
030000
060000
060000
0C0000
0C0000
180000
180000
300000
300000
600000
600000
C00000
C00000
ENDCHAR
STARTCHAR 0030
ENCODING 48
SWIDTH 495 0
DWIDTH 22 0
BBX 19 31 3 -1
BITMAP
003E00
00E300
018180
0381C0
0700C0
0E00E0
0E00E0
1E00E0
1C00E0
3C01E0
3C01E0
7801E0
7801E0
7801E0
F001C0
F003C0
F003C0
F003C0
F00380
E00780
E00780
E00700
E00F00
E00E00
E01E00
E01C00
603800
603000
306000
19C000
060000
ENDCHAR
STARTCHAR 0031
ENCODING 49
SWIDTH 495 0
DWIDTH 22 0
BBX 15 30 3 0
BITMAP
0006
007E
01FE
001E
001C
001C
003C
0038
0038
0078
0078
0070
0070
00F0
00E0
00E0
01E0
01E0
01C0
01C0
03C0
0380
0380
0780
0780
0700
0F00
0F00
1F00
FFE0
ENDCHAR
STARTCHAR 0032
ENCODING 50
SWIDTH 495 0
DWIDTH 22 0
BBX 20 30 1 0
BITMAP
001F00
007FC0
00FFE0
01CFE0
0301F0
0201F0
0000F0
0000F0
0000F0
0000E0
0000E0
0000C0
0001C0
000180
000300
000700
000600
000C00
001800
003000
006000
00C000
018000
030000
060080
080100
100300
3FFE00
7FFE00
FFFE00
ENDCHAR
STARTCHAR 0033
ENCODING 51
SWIDTH 495 0
DWIDTH 22 0
BBX 18 31 2 -1
BITMAP
003E00
00FF80
01CF80
0107C0
0203C0
0003C0
0003C0
0003C0
000380
000700
000E00
001C00
00F000
07F800
01FC00
007E00
001F00
001F00
000F00
000F00
000F00
000F00
000F00
000E00
000E00
000C00
E01800
F83000
FFE000
FF8000
080000
ENDCHAR
STARTCHAR 0034
ENCODING 52
SWIDTH 495 0
DWIDTH 22 0
BBX 20 30 1 -1
BITMAP
000030
000070
0000F0
0001E0
0003E0
0007E0
0007E0
000DC0
0019C0
0031C0
006380
00C380
018380
030780
060700
0C0700
180700
300E00
700E00
7FFFC0
7FFFC0
FFFFC0
001C00
003C00
003800
003800
003800
007000
007000
007000
ENDCHAR
STARTCHAR 0035
ENCODING 53
SWIDTH 495 0
DWIDTH 22 0
BBX 19 29 2 -1
BITMAP
007FE0
007FE0
00FFC0
008000
018000
010000
030000
03E000
03F800
07FC00
01FE00
003E00
001F00
000F00
000F00
000700
000700
000700
000700
000700
000700
000600
000600
000C00
001800
E01800
F87000
FFC000
FF0000
ENDCHAR
STARTCHAR 0036
ENCODING 54
SWIDTH 495 0
DWIDTH 22 0
BBX 20 30 3 -1
BITMAP
000070
0003C0
000F00
003C00
007800
00F000
01E000
03C000
078000
0F0000
1F0000
1FFC00
3F1E00
3C0F00
7C0780
780780
780780
F00380
F00380
F00780
E00780
E00780
E00780
E00700
E00F00
E00E00
601C00
703C00
307000
1FE000
ENDCHAR
STARTCHAR 0037
ENCODING 55
SWIDTH 495 0
DWIDTH 22 0
BBX 18 29 5 -1
BITMAP
1FFFC0
1FFFC0
3FFF80
300300
400300
800600
000600
000C00
001C00
001800
003800
003000
006000
006000
00C000
01C000
018000
038000
030000
060000
060000
0C0000
0C0000
180000
380000
300000
600000
600000
C00000
ENDCHAR
STARTCHAR 0038
ENCODING 56
SWIDTH 495 0
DWIDTH 22 0
BBX 20 31 2 -1
BITMAP
003F00
00E180
0180C0
038060
030070
070070
070070
078070
078060
07C0E0
03C1C0
03E380
01FE00
00F800
01FC00
073E00
0C1E00
181F00
300F00
700780
E00780
E00780
E00380
E00380
E00380
E00700
E00700
700E00
381C00
1FF000
010000
ENDCHAR
STARTCHAR 0039
ENCODING 57
SWIDTH 495 0
DWIDTH 22 0
BBX 21 31 1 -1
BITMAP
001F00
0071C0
00E060
01C070
038030
078030
070038
0F0038
0F0038
1E0078
1E0078
1E0078
1E0070
1E00F0
1E00F0
0E01F0
0F01E0
0783E0
07FFC0
01F7C0
000780
000F00
001E00
003E00
007800
00F000
01E000
03C000
0F0000
780000
800000
ENDCHAR
STARTCHAR 003A
ENCODING 58
SWIDTH 337 0
DWIDTH 15 0
BBX 9 20 3 0
BITMAP
0200
0700
0F80
0F00
0600
0000
0000
0000
0000
0000
0000
0000
0000
0000
0000
0000
6000
F000
F000
F000
ENDCHAR
STARTCHAR 003B
ENCODING 59
SWIDTH 337 0
DWIDTH 15 0
BBX 11 25 1 -6
BITMAP
0080
01C0
03E0
03E0
01C0
0000
0000
0000
0000
0000
0000
0000
0000
0000
0000
0000
1800
3C00
3C00
3C00
1C00
1800
1800
3000
C000
ENDCHAR
STARTCHAR 003C
ENCODING 60
SWIDTH 675 0
DWIDTH 30 0
BBX 24 21 3 4
BITMAP
000007
00001F
000078
0001E0
000F80
003C00
00F000
07C000
1E0000
780000
F00000
3E0000
0F8000
01E000
007800
001F00
0007C0
0000F0
00003C
00000F
000001
ENDCHAR
STARTCHAR 003D
ENCODING 61
SWIDTH 675 0
DWIDTH 30 0
BBX 24 9 4 10
BITMAP
FFFFFF
FFFFFF
000000
000000
000000
000000
000000
FFFFFF
FFFFFF
ENDCHAR
STARTCHAR 003E
ENCODING 62
SWIDTH 675 0
DWIDTH 30 0
BBX 24 21 3 4
BITMAP
C00000
F80000
3E0000
078000
01F000
007C00
000F00
0003C0
0000F8
00003E
00000F
00003C
0001F0
000780
001E00
00F800
03E000
0F0000
3C0000
F00000
800000
ENDCHAR
STARTCHAR 003F
ENCODING 63
SWIDTH 495 0
DWIDTH 22 0
BBX 16 31 4 -1
BITMAP
03F0
0C1C
180E
3807
3C07
3C07
1807
000F
000F
001E
003E
003C
0070
00E0
01C0
0300
0600
0400
0800
0800
1800
1000
1000
0000
0000
0000
3000
7800
F800
7000
2000
ENDCHAR
STARTCHAR 0040
ENCODING 64
SWIDTH 922 0
DWIDTH 41 0
BBX 38 41 2 -10
BITMAP
00007F0000
0007C1F000
001C001C00
0070000600
00E0000300
0180000180
03000000C0
0600000040
0E00000060
1C00000020
18001E1030
3800637030
3001C17010
300380F010
600700E010
600700E010
600E01E010
E01C01C010
C01C01C030
C03801C030
C03803C020
C078038060
C070078060
C0700F8040
C0700F00C0
C070170180
6078270300
607CC7060C
603F879C08
303E03F008
3000000010
1800000030
1800000020
0C00000040
06000000C0
0300000300
0180000600
00E0001C00
003C007000
000FFFC000
0000700000
ENDCHAR
STARTCHAR 0041
ENCODING 65
SWIDTH 607 0
DWIDTH 27 0
BBX 26 30 -2 0
BITMAP
00000080
00000180
00000380
00000780
00000700
00000F00
00001F00
00001700
00003F00
00006F00
0000CF00
00008F00
00018F00
00030F00
00060F00
00040E00
000C0E00
00180E00
00301E00
003FFE00
00601E00
00C01E00
00801E00
01801E00
03001E00
06001E00
0E001C00
0C003E00
3E003E00
FF81FFC0
ENDCHAR
STARTCHAR 0042
ENCODING 66
SWIDTH 607 0
DWIDTH 27 0
BBX 27 29 -1 0
BITMAP
00FFFE00
001E0F80
001E03C0
001E03E0
001C01E0
003C01E0
003C01E0
003801E0
003803E0
007803C0
00780780
00700F00
00F1FC00
00FFF000
00E0FC00
01E03E00
01E01F00
01C00F00
01C00F80
03C00F80
03C00F80
03800F00
07800F00
07801F00
07003E00
0F007C00
0F00F800
1FFFF000
FFFF8000
ENDCHAR
STARTCHAR 0043
ENCODING 67
SWIDTH 675 0
DWIDTH 30 0
BBX 28 31 3 -1
BITMAP
0003FC10
000F8FF0
003C01F0
00F000E0
01E00060
03C00060
07800060
0F000060
1F000040
1E000000
3E000000
3C000000
7C000000
78000000
78000000
F8000000
F8000000
F8000000
F8000000
F8000000
F8000000
F8000000
F8000000
78000100
7C000300
3C000600
3E000C00
1F801800
07E0F000
03FFC000
003C0000
ENDCHAR
STARTCHAR 0044
ENCODING 68
SWIDTH 720 0
DWIDTH 32 0
BBX 32 29 -1 0
BITMAP
00FFFF80
001E07E0
001E00F0
001E0078
003C003C
003C001E
003C001E
0038001F
0078000F
0078000F
0078000F
00F0000F
00F0000F
00F0000F
00E0001F
01E0001F
01E0001F
01C0001E
03C0003E
03C0003C
03C0003C
07800078
078000F0
078001E0
070003C0
0F000780
0F001E00
1FC7F800
FFFFC000
ENDCHAR
STARTCHAR 0045
ENCODING 69
SWIDTH 607 0
DWIDTH 27 0
BBX 29 29 -1 0
BITMAP
00FFFFF8
001E01F8
001E0030
001E0030
001C0010
003C0010
003C0020
003C0000
00780000
00780400
00780C00
00700800
00F03800
00FFF800
00F0F000
01E03000
01E01000
01E01000
01C02000
03C00000
03C00000
03C00080
07800080
07800180
07800300
0F000700
0F001F00
1FE3FE00
FFFFFE00
ENDCHAR
STARTCHAR 0046
ENCODING 70
SWIDTH 607 0
DWIDTH 27 0
BBX 30 29 -1 0
BITMAP
00FFFFFC
001E007C
001E001C
001E000C
001C0008
003C0008
003C0008
003C0000
00780000
00780200
00780600
00700C00
00F01C00
00FFFC00
00E07C00
01E01800
01E00800
01E00800
01C01000
03C00000
03C00000
03800000
07800000
07800000
07800000
0F000000
0F000000
1F800000
FFF00000
ENDCHAR
STARTCHAR 0047
ENCODING 71
SWIDTH 720 0
DWIDTH 32 0
BBX 29 31 3 -1
BITMAP
0001FF08
000FCFF8
003C00F0
00F00070
01E00030
03C00030
07800020
0F000020
1F000020
1E000000
3E000000
3C000000
7C000000
78000000
78000000
F8007FF8
F8000FE0
F8000780
F8000780
F8000780
F8000F00
F8000F00
78000F00
78001E00
3C001E00
3C001E00
1E001C00
0F003C00
07C07C00
01FFF000
001E0000
ENDCHAR
STARTCHAR 0048
ENCODING 72
SWIDTH 720 0
DWIDTH 32 0
BBX 37 29 -1 0
BITMAP
00FFE07FF8
001F000F80
001E000F80
001E000F00
001C000F00
003C000F00
003C001E00
0038001E00
0078001E00
0078003C00
0078003C00
00F0003C00
00F0003800
00FFFFF800
00E0007800
01E0007800
01E0007000
01E000F000
03C000F000
03C000E000
03C001E000
038001E000
078001E000
078003C000
078003C000
0F0003C000
0F0007C000
1F8007C000
FFE03FF800
ENDCHAR
STARTCHAR 0049
ENCODING 73
SWIDTH 337 0
DWIDTH 15 0
BBX 19 29 -1 0
BITMAP
00FFE0
001F00
001E00
001E00
001C00
003C00
003C00
003C00
007800
007800
007800
007000
00F000
00F000
00F000
01E000
01E000
01E000
01C000
03C000
03C000
03C000
078000
078000
078000
0F0000
0F0000
1F8000
FFF000
ENDCHAR
STARTCHAR 004A
ENCODING 74
SWIDTH 450 0
DWIDTH 20 0
BBX 26 30 -2 -1
BITMAP
0001FFC0
00003E00
00003C00
00003C00
00007800
00007800
00007800
00007000
0000F000
0000F000
0000F000
0001E000
0001E000
0001E000
0001C000
0003C000
0003C000
0003C000
00078000
00078000
00078000
00070000
000F0000
780E0000
781E0000
F81C0000
78380000
70F00000
3FE00000
0E000000
ENDCHAR
STARTCHAR 004B
ENCODING 75
SWIDTH 675 0
DWIDTH 30 0
BBX 33 29 -1 0
BITMAP
00FFC0FF80
001F007C00
001E007000
001E00E000
003C018000
003C030000
003C0E0000
0038180000
0078300000
0078E00000
0079C00000
00F3000000
00FE000000
00FF000000
00EF800000
01E7800000
01E3C00000
01E3E00000
03C1E00000
03C0F00000
03C0F80000
0380780000
07803C0000
07803C0000
07801E0000
0F001F0000
0F001F8000
1F801FC000
FFF0FFF800
ENDCHAR
STARTCHAR 004C
ENCODING 76
SWIDTH 562 0
DWIDTH 25 0
BBX 24 29 -1 0
BITMAP
00FFE0
001F00
001E00
001E00
003C00
003C00
003C00
003800
007800
007800
007800
00F000
00F000
00F000
00E000
01E000
01E000
01C000
03C000
03C000
03C000
078001
078003
078002
070006
0F000E
0F001C
1FFFFC
FFFFFC
ENDCHAR
STARTCHAR 004D
ENCODING 77
SWIDTH 832 0
DWIDTH 37 0
BBX 42 29 -1 0
BITMAP
00FE00003FC0
001E00007C00
001E00007C00
001F0000F800
001F0001F800
003F00017800
003F0003F000
002F0006F000
006F000CF000
006F000DE000
00470019E000
00C70031E000
00C78021E000
00C78063C000
008780C3C000
01878183C000
018781878000
010783078000
030386078000
03038C070000
03038C0F0000
0203D80F0000
0603F00F0000
0603F00E0000
0403E01E0000
0C03C01E0000
0C03803E0000
1E01803E0000
FF8103FFC000
ENDCHAR
STARTCHAR 004E
ENCODING 78
SWIDTH 675 0
DWIDTH 30 0
BBX 34 30 -1 -1
BITMAP
01FC003FC0
003E000E00
001E000E00
001E000C00
003F000C00
003F000800
0037001800
0027801800
0067801800
0063C01000
0043C03000
00C1C03000
00C1E02000
00C1E06000
0080F06000
0180F06000
0180704000
010078C000
030078C000
03003C8000
03003D8000
02001D8000
06001F8000
06001F0000
04000F0000
0C000F0000
0C000E0000
1E00060000
FF80060000
0000020000
ENDCHAR
STARTCHAR 004F
ENCODING 79
SWIDTH 720 0
DWIDTH 32 0
BBX 29 31 3 -1
BITMAP
0001FE00
000F0F80
003C03C0
007001E0
00E001E0
03C000F0
078000F0
078000F8
0F0000F8
1E0000F8
1E0000F8
3C0000F8
3C0000F8
7C0000F8
780000F0
F80001F0
F80001F0
F80001E0
F00003E0
F00003C0
F00007C0
F0000780
F0000F80
F0000F00
F8001E00
78003C00
7C007800
3C00F000
1E03C000
07FF0000
00F00000
ENDCHAR
STARTCHAR 0050
ENCODING 80
SWIDTH 607 0
DWIDTH 27 0
BBX 29 29 -1 0
BITMAP
00FFFF80
001F07C0
001E01E0
001E00F0
001E00F0
003C00F8
003C00F8
003C00F8
003800F0
007800F0
007801E0
007803E0
00F00780
00F81F00
00FFFC00
01E00000
01E00000
01E00000
01E00000
03C00000
03C00000
03C00000
07800000
07800000
07800000
07800000
0F000000
1F800000
FFF00000
ENDCHAR
STARTCHAR 0051
ENCODING 81
SWIDTH 720 0
DWIDTH 32 0
BBX 30 39 2 -9
BITMAP
0000FF00
000787C0
001E01E0
003800F0
00F000F0
01E00078
03C00078
03C0007C
0780007C
0F00007C
0F00007C
1E00007C
1E00007C
3E00007C
3C000078
7C0000F8
7C0000F8
7C0000F0
780001F0
780001E0
780003E0
780003C0
780007C0
78000780
7C000F00
3C001E00
3E003C00
1E007800
0F01E000
03FF8000
00780000
00C00000
01800000
07000020
0C000040
1FF00080
7FFFCF00
FFFFFE00
003FF800
ENDCHAR
STARTCHAR 0052
ENCODING 82
SWIDTH 607 0
DWIDTH 27 0
BBX 27 29 -1 0
BITMAP
00FFFE00
003E1F80
001E07C0
001E03C0
001C03C0
003C03E0
003C03E0
003803C0
007803C0
007807C0
00780780
00700F00
00F03E00
00FFF800
00EFC000
01E1E000
01E1E000
01C0E000
01C0F000
03C0F000
03C07000
03807800
07807800
07803800
07803C00
0F003C00
0F001E00
1F801F00
FFE01FE0
ENDCHAR
STARTCHAR 0053
ENCODING 83
SWIDTH 495 0
DWIDTH 22 0
BBX 24 31 0 -1
BITMAP
001FC1
007FF3
00F03E
01E00E
01C00E
03C006
03C006
03C004
03C004
03E004
01F000
01F800
00FC00
007E00
003F00
001F80
000FC0
0007E0
0003E0
0003F0
2001F0
2000F0
2000F0
2000F0
3000F0
7000E0
7801E0
7C03C0
7E0780
47FE00
807000
ENDCHAR
STARTCHAR 0054
ENCODING 84
SWIDTH 562 0
DWIDTH 25 0
BBX 26 29 3 0
BITMAP
1FFFFFC0
1F0F0780
180F0180
300E0180
201E0100
201E0100
201C0100
003C0000
003C0000
003C0000
00780000
00780000
00780000
00700000
00F00000
00F00000
00F00000
01E00000
01E00000
01E00000
01C00000
03C00000
03C00000
03C00000
07800000
07800000
07800000
0FC00000
FFF80000
ENDCHAR
STARTCHAR 0055
ENCODING 85
SWIDTH 720 0
DWIDTH 32 0
BBX 31 30 5 -1
BITMAP
7FF803FE
0F800070
0F800060
0F000060
0F000040
0E0000C0
1E0000C0
1E000080
1E000180
1C000180
3C000100
3C000100
38000300
78000300
78000200
78000600
70000600
F0000400
F0000C00
F0000C00
F0000800
E0001800
F0001800
F0003000
F0003000
78006000
3C01C000
1F878000
0FFE0000
01E00000
ENDCHAR
STARTCHAR 0056
ENCODING 86
SWIDTH 607 0
DWIDTH 27 0
BBX 26 30 6 -1
BITMAP
FFE03FC0
1F001E00
1E001C00
1E001800
1E003000
1E002000
1E006000
1E00C000
1E018000
1C010000
1C030000
1C060000
3C0C0000
3C080000
3C180000
3C300000
3C600000
3C400000
3CC00000
3D800000
39000000
3B000000
7E000000
7C000000
78000000
78000000
70000000
60000000
40000000
40000000
ENDCHAR
STARTCHAR 0057
ENCODING 87
SWIDTH 832 0
DWIDTH 37 0
BBX 35 30 6 -1
BITMAP
FFC7FF0FE0
3E01F00780
1E00F00700
1E00F00600
1C01F00400
1C01E00C00
3C03E01800
3C07E01000
3C05E03000
3C0DE06000
3C19E04000
3C19E0C000
3C31E18000
3821E10000
3861E30000
78C1C60000
7881C40000
7983CC0000
7B03D80000
7A03D80000
7E03F00000
7C03E00000
7803E00000
7803C00000
7003800000
E003800000
E007000000
C006000000
C006000000
8004000000
ENDCHAR
STARTCHAR 0058
ENCODING 88
SWIDTH 607 0
DWIDTH 27 0
BBX 35 29 -3 0
BITMAP
003FF03FE0
000F800F00
0007800E00
0007801C00
0003C01800
0003C03000
0003C06000
0001C0C000
0001E18000
0001E30000
0001E60000
0000FC0000
0000F80000
0000F00000
0000F00000
0000F80000
0001F80000
0003780000
00063C0000
000C3C0000
00183C0000
00301C0000
00601E0000
00C01E0000
01801E0000
03000F0000
07000F0000
1F001F8000
FFC0FFF000
ENDCHAR
STARTCHAR 0059
ENCODING 89
SWIDTH 562 0
DWIDTH 25 0
BBX 25 29 4 0
BITMAP
3FF07F80
0F801C00
0F801800
07801800
07803000
07806000
03C0C000
03C0C000
03C18000
01C30000
01E20000
01E60000
00EC0000
00F80000
00F80000
00F00000
00F00000
01E00000
01E00000
01E00000
03C00000
03C00000
03C00000
03C00000
07800000
07800000
0F800000
1F800000
FFF80000
ENDCHAR
STARTCHAR 005A
ENCODING 90
SWIDTH 562 0
DWIDTH 25 0
BBX 27 29 0 0
BITMAP
03FFFFE0
03E007C0
03000780
06000F80
04001F00
04003E00
00007C00
00007800
0000F800
0001F000
0003E000
0007C000
00078000
000F8000
001F0000
003E0000
007C0000
00780000
00F80000
01F00000
03E00000
07C00100
07800200
0F800200
1F000600
3E000C00
7C003C00
7807FC00
FFFFF800
ENDCHAR
STARTCHAR 005B
ENCODING 91
SWIDTH 382 0
DWIDTH 17 0
BBX 21 39 0 -9
BITMAP
000FF8
001C00
001C00
001C00
003C00
003800
003800
007800
007000
007000
007000
00E000
00E000
00E000
01E000
01C000
01C000
01C000
038000
038000
038000
078000
070000
070000
0F0000
0E0000
0E0000
0E0000
1C0000
1C0000
1C0000
3C0000
380000
380000
380000
700000
700000
7FC000
FFC000
ENDCHAR
STARTCHAR 005C
ENCODING 92
SWIDTH 270 0
DWIDTH 12 0
BBX 5 32 5 -1
BITMAP
80
80
C0
C0
C0
C0
40
40
40
40
60
60
60
60
20
20
20
20
30
30
30
30
10
10
10
18
18
18
18
18
08
08
ENDCHAR
STARTCHAR 005D
ENCODING 93
SWIDTH 382 0
DWIDTH 17 0
BBX 20 39 -4 -9
BITMAP
001FF0
000070
0000E0
0000E0
0000E0
0001E0
0001C0
0001C0
0001C0
000380
000380
000380
000780
000700
000700
000F00
000E00
000E00
000E00
001C00
001C00
001C00
003C00
003800
003800
003800
007000
007000
007000
00F000
00E000
00E000
01E000
01C000
01C000
01C000
038000
FF8000
FF8000
ENDCHAR
STARTCHAR 005E
ENCODING 94
SWIDTH 427 0
DWIDTH 19 0
BBX 18 15 2 15
BITMAP
00C000
00C000
01E000
036000
033000
063800
061800
0C0C00
180C00
180600
300700
300300
600180
C00180
C000C0
ENDCHAR
STARTCHAR 005F
ENCODING 95
SWIDTH 495 0
DWIDTH 22 0
BBX 23 2 0 -10
BITMAP
FFFFFE
FFFFFE
ENDCHAR
STARTCHAR 0060
ENCODING 96
SWIDTH 337 0
DWIDTH 15 0
BBX 7 7 8 23
BITMAP
F8
78
3C
1C
0C
04
02
ENDCHAR
STARTCHAR 0061
ENCODING 97
SWIDTH 495 0
DWIDTH 22 0
BBX 20 21 1 -1
BITMAP
001810
00FEF0
01C2E0
0301E0
0701E0
0E01C0
1C01C0
1C01C0
3803C0
380380
700380
700780
F00700
F00F00
F01F00
F03F00
F06E20
F8CE40
7F8F80
7E0F00
000400
ENDCHAR
STARTCHAR 0062
ENCODING 98
SWIDTH 495 0
DWIDTH 22 0
BBX 20 31 1 -1
BITMAP
003000
0FE000
01E000
01E000
01E000
01C000
01C000
03C000
038000
038000
038000
078600
071FC0
077FE0
0FC1E0
0F80F0
0F00F0
0E00F0
1E00F0
1C00F0
1C00E0
3C00E0
3800E0
3801C0
7801C0
780380
700300
700600
F00C00
701800
1FE000
ENDCHAR
STARTCHAR 0063
ENCODING 99
SWIDTH 450 0
DWIDTH 20 0
BBX 18 20 1 -1
BITMAP
000E00
007B80
01C0C0
0301C0
0E03C0
0E0380
1C0180
380000
380000
780000
700000
700000
F00000
F00000
F00000
F00100
780200
780C00
3F7800
1FE000
ENDCHAR
STARTCHAR 0064
ENCODING 100
SWIDTH 495 0
DWIDTH 22 0
BBX 23 31 1 -1
BITMAP
000006
0000FE
00003C
00001C
00003C
000038
000038
000038
000078
000070
000070
0008F0
007EE0
01C3E0
0301E0
0701E0
0E01C0
1C01C0
3C01C0
380380
780380
700780
F00780
F00F00
F01700
E01F00
F02E20
F04E20
F98E40
7F0F80
7E0F00
ENDCHAR
STARTCHAR 0065
ENCODING 101
SWIDTH 450 0
DWIDTH 20 0
BBX 18 20 1 -1
BITMAP
000600
007780
01C1C0
0301C0
0601C0
0E03C0
1C0380
3C0700
380E00
783800
7BE000
7E0000
700000
F00000
F00000
780100
780200
7C0C00
3FF800
1FE000
ENDCHAR
STARTCHAR 0066
ENCODING 102
SWIDTH 270 0
DWIDTH 12 0
BBX 29 41 -8 -10
BITMAP
000001E0
00000630
00000C38
00001838
00003810
00003000
00007000
0000E000
0000E000
0001E000
0001C000
0003C000
001FF800
0003C000
00038000
00038000
00078000
00078000
00070000
00070000
000F0000
000F0000
000E0000
000E0000
001E0000
001E0000
001C0000
001C0000
003C0000
00380000
00380000
00300000
00700000
00700000
00600000
00C00000
00C00000
61800000
E3000000
66000000
18000000
ENDCHAR
STARTCHAR 0067
ENCODING 103
SWIDTH 495 0
DWIDTH 22 0
BBX 24 30 -1 -10
BITMAP
000E00
00F3C0
01C0FF
0380FF
078070
0F0070
0F00F0
0F00F0
0F00F0
0F00E0
0F01E0
0703C0
03CF00
00F800
018000
030000
060000
0F8000
0FF800
07FF80
18FFC0
300FE0
6000F0
E00070
E00060
E00060
F000C0
780380
1FFE00
01C000
ENDCHAR
STARTCHAR 0068
ENCODING 104
SWIDTH 495 0
DWIDTH 22 0
BBX 19 32 1 -1
BITMAP
003000
07F000
01E000
00E000
01E000
01C000
01C000
01C000
03C000
038000
038000
078180
0707C0
070FE0
0719E0
0F31E0
0E61C0
0E41C0
1E81C0
1D03C0
1F0380
1E0380
3C0780
3C0700
380700
780700
780F20
700E20
700E40
F00F80
E00F00
000400
ENDCHAR
STARTCHAR 0069
ENCODING 105
SWIDTH 270 0
DWIDTH 12 0
BBX 10 28 2 -1
BITMAP
03C0
03C0
03C0
0380
0000
0000
0000
0000
0100
7F00
0F00
0E00
0E00
0E00
1C00
1C00
1C00
3C00
3800
3800
7800
7800
7000
7100
F300
F600
FC00
F800
ENDCHAR
STARTCHAR 006A
ENCODING 106
SWIDTH 270 0
DWIDTH 12 0
BBX 20 38 -8 -10
BITMAP
000070
0000F0
0000F0
000070
000000
000000
000000
000000
000000
000FC0
0007C0
0003C0
000380
000380
000780
000700
000700
000700
000F00
000E00
000E00
001E00
001C00
001C00
001C00
003C00
003800
003800
007800
007000
007000
007000
00E000
00C000
71C000
E38000
6E0000
300000
ENDCHAR
STARTCHAR 006B
ENCODING 107
SWIDTH 450 0
DWIDTH 20 0
BBX 21 31 1 -1
BITMAP
003000
0FE000
01E000
01E000
01C000
01C000
01C000
03C000
038000
038000
078000
070000
071FF8
070380
0F0600
0E0C00
0E1800
1E3000
1C6000
1CE000
3DE000
3EF000
3CF000
387000
787000
707800
707840
F038C0
F03D80
E03F00
E01E00
ENDCHAR
STARTCHAR 006C
ENCODING 108
SWIDTH 270 0
DWIDTH 12 0
BBX 11 32 2 -1
BITMAP
0060
0FE0
01E0
01C0
01C0
03C0
0380
0380
0380
0780
0700
0700
0F00
0E00
0E00
0E00
1E00
1C00
1C00
3C00
3800
3800
3800
7000
7000
7000
F100
E200
E400
F800
F000
4000
ENDCHAR
STARTCHAR 006D
ENCODING 109
SWIDTH 720 0
DWIDTH 32 0
BBX 29 20 1 -1
BITMAP
00810020
3F0FC1F0
4F1FC3F0
0F33C670
0E63CC70
0E439870
0E8390F0
1F03A0F0
1D07C0E0
1E0740E0
3C0781E0
3C0781C0
380F01C0
380F03C0
780E03C0
701E0388
701E0390
F01C07B0
E01C07E0
E03C07C0
ENDCHAR
STARTCHAR 006E
ENCODING 110
SWIDTH 495 0
DWIDTH 22 0
BBX 19 20 1 -1
BITMAP
008080
3F07C0
0F0FE0
0F19E0
0F21E0
0E41C0
0E41C0
1E81C0
1D03C0
1F0380
1E0380
3C0780
3C0700
380700
780700
700F20
700E20
700E40
F00F80
E00F00
ENDCHAR
STARTCHAR 006F
ENCODING 111
SWIDTH 495 0
DWIDTH 22 0
BBX 20 20 1 -1
BITMAP
000C00
00FF80
01C1C0
0700E0
0F00E0
1E00E0
1C00F0
3C00F0
3800E0
7800E0
7801E0
7001E0
F001C0
F003C0
F00380
F00780
700F00
701E00
383800
1FE000
ENDCHAR
STARTCHAR 0070
ENCODING 112
SWIDTH 495 0
DWIDTH 22 0
BBX 26 30 -5 -10
BITMAP
00020C00
01FC3F00
003CC780
003D03C0
003E03C0
003E03C0
003C03C0
007803C0
007803C0
00700380
00700780
00F00780
00E00700
00E00F00
01E00E00
01C01C00
01C03800
01C07000
03E0E000
03FF8000
03800000
07800000
07000000
07000000
07000000
0F000000
0E000000
1E000000
3F000000
FFC00000
ENDCHAR
STARTCHAR 0071
ENCODING 113
SWIDTH 495 0
DWIDTH 22 0
BBX 20 30 1 -10
BITMAP
001810
00FE70
01C3E0
0301E0
0701E0
0E01E0
1C01C0
3C01C0
3803C0
780380
700380
700780
F00F80
F00F00
F01700
F03F00
F06E00
F8CE00
7F8E00
3E1E00
081C00
001C00
003C00
003800
003800
003800
007800
007800
03FC00
07FE00
ENDCHAR
STARTCHAR 0072
ENCODING 114
SWIDTH 382 0
DWIDTH 17 0
BBX 17 20 1 0
BITMAP
008100
3F0780
0F0F80
071F80
0F2700
0E4300
0E4000
0E8000
1D0000
1D0000
1E0000
3C0000
3C0000
380000
380000
780000
700000
700000
F00000
E00000
ENDCHAR
STARTCHAR 0073
ENCODING 115
SWIDTH 382 0
DWIDTH 17 0
BBX 16 21 0 -1
BITMAP
0061
03FF
070F
0E06
0E02
0E02
0F02
0780
07C0
03E0
01F0
01F0
00F8
4078
4038
4038
C038
E030
E070
FDC0
0200
ENDCHAR
STARTCHAR 0074
ENCODING 116
SWIDTH 270 0
DWIDTH 12 0
BBX 11 25 2 -1
BITMAP
0080
0080
0180
0380
0700
1F00
7FE0
0E00
0E00
1E00
1E00
1C00
1C00
3C00
3800
3800
7800
7800
7000
7000
F100
E300
E600
FC00
F800
ENDCHAR
STARTCHAR 0075
ENCODING 117
SWIDTH 495 0
DWIDTH 22 0
BBX 19 21 2 -1
BITMAP
040000
1E01E0
7E01C0
CE01C0
9E01C0
1E03C0
1C0380
1C0780
3C0780
380F00
380F00
781700
701F00
702E00
704E00
F08E00
E19C40
F31C80
FE1F00
F81E00
200000
ENDCHAR
STARTCHAR 0076
ENCODING 118
SWIDTH 450 0
DWIDTH 20 0
BBX 19 20 1 -1
BITMAP
000080
7E01C0
BE01E0
1E01E0
0F00C0
0F00C0
0F00C0
070080
070180
070100
070200
070600
078C00
078800
079000
07A000
07C000
078000
030000
020000
ENDCHAR
STARTCHAR 0077
ENCODING 119
SWIDTH 675 0
DWIDTH 30 0
BBX 28 21 1 -1
BITMAP
04004020
7C00C070
BE00C070
1E01C070
0E03C030
0E03C030
0E05C020
0E0DC020
0F09C040
0719C0C0
0711E080
0721E100
0760E300
0740E200
07C0E400
0780E800
0700F800
0700F000
0600E000
0600C000
04008000
ENDCHAR
STARTCHAR 0078
ENCODING 120
SWIDTH 450 0
DWIDTH 20 0
BBX 21 21 -2 -1
BITMAP
004010
0FE078
01E0F8
00F1B8
007200
007600
007C00
007800
003800
003800
003800
003C00
005C00
00DC00
009C00
011E10
030E20
660E40
FC0FC0
780700
200000
ENDCHAR
STARTCHAR 0079
ENCODING 121
SWIDTH 450 0
DWIDTH 20 0
BBX 23 30 -4 -10
BITMAP
000004
01F00E
07F01E
00700E
007006
007802
007806
007804
00380C
003808
003810
003830
003820
003840
003880
003980
003D00
003E00
003C00
001C00
001800
001000
002000
004000
008000
010000
720000
FC0000
780000
200000
ENDCHAR
STARTCHAR 007A
ENCODING 122
SWIDTH 382 0
DWIDTH 17 0
BBX 18 19 -1 0
BITMAP
07FFC0
0FFF80
0FFF80
080300
100600
000C00
001800
003000
006000
00C000
018000
030000
060000
0C0100
180200
100600
3FFE00
7FFC00
FFFC00
ENDCHAR
STARTCHAR 007B
ENCODING 123
SWIDTH 405 0
DWIDTH 18 0
BBX 18 41 3 -10
BITMAP
0000C0
000300
000C00
001800
003000
007000
00E000
00E000
00E000
01E000
01E000
01E000
01E000
01C000
01C000
018000
030000
060000
0C0000
300000
C00000
300000
180000
0C0000
0C0000
0C0000
1C0000
1C0000
3C0000
3C0000
780000
780000
700000
700000
E00000
600000
600000
600000
300000
1C0000
020000
ENDCHAR
STARTCHAR 007C
ENCODING 124
SWIDTH 270 0
DWIDTH 12 0
BBX 2 41 5 -10
BITMAP
C0
C0
C0
C0
C0
C0
C0
C0
C0
C0
C0
C0
C0
C0
C0
C0
C0
C0
C0
C0
C0
C0
C0
C0
C0
C0
C0
C0
C0
C0
C0
C0
C0
C0
C0
C0
C0
C0
C0
C0
C0
ENDCHAR
STARTCHAR 007D
ENCODING 125
SWIDTH 405 0
DWIDTH 18 0
BBX 18 41 -3 -10
BITMAP
001800
000600
000300
000380
000180
000180
000380
000380
000380
000780
000700
000F00
000E00
001E00
001C00
001C00
000C00
000C00
000600
000300
0001C0
000600
001800
003000
007000
00E000
00E000
01E000
01E000
01E000
01E000
01C000
01C000
01C000
038000
038000
070000
060000
180000
600000
800000
ENDCHAR
STARTCHAR 007E
ENCODING 126
SWIDTH 540 0
DWIDTH 24 0
BBX 23 6 1 9
BITMAP
0C0002
7F8004
77F004
C0FC0C
801FF8
8003F0
ENDCHAR
STARTCHAR 00A0
ENCODING 160
SWIDTH 247 0
DWIDTH 11 0
BBX 0 0 0 0
BITMAP
ENDCHAR
STARTCHAR 00A1
ENCODING 161
SWIDTH 382 0
DWIDTH 17 0
BBX 11 31 3 -10
BITMAP
01C0
01E0
03E0
01C0
0000
0000
0000
0000
0100
0100
0200
0200
0200
0600
0400
0400
0C00
0C00
1C00
1C00
1800
3800
3800
3800
7800
7800
7000
F000
F000
E000
4000
ENDCHAR
STARTCHAR 00A2
ENCODING 162
SWIDTH 495 0
DWIDTH 22 0
BBX 18 36 2 -8
BITMAP
000300
000200
000200
000200
000400
000400
000400
000C00
000E00
007980
01D8C0
0391C0
0711C0
0E13C0
1C3180
3C2000
382000
786000
784000
704000
70C000
708000
F08000
708100
798200
7D0400
3F7800
1FE000
030000
020000
060000
040000
040000
040000
0C0000
080000
ENDCHAR
STARTCHAR 00A3
ENCODING 163
SWIDTH 495 0
DWIDTH 22 0
BBX 22 31 1 -1
BITMAP
0001F0
00077C
000E3C
001C3C
001C1C
003800
003800
007800
007800
007000
00F000
00F000
00F000
00F000
3FFF80
3FFF80
01E000
01E000
01C000
01C000
01C000
018000
038000
038000
0F0000
7F8000
47E020
87FFC0
84FFC0
D87F00
301C00
ENDCHAR
STARTCHAR 00A4
ENCODING 164
SWIDTH 495 0
DWIDTH 22 0
BBX 21 21 2 4
BITMAP
C00010
E1FC38
77DF60
3C03C0
1800C0
300060
300060
600030
600030
600030
600030
600030
600030
600020
300060
3800C0
1C01C0
3E03E0
67FE70
C0F838
000010
ENDCHAR
STARTCHAR 00A5
ENCODING 165
SWIDTH 495 0
DWIDTH 22 0
BBX 27 29 0 0
BITMAP
07FC0FE0
03E00380
01E00300
01E00600
00E00C00
00F00C00
00F01800
00703000
00782000
00786000
0038C000
00398000
003D0000
7FFFFF00
7FFFFF00
001C0000
003C0000
003C0000
00380000
FFFFFE00
FFFFFE00
00780000
00700000
00F00000
00F00000
00F00000
01E00000
03F00000
1FFE0000
ENDCHAR
STARTCHAR 00A6
ENCODING 166
SWIDTH 270 0
DWIDTH 12 0
BBX 2 41 5 -10
BITMAP
C0
C0
C0
C0
C0
C0
C0
C0
C0
C0
C0
C0
C0
C0
C0
C0
00
00
00
00
00
00
00
00
C0
C0
C0
C0
C0
C0
C0
C0
C0
C0
C0
C0
C0
C0
C0
C0
C0
ENDCHAR
STARTCHAR 00A7
ENCODING 167
SWIDTH 495 0
DWIDTH 22 0
BBX 23 39 0 -9
BITMAP
0007F0
000818
00101C
00301E
00200E
00200C
006000
007000
007000
003800
003800
001C00
001E00
00FF00
030F80
060380
0601C0
0601C0
0600E0
0600E0
0700E0
070060
0780C0
03C0C0
01F180
00FE00
007000
007800
003800
001C00
001C00
000C00
400C00
E00C00
E00800
E00800
701000
386000
1F8000
ENDCHAR
STARTCHAR 00A8
ENCODING 168
SWIDTH 337 0
DWIDTH 15 0
BBX 12 5 6 24
BITMAP
70E0
F0F0
F0F0
F0F0
2040
ENDCHAR
STARTCHAR 00A9
ENCODING 169
SWIDTH 765 0
DWIDTH 34 0
BBX 31 31 3 -1
BITMAP
001FF000
00787C00
01C00700
03000180
0C0000E0
0801C260
101E7E30
30300E18
20E00608
61C0020C
41C00204
43C00004
C3800006
83800006
83800006
87800006
87800006
C3800006
C3C00004
43C00004
41C0010C
60E0020C
20700418
303C3810
180FE030
0C000060
060000C0
03000380
01E00E00
007FF800
0007C000
ENDCHAR
STARTCHAR 00AA
ENCODING 170
SWIDTH 270 0
DWIDTH 12 0
BBX 13 12 4 18
BITMAP
03B8
0C70
1870
3070
6060
6060
C0E0
C0C0
C1C0
C2D0
FDE0
70C0
ENDCHAR
STARTCHAR 00AB
ENCODING 171
SWIDTH 495 0
DWIDTH 22 0
BBX 19 21 2 -1
BITMAP
002020
004040
0080C0
018180
030300
060700
0E0E00
1C1C00
383800
707800
F0F000
F07000
707800
703800
383800
381800
181800
180C00
0C0C00
040400
040400
ENDCHAR
STARTCHAR 00AC
ENCODING 172
SWIDTH 675 0
DWIDTH 30 0
BBX 24 9 3 10
BITMAP
FFFFFF
FFFFFF
000003
000003
000003
000003
000003
000003
000003
ENDCHAR
STARTCHAR 00AD
ENCODING 173
SWIDTH 337 0
DWIDTH 15 0
BBX 12 3 1 8
BITMAP
7FF0
7FF0
FFF0
ENDCHAR
STARTCHAR 00AE
ENCODING 174
SWIDTH 765 0
DWIDTH 34 0
BBX 31 31 3 -1
BITMAP
001FF000
00787C00
01C00700
03000180
0C0000E0
08000060
11FFE030
3070F018
20707808
60703C0C
40703C04
40703C04
C0703806
80707806
8071E006
807F8006
8073C006
C071C006
C070E004
4070F004
4070700C
6070380C
20701C18
30F81E10
19FE0F30
0C000060
060000C0
03000380
01E00E00
007FF800
0007C000
ENDCHAR
STARTCHAR 00AF
ENCODING 175
SWIDTH 495 0
DWIDTH 22 0
BBX 23 2 4 32
BITMAP
FFFFFE
FFFFFE
ENDCHAR
STARTCHAR 00B0
ENCODING 176
SWIDTH 405 0
DWIDTH 18 0
BBX 13 13 5 17
BITMAP
0F80
3FE0
7070
E030
C018
C018
8018
C018
C018
C030
6070
3FE0
1F80
ENDCHAR
STARTCHAR 00B1
ENCODING 177
SWIDTH 540 0
DWIDTH 24 0
BBX 24 23 1 3
BITMAP
001800
001800
001800
001800
001800
001800
001800
001800
001800
001800
FFFFFF
FFFFFF
001800
001800
001800
001800
001800
001800
001800
001800
001800
FFFFFF
FFFFFF
ENDCHAR
STARTCHAR 00B2
ENCODING 178
SWIDTH 292 0
DWIDTH 13 0
BBX 13 16 2 14
BITMAP
03E0
07F0
0C78
0838
0038
0030
0030
0060
00C0
0180
0300
0400
0820
1060
7FC0
FFC0
ENDCHAR
STARTCHAR 00B3
ENCODING 179
SWIDTH 292 0
DWIDTH 13 0
BBX 11 16 3 14
BITMAP
03C0
0FE0
0860
0060
00E0
01C0
0700
1F80
03C0
01C0
01C0
01C0
01C0
0180
FB00
7C00
ENDCHAR
STARTCHAR 00B4
ENCODING 180
SWIDTH 337 0
DWIDTH 15 0
BBX 6 7 9 23
BITMAP
3C
38
70
70
60
C0
80
ENDCHAR
STARTCHAR 00B5
ENCODING 181
SWIDTH 585 0
DWIDTH 26 0
BBX 24 29 -1 -10
BITMAP
00700E
00F00E
00E01E
00E01C
00E01C
01E03C
01C038
01C038
03C038
038078
038070
038070
0780F0
0701E0
0701E1
0F02E1
0F04E2
0FF8FC
1BF0F8
180020
100000
300000
300000
700000
700000
F00000
F00000
E00000
400000
ENDCHAR
STARTCHAR 00B6
ENCODING 182
SWIDTH 517 0
DWIDTH 23 0
BBX 21 39 2 -10
BITMAP
07FFF8
1FF0C0
3FF0C0
7FF0C0
7FF0C0
7FF0C0
FFF0C0
FFF0C0
FFF0C0
FFF0C0
7FF0C0
7FF0C0
3FF0C0
1FF0C0
0FF0C0
01F0C0
0010C0
0010C0
0010C0
0010C0
0010C0
0010C0
0010C0
0010C0
0010C0
0010C0
0010C0
0010C0
0010C0
0010C0
0010C0
0010C0
0010C0
0010C0
0010C0
0010C0
0010C0
0010C0
0010C0
ENDCHAR
STARTCHAR 00B7
ENCODING 183
SWIDTH 247 0
DWIDTH 11 0
BBX 5 5 3 12
BITMAP
70
F8
F8
F8
30
ENDCHAR
STARTCHAR 00B8
ENCODING 184
SWIDTH 337 0
DWIDTH 15 0
BBX 8 9 -1 -8
BITMAP
06
04
0E
1F
0F
07
07
0E
FC
ENDCHAR
STARTCHAR 00B9
ENCODING 185
SWIDTH 292 0
DWIDTH 13 0
BBX 9 16 4 14
BITMAP
0180
0F80
0380
0300
0300
0700
0600
0600
0E00
0C00
0C00
1C00
1800
3800
3800
FE00
ENDCHAR
STARTCHAR 00BA
ENCODING 186
SWIDTH 315 0
DWIDTH 14 0
BBX 12 12 5 18
BITMAP
07E0
0C30
3830
3030
6030
E030
E070
C070
C0E0
C0C0
6180
3E00
ENDCHAR
STARTCHAR 00BB
ENCODING 187
SWIDTH 495 0
DWIDTH 22 0
BBX 19 21 1 -1
BITMAP
040400
040600
060200
030300
030300
038380
038180
03C1C0
01C1C0
01E1E0
01E1E0
03C1C0
038380
070700
0E0E00
1C0C00
181800
303000
602000
404000
808000
ENDCHAR
STARTCHAR 00BC
ENCODING 188
SWIDTH 742 0
DWIDTH 33 0
BBX 27 31 4 -1
BITMAP
01800100
0F800300
03800600
03000600
07000C00
07001800
06001800
0E003000
0E006000
0C006000
1C00C000
1C018000
18018000
38030000
38060000
FE060000
000C0060
000800C0
001801C0
003003C0
00200D80
00601980
00C03380
00C06300
0180C300
03018700
0301FFC0
06000600
0C000E00
0C000C00
18000C00
ENDCHAR
STARTCHAR 00BD
ENCODING 189
SWIDTH 742 0
DWIDTH 33 0
BBX 27 31 4 -1
BITMAP
01800600
0F800600
03800C00
03000800
07001800
07003000
06003000
0E006000
0E00C000
0C00C000
1C018000
1C030000
18030000
38060000
380C0000
FE0C0700
00181FC0
003033C0
003020E0
006000E0
004000C0
00C000C0
01800180
01000300
03000600
06000C00
06001800
0C002000
18004100
1801FF00
3003FE00
ENDCHAR
STARTCHAR 00BE
ENCODING 190
SWIDTH 742 0
DWIDTH 33 0
BBX 28 31 3 -1
BITMAP
03C00180
0FE00180
08E00300
00600600
00E00600
01C00C00
07001800
1F801800
03C03000
01C06000
01C06000
01C0C000
01808000
01818000
FB030000
7C020000
00060030
000C0060
000C00E0
001801E0
003006C0
00300CC0
006019C0
00C03180
00C06180
0180C380
0300FFE0
03000300
06000700
0C000600
0C000600
ENDCHAR
STARTCHAR 00BF
ENCODING 191
SWIDTH 495 0
DWIDTH 22 0
BBX 16 31 2 -10
BITMAP
000E
001F
001F
000E
0000
0000
0000
0000
0008
0008
0010
0010
0030
0060
00C0
01C0
0380
0F00
1E00
3C00
7800
F000
F000
E000
E01C
E03C
E01C
7018
7018
1EE0
0300
ENDCHAR
STARTCHAR 00C0
ENCODING 192
SWIDTH 607 0
DWIDTH 27 0
BBX 28 39 -2 0
BITMAP
000007C0
000003C0
000001C0
000000E0
00000060
00000020
00000030
00000000
00000000
00000080
00000180
00000380
00000780
00000700
00000F00
00001F00
00001700
00003F00
00006F00
0000CF00
00008F00
00018F00
00030F00
00060F00
00040E00
000C0E00
00180E00
00301E00
003FFE00
00601E00
00C01E00
00801E00
01801E00
03001E00
06001E00
0E001C00
0C003E00
3E003E00
FF81FFC0
ENDCHAR
STARTCHAR 00C1
ENCODING 193
SWIDTH 607 0
DWIDTH 27 0
BBX 29 39 -2 0
BITMAP
000000F8
000000F0
000000E0
000000C0
000001C0
00000180
00000100
00000000
00000000
00000080
00000180
00000380
00000780
00000700
00000F00
00001F00
00001700
00003F00
00006F00
0000CF00
00008F00
00018F00
00030F00
00060F00
00040E00
000C0E00
00180E00
00301E00
003FFE00
00601E00
00C01E00
00801E00
01801E00
03001E00
06001E00
0E001C00
0C003E00
3E003E00
FF81FFC0
ENDCHAR
STARTCHAR 00C2
ENCODING 194
SWIDTH 607 0
DWIDTH 27 0
BBX 30 38 -2 0
BITMAP
000000F0
000001F0
000003B8
00000618
00000C18
00001008
00002004
00000000
00000080
00000180
00000380
00000780
00000700
00000F00
00001F00
00001700
00003F00
00006F00
0000CF00
00008F00
00018F00
00030F00
00060F00
00040E00
000C0E00
00180E00
00301E00
003FFE00
00601E00
00C01E00
00801E00
01801E00
03001E00
06001E00
0E001C00
0C003E00
3E003E00
FF81FFC0
ENDCHAR
STARTCHAR 00C3
ENCODING 195
SWIDTH 607 0
DWIDTH 27 0
BBX 32 38 -2 0
BITMAP
00000601
00001F81
00001FE2
000023FE
000020FE
00002078
00000000
00000000
00000080
00000180
00000380
00000780
00000700
00000F00
00001F00
00001700
00003F00
00006F00
0000CF00
00008F00
00018F00
00030F00
00060F00
00040E00
000C0E00
00180E00
00301E00
003FFE00
00601E00
00C01E00
00801E00
01801E00
03001E00
06001E00
0E001C00
0C003E00
3E003E00
FF81FFC0
ENDCHAR
STARTCHAR 00C4
ENCODING 196
SWIDTH 607 0
DWIDTH 27 0
BBX 32 37 -2 0
BITMAP
00000E0E
00001F1F
00001F1F
00000F1E
00000404
00000000
00000000
00000080
00000180
00000380
00000780
00000700
00000F00
00001F00
00001700
00003F00
00006F00
0000CF00
00008F00
00018F00
00030F00
00060F00
00040E00
000C0E00
00180E00
00301E00
003FFE00
00601E00
00C01E00
00801E00
01801E00
03001E00
06001E00
0E001C00
0C003E00
3E003E00
FF81FFC0
ENDCHAR
STARTCHAR 00C5
ENCODING 197
SWIDTH 607 0
DWIDTH 27 0
BBX 29 37 -2 0
BITMAP
000003E0
00000630
00000418
00000408
00000418
00000618
000003F0
000001E0
00000180
00000380
00000780
00000700
00000F00
00001F00
00001700
00003F00
00006F00
0000CF00
00008F00
00018F00
00030F00
00060F00
00040E00
000C0E00
00180E00
00301E00
003FFE00
00601E00
00C01E00
00801E00
01801E00
03001E00
06001E00
0E001C00
0C003E00
3E003E00
FF81FFC0
ENDCHAR
STARTCHAR 00C6
ENCODING 198
SWIDTH 900 0
DWIDTH 40 0
BBX 42 29 -2 0
BITMAP
000007FFFFC0
000001BC07C0
000001F801C0
000003780080
000006780080
00000C700080
000008F00080
000018F00000
000030E00000
000061E02000
0000C1E02000
000081E06000
000181C1E000
000303FFC000
000603C3C000
000C0380C000
000807808000
001FFF808000
003FFF808000
006007000000
00C00F000000
00800F000400
01800E000400
03001E000C00
06001E001800
0C001E003800
1C003E00F800
3C007FFFF000
FF83FFFFF000
ENDCHAR
STARTCHAR 00C7
ENCODING 199
SWIDTH 675 0
DWIDTH 30 0
BBX 28 38 3 -8
BITMAP
0003FC10
000F8FF0
003C01F0
00F000E0
01E00060
03C00060
07800060
0F000060
1F000040
1E000000
3E000000
3C000000
7C000000
78000000
78000000
F8000000
F8000000
F8000000
F8000000
F8000000
F8000000
F8000000
F8000000
78000100
7C000300
3C000600
3E000C00
1F801800
07E0F000
03FFC000
003C0000
00380000
003C0000
001E0000
000E0000
001C0000
001C0000
01F00000
ENDCHAR
STARTCHAR 00C8
ENCODING 200
SWIDTH 607 0
DWIDTH 27 0
BBX 29 39 -1 0
BITMAP
0000F800
00007800
00003800
00001C00
00000C00
00000C00
00000400
00000000
00000000
00000000
00FFFFF8
001E01F8
001E0030
001E0030
001C0010
003C0010
003C0020
003C0000
00780000
00780400
00780C00
00700800
00F03800
00FFF800
00F0F000
01E03000
01E01000
01E01000
01C02000
03C00000
03C00000
03C00080
07800080
07800180
07800300
0F000700
0F001F00
1FE3FE00
FFFFFE00
ENDCHAR
STARTCHAR 00C9
ENCODING 201
SWIDTH 607 0
DWIDTH 27 0
BBX 29 39 -1 0
BITMAP
00003E00
00003C00
00003800
00007000
00006000
00004000
0000C000
00000000
00000000
00000000
00FFFFF8
001E01F8
001E0030
001E0030
001C0010
003C0010
003C0020
003C0000
00780000
00780400
00780C00
00700800
00F03800
00FFF800
00F0F000
01E03000
01E01000
01E01000
01C02000
03C00000
03C00000
03C00080
07800080
07800180
07800300
0F000700
0F001F00
1FE3FE00
FFFFFE00
ENDCHAR
STARTCHAR 00CA
ENCODING 202
SWIDTH 607 0
DWIDTH 27 0
BBX 29 38 -1 0
BITMAP
00000F00
00001F00
00003B00
00006380
0000C180
00010080
00020000
00000000
00000000
00FFFFF8
001E01F8
001E0030
001E0030
001C0010
003C0010
003C0020
003C0000
00780000
00780400
00780C00
00700800
00F03800
00FFF800
00F0F000
01E03000
01E01000
01E01000
01C02000
03C00000
03C00000
03C00080
07800080
07800180
07800300
0F000700
0F001F00
1FE3FE00
FFFFFE00
ENDCHAR
STARTCHAR 00CB
ENCODING 203
SWIDTH 607 0
DWIDTH 27 0
BBX 29 37 -1 0
BITMAP
0001C1C0
0003E3C0
0003E3C0
0003C3C0
00008000
00000000
00000000
00000000
00FFFFF8
001E01F8
001E0030
001E0030
001C0010
003C0010
003C0020
003C0000
00780000
00780400
00780C00
00700800
00F03800
00FFF800
00F0F000
01E03000
01E01000
01E01000
01C02000
03C00000
03C00000
03C00080
07800080
07800180
07800300
0F000700
0F001F00
1FE3FE00
FFFFFE00
ENDCHAR
STARTCHAR 00CC
ENCODING 204
SWIDTH 337 0
DWIDTH 15 0
BBX 19 39 -1 0
BITMAP
001F00
000F00
000700
000380
000180
000180
0000C0
000000
000000
000000
00FFE0
001F00
001E00
001E00
001C00
003C00
003C00
003C00
007800
007800
007800
007000
00F000
00F000
00F000
01E000
01E000
01E000
01C000
03C000
03C000
03C000
078000
078000
078000
0F0000
0F0000
1F8000
FFF000
ENDCHAR
STARTCHAR 00CD
ENCODING 205
SWIDTH 337 0
DWIDTH 15 0
BBX 19 39 -1 0
BITMAP
0003E0
0003C0
000780
000700
000600
000400
000800
000000
000000
000000
00FFE0
001F00
001E00
001E00
001C00
003C00
003C00
003C00
007800
007800
007800
007000
00F000
00F000
00F000
01E000
01E000
01E000
01C000
03C000
03C000
03C000
078000
078000
078000
0F0000
0F0000
1F8000
FFF000
ENDCHAR
STARTCHAR 00CE
ENCODING 206
SWIDTH 337 0
DWIDTH 15 0
BBX 20 38 -1 0
BITMAP
0003C0
0007E0
000EE0
001860
003020
004020
008010
000000
000000
00FFE0
001F00
001E00
001E00
001C00
003C00
003C00
003C00
007800
007800
007800
007000
00F000
00F000
00F000
01E000
01E000
01E000
01C000
03C000
03C000
03C000
078000
078000
078000
0F0000
0F0000
1F8000
FFF000
ENDCHAR
STARTCHAR 00CF
ENCODING 207
SWIDTH 337 0
DWIDTH 15 0
BBX 21 37 -1 0
BITMAP
007070
0078F8
00F8F8
007870
000020
000000
000000
000000
00FFE0
001F00
001E00
001E00
001C00
003C00
003C00
003C00
007800
007800
007800
007000
00F000
00F000
00F000
01E000
01E000
01E000
01C000
03C000
03C000
03C000
078000
078000
078000
0F0000
0F0000
1F8000
FFF000
ENDCHAR
STARTCHAR 00D0
ENCODING 208
SWIDTH 720 0
DWIDTH 32 0
BBX 33 29 -1 0
BITMAP
00FFFF8000
001E07E000
001E00F800
001E007C00
001C003C00
003C001E00
003C001F00
003C000F00
0078000F00
0078000F00
0078000F80
0070000F80
00F0000F80
0FFFF00F80
00F0000F00
01E0000F00
01E0001F00
01E0001E00
03C0001E00
03C0003E00
03C0003C00
03C0007800
078000F800
078000F000
078001C000
0F00078000
0F001E0000
1FC7F80000
FFFFC00000
ENDCHAR
STARTCHAR 00D1
ENCODING 209
SWIDTH 675 0
DWIDTH 30 0
BBX 34 39 -1 -1
BITMAP
0000300800
00007C0800
0000FF0800
00019FF000
000107F000
000101E000
0000000000
0000000000
0000000000
01FC003FC0
003E000E00
001E000E00
001E000C00
003F000C00
003F000800
0037001800
0027801800
0067801800
0063C01000
0043C03000
00C1C03000
00C1E02000
00C1E06000
0080F06000
0180F06000
0180704000
010078C000
030078C000
03003C8000
03003D8000
02001D8000
06001F8000
06001F0000
04000F0000
0C000F0000
0C000E0000
1E00060000
FF80060000
0000020000
ENDCHAR
STARTCHAR 00D2
ENCODING 210
SWIDTH 720 0
DWIDTH 32 0
BBX 29 40 3 -1
BITMAP
00007800
00003C00
00003C00
00001C00
00000E00
00000600
00000200
00000000
00000000
0001FE00
000F0F80
003C03C0
007001E0
00E001E0
03C000F0
078000F0
078000F8
0F0000F8
1E0000F8
1E0000F8
3C0000F8
3C0000F8
7C0000F8
780000F0
F80001F0
F80001F0
F80001E0
F00003E0
F00003C0
F00007C0
F0000780
F0000F80
F0000F00
F8001E00
78003C00
7C007800
3C00F000
1E03C000
07FF0000
00F00000
ENDCHAR
STARTCHAR 00D3
ENCODING 211
SWIDTH 720 0
DWIDTH 32 0
BBX 29 40 3 -1
BITMAP
00000F80
00000F00
00000E00
00001C00
00001800
00001000
00003000
00000000
00000000
0001FE00
000F0F80
003C03C0
007001E0
00E001E0
03C000F0
078000F0
078000F8
0F0000F8
1E0000F8
1E0000F8
3C0000F8
3C0000F8
7C0000F8
780000F0
F80001F0
F80001F0
F80001E0
F00003E0
F00003C0
F00007C0
F0000780
F0000F80
F0000F00
F8001E00
78003C00
7C007800
3C00F000
1E03C000
07FF0000
00F00000
ENDCHAR
STARTCHAR 00D4
ENCODING 212
SWIDTH 720 0
DWIDTH 32 0
BBX 29 39 3 -1
BITMAP
00001F00
00003F00
00007700
0000E300
00018180
00030080
00040000
00000000
0001FE00
000F0F80
003C03C0
007001E0
00E001E0
03C000F0
078000F0
078000F8
0F0000F8
1E0000F8
1E0000F8
3C0000F8
3C0000F8
7C0000F8
780000F0
F80001F0
F80001F0
F80001E0
F00003E0
F00003C0
F00007C0
F0000780
F0000F80
F0000F00
F8001E00
78003C00
7C007800
3C00F000
1E03C000
07FF0000
00F00000
ENDCHAR
STARTCHAR 00D5
ENCODING 213
SWIDTH 720 0
DWIDTH 32 0
BBX 29 39 3 -1
BITMAP
0000C020
0003F020
0003FC60
00067FC0
00041FC0
00040F80
00000000
00000000
0001FE00
000F0F80
003C03C0
007001E0
00E001E0
03C000F0
078000F0
078000F8
0F0000F8
1E0000F8
1E0000F8
3C0000F8
3C0000F8
7C0000F8
780000F0
F80001F0
F80001F0
F80001E0
F00003E0
F00003C0
F00007C0
F0000780
F0000F80
F0000F00
F8001E00
78003C00
7C007800
3C00F000
1E03C000
07FF0000
00F00000
ENDCHAR
STARTCHAR 00D6
ENCODING 214
SWIDTH 720 0
DWIDTH 32 0
BBX 29 38 3 -1
BITMAP
0001C1C0
0003E3E0
0003E3E0
0001E3C0
00008080
00000000
00000000
0001FE00
000F0F80
003C03C0
007001E0
00E001E0
03C000F0
078000F0
078000F8
0F0000F8
1E0000F8
1E0000F8
3C0000F8
3C0000F8
7C0000F8
780000F0
F80001F0
F80001F0
F80001E0
F00003E0
F00003C0
F00007C0
F0000780
F0000F80
F0000F00
F8001E00
78003C00
7C007800
3C00F000
1E03C000
07FF0000
00F00000
ENDCHAR
STARTCHAR 00D7
ENCODING 215
SWIDTH 675 0
DWIDTH 30 0
BBX 18 18 8 6
BITMAP
400000
E000C0
700180
380300
1C0600
0E0C00
071800
03B000
01E000
00E000
01F000
033800
061C00
0C0E00
180700
300380
6001C0
400080
ENDCHAR
STARTCHAR 00D8
ENCODING 216
SWIDTH 720 0
DWIDTH 32 0
BBX 31 32 2 -2
BITMAP
00000004
0000FF06
0007CFCC
001E01F8
003800F0
00F000F0
01E000F8
03C001F8
03C0037C
0780063C
0F000C3C
0F00187C
1E00307C
1E00607C
3E00C07C
3C018078
7C0300F8
7C0600F8
7C0C00F0
781801F0
783001E0
787003E0
78E003C0
79C007C0
7B800780
7F000F00
3E001E00
1E003C00
3E007000
3F81E000
63FF8000
C0780000
ENDCHAR
STARTCHAR 00D9
ENCODING 217
SWIDTH 720 0
DWIDTH 32 0
BBX 31 40 5 -1
BITMAP
0001E000
0000F000
0000F000
00007000
00003000
00001800
00000800
00000000
00000000
00000000
7FF803FE
0F800070
0F800060
0F000060
0F000040
0E0000C0
1E0000C0
1E000080
1E000180
1C000180
3C000100
3C000100
38000300
78000300
78000200
78000600
70000600
F0000400
F0000C00
F0000C00
F0000800
E0001800
F0001800
F0003000
F0003000
78006000
3C01C000
1F878000
0FFE0000
01E00000
ENDCHAR
STARTCHAR 00DA
ENCODING 218
SWIDTH 720 0
DWIDTH 32 0
BBX 31 40 5 -1
BITMAP
00007800
0000F000
0000F000
0000E000
0000C000
00018000
00010000
00000000
00000000
00000000
7FF803FE
0F800070
0F800060
0F000060
0F000040
0E0000C0
1E0000C0
1E000080
1E000180
1C000180
3C000100
3C000100
38000300
78000300
78000200
78000600
70000600
F0000400
F0000C00
F0000C00
F0000800
E0001800
F0001800
F0003000
F0003000
78006000
3C01C000
1F878000
0FFE0000
01E00000
ENDCHAR
STARTCHAR 00DB
ENCODING 219
SWIDTH 720 0
DWIDTH 32 0
BBX 31 39 5 -1
BITMAP
00007800
0000F800
0001D800
00031C00
00040C00
00080400
00100000
00000000
00000000
7FF803FE
0F800070
0F800060
0F000060
0F000040
0E0000C0
1E0000C0
1E000080
1E000180
1C000180
3C000100
3C000100
38000300
78000300
78000200
78000600
70000600
F0000400
F0000C00
F0000C00
F0000800
E0001800
F0001800
F0003000
F0003000
78006000
3C01C000
1F878000
0FFE0000
01E00000
ENDCHAR
STARTCHAR 00DC
ENCODING 220
SWIDTH 720 0
DWIDTH 32 0
BBX 31 38 5 -1
BITMAP
000E0E00
001F1E00
001F1E00
000E1E00
00040000
00000000
00000000
00000000
7FF803FE
0F800070
0F800060
0F000060
0F000040
0E0000C0
1E0000C0
1E000080
1E000180
1C000180
3C000100
3C000100
38000300
78000300
78000200
78000600
70000600
F0000400
F0000C00
F0000C00
F0000800
E0001800
F0001800
F0003000
F0003000
78006000
3C01C000
1F878000
0FFE0000
01E00000
ENDCHAR
STARTCHAR 00DD
ENCODING 221
SWIDTH 562 0
DWIDTH 25 0
BBX 25 39 4 0
BITMAP
0001E000
0001E000
0003C000
00038000
00030000
00060000
00040000
00000000
00000000
00000000
3FF07F80
0F801C00
0F801800
07801800
07803000
07806000
03C0C000
03C0C000
03C18000
01C30000
01E20000
01E60000
00EC0000
00F80000
00F80000
00F00000
00F00000
01E00000
01E00000
01E00000
03C00000
03C00000
03C00000
03C00000
07800000
07800000
0F800000
1F800000
FFF80000
ENDCHAR
STARTCHAR 00DE
ENCODING 222
SWIDTH 607 0
DWIDTH 27 0
BBX 28 29 -1 0
BITMAP
00FFE000
001F0000
001E0000
001E0000
001E0000
003C0000
003FFC00
003FFF80
007807C0
007803E0
007801E0
007001F0
00F001F0
00F001F0
00F001F0
01E001F0
01E001E0
01E003E0
01C007C0
03C00F80
03C07F00
03FFFC00
07800000
07800000
07800000
0F800000
0F000000
1F800000
FFF00000
ENDCHAR
STARTCHAR 00DF
ENCODING 223
SWIDTH 495 0
DWIDTH 22 0
BBX 29 41 -7 -10
BITMAP
00000780
000038E0
00007070
0000E038
0001E038
0001C038
0001C038
00038038
00038078
00038070
000700E0
000701C0
00070780
000F3800
000E0E00
000E0780
001E03C0
001C01C0
001C01E0
001C01E0
003C01E0
003801E0
003801E0
007801C0
007003C0
007183C0
0073C380
00E38700
00E38600
00E18C00
00C1F800
01C04000
01C00000
01C00000
03800000
03800000
03000000
E6000000
C6000000
D8000000
20000000
ENDCHAR
STARTCHAR 00E0
ENCODING 224
SWIDTH 495 0
DWIDTH 22 0
BBX 20 31 1 -1
BITMAP
003E00
000E00
000F00
000700
000300
000180
000080
000000
000000
000000
001810
00FEF0
01C2E0
0301E0
0701E0
0E01C0
1C01C0
1C01C0
3803C0
380380
700380
700780
F00700
F00F00
F01F00
F03F00
F06E20
F8CE40
7F8F80
7E0F00
000400
ENDCHAR
STARTCHAR 00E1
ENCODING 225
SWIDTH 495 0
DWIDTH 22 0
BBX 20 31 1 -1
BITMAP
0003C0
000780
000700
000600
000C00
000C00
000800
000000
000000
000000
001810
00FEF0
01C2E0
0301E0
0701E0
0E01C0
1C01C0
1C01C0
3803C0
380380
700380
700780
F00700
F00F00
F01F00
F03F00
F06E20
F8CE40
7F8F80
7E0F00
000400
ENDCHAR
STARTCHAR 00E2
ENCODING 226
SWIDTH 495 0
DWIDTH 22 0
BBX 20 31 1 -1
BITMAP
0003C0
0007E0
000FE0
001C60
003060
006030
008010
000000
000000
000000
001810
00FEF0
01C2E0
0301E0
0701E0
0E01C0
1C01C0
1C01C0
3803C0
380380
700380
700780
F00700
F00F00
F01F00
F03F00
F06E20
F8CE40
7F8F80
7E0F00
000400
ENDCHAR
STARTCHAR 00E3
ENCODING 227
SWIDTH 495 0
DWIDTH 22 0
BBX 21 31 1 -1
BITMAP
001008
00FC08
00FF08
019FF0
0107F0
0103E0
000000
000000
000000
000000
001810
00FEF0
01C2E0
0301E0
0701E0
0E01C0
1C01C0
1C01C0
3803C0
380380
700380
700780
F00700
F00F00
F01F00
F03F00
F06E20
F8CE40
7F8F80
7E0F00
000400
ENDCHAR
STARTCHAR 00E4
ENCODING 228
SWIDTH 495 0
DWIDTH 22 0
BBX 21 30 1 -1
BITMAP
007070
0078F8
0078F8
007878
002020
000000
000000
000000
000000
001810
00FEF0
01C2E0
0301E0
0701E0
0E01C0
1C01C0
1C01C0
3803C0
380380
700380
700780
F00700
F00F00
F01F00
F03F00
F06E20
F8CE40
7F8F80
7E0F00
000400
ENDCHAR
STARTCHAR 00E5
ENCODING 229
SWIDTH 495 0
DWIDTH 22 0
BBX 20 32 1 -1
BITMAP
000780
000FC0
001860
001820
001020
001860
000C60
0007C0
000000
000000
000000
001810
00FEF0
01C2E0
0301E0
0701E0
0E01C0
1C01C0
1C01C0
3803C0
380380
700380
700780
F00700
F00F00
F01F00
F03F00
F06E20
F8CE40
7F8F80
7E0F00
000400
ENDCHAR
STARTCHAR 00E6
ENCODING 230
SWIDTH 675 0
DWIDTH 30 0
BBX 28 20 1 -1
BITMAP
00180180
00F4EFE0
0182D870
0302E070
0703E070
0E03C070
1C03C0E0
1C0381C0
38038380
38078E00
70077800
700FC000
F00F0000
F01F0000
E01F0000
F02F0040
F04700C0
F9C78180
7F83FE00
7E01FC00
ENDCHAR
STARTCHAR 00E7
ENCODING 231
SWIDTH 450 0
DWIDTH 20 0
BBX 18 28 1 -8
BITMAP
000E00
007B80
01C0C0
0301C0
0E03C0
0E0380
1C0180
380000
380000
780000
700000
700000
F00000
F00000
F00000
F00100
780200
780C00
3F7800
1FE000
010000
038000
03C000
01C000
01C000
01C000
018000
3F0000
ENDCHAR
STARTCHAR 00E8
ENCODING 232
SWIDTH 450 0
DWIDTH 20 0
BBX 18 30 1 -1
BITMAP
007C00
001C00
001E00
000E00
000600
000300
000100
000000
000000
000000
000600
007780
01C1C0
0301C0
0601C0
0E03C0
1C0380
3C0700
380E00
783800
7BE000
7E0000
700000
F00000
F00000
780100
780200
7C0C00
3FF800
1FE000
ENDCHAR
STARTCHAR 00E9
ENCODING 233
SWIDTH 450 0
DWIDTH 20 0
BBX 18 30 1 -1
BITMAP
000F80
000F00
000E00
001C00
001800
001000
001000
000000
000000
000000
000600
007780
01C1C0
0301C0
0601C0
0E03C0
1C0380
3C0700
380E00
783800
7BE000
7E0000
700000
F00000
F00000
780100
780200
7C0C00
3FF800
1FE000
ENDCHAR
STARTCHAR 00EA
ENCODING 234
SWIDTH 450 0
DWIDTH 20 0
BBX 19 30 1 -1
BITMAP
000780
000F80
001DC0
0039C0
0060C0
00C040
010020
000000
000000
000000
000600
007780
01C1C0
0301C0
0601C0
0E03C0
1C0380
3C0700
380E00
783800
7BE000
7E0000
700000
F00000
F00000
780100
780200
7C0C00
3FF800
1FE000
ENDCHAR
STARTCHAR 00EB
ENCODING 235
SWIDTH 450 0
DWIDTH 20 0
BBX 20 29 1 -1
BITMAP
00E0E0
00F1F0
01F1F0
00F1E0
004040
000000
000000
000000
000000
000600
007780
01C1C0
0301C0
0601C0
0E03C0
1C0380
3C0700
380E00
783800
7BE000
7E0000
700000
F00000
F00000
780100
780200
7C0C00
3FF800
1FE000
ENDCHAR
STARTCHAR 00EC
ENCODING 236
SWIDTH 270 0
DWIDTH 12 0
BBX 10 30 2 -1
BITMAP
0F00
0780
0380
0380
0180
00C0
0040
0000
0000
0000
0100
7F00
0F00
0E00
0E00
0E00
1C00
1C00
1C00
3C00
3800
3800
7800
7800
7000
7100
F300
F600
FC00
F800
ENDCHAR
STARTCHAR 00ED
ENCODING 237
SWIDTH 270 0
DWIDTH 12 0
BBX 12 30 2 -1
BITMAP
00F0
01E0
01C0
0180
0380
0300
0200
0000
0000
0000
0100
7F00
0F00
0E00
0E00
0E00
1C00
1C00
1C00
3C00
3800
3800
7800
7800
7000
7100
F300
F600
FC00
F800
ENDCHAR
STARTCHAR 00EE
ENCODING 238
SWIDTH 270 0
DWIDTH 12 0
BBX 13 30 2 -1
BITMAP
00F0
01F0
03F0
0630
0C18
1008
2008
0000
0000
0000
0100
7F00
0F00
0E00
0E00
0E00
1C00
1C00
1C00
3C00
3800
3800
7800
7800
7000
7100
F300
F600
FC00
F800
ENDCHAR
STARTCHAR 00EF
ENCODING 239
SWIDTH 270 0
DWIDTH 12 0
BBX 14 29 2 -1
BITMAP
1C3C
3E3C
3E3C
3C3C
0810
0000
0000
0000
0000
0100
7F00
0F00
0E00
0E00
0E00
1C00
1C00
1C00
3C00
3800
3800
7800
7800
7000
7100
F300
F600
FC00
F800
ENDCHAR
STARTCHAR 00F0
ENCODING 240
SWIDTH 495 0
DWIDTH 22 0
BBX 20 30 1 0
BITMAP
000810
000460
0007C0
000700
001F00
003180
004180
0001C0
0001C0
0000E0
0008E0
00FEE0
01C1E0
0701F0
0F00F0
1E00F0
1C00F0
3C00F0
7800E0
7801E0
7801E0
F001E0
F003C0
F003C0
F00780
F00700
700F00
701E00
383800
1FE000
ENDCHAR
STARTCHAR 00F1
ENCODING 241
SWIDTH 495 0
DWIDTH 22 0
BBX 21 30 1 -1
BITMAP
001008
00FC08
00FF08
019FF0
0107F0
0103E0
000000
000000
000000
000000
008080
3F07C0
0F0FE0
0F19E0
0F21E0
0E41C0
0E41C0
1E81C0
1D03C0
1F0380
1E0380
3C0780
3C0700
380700
780700
700F20
700E20
700E40
F00F80
E00F00
ENDCHAR
STARTCHAR 00F2
ENCODING 242
SWIDTH 495 0
DWIDTH 22 0
BBX 20 30 1 -1
BITMAP
000F00
000700
000380
000380
000180
0000C0
000040
000000
000000
000000
000C00
00FF80
01C1C0
0700E0
0F00E0
1E00E0
1C00F0
3C00F0
3800E0
7800E0
7801E0
7001E0
F001C0
F003C0
F00380
F00780
700F00
701E00
383800
1FE000
ENDCHAR
STARTCHAR 00F3
ENCODING 243
SWIDTH 495 0
DWIDTH 22 0
BBX 20 30 1 -1
BITMAP
0003C0
000780
000700
000600
000C00
000C00
000800
000000
000000
000000
000C00
00FF80
01C1C0
0700E0
0F00E0
1E00E0
1C00F0
3C00F0
3800E0
7800E0
7801E0
7001E0
F001C0
F003C0
F00380
F00780
700F00
701E00
383800
1FE000
ENDCHAR
STARTCHAR 00F4
ENCODING 244
SWIDTH 495 0
DWIDTH 22 0
BBX 20 30 1 -1
BITMAP
0003C0
0007E0
000FE0
001C60
003060
006030
008010
000000
000000
000000
000C00
00FF80
01C1C0
0700E0
0F00E0
1E00E0
1C00F0
3C00F0
3800E0
7800E0
7801E0
7001E0
F001C0
F003C0
F00380
F00780
700F00
701E00
383800
1FE000
ENDCHAR
STARTCHAR 00F5
ENCODING 245
SWIDTH 495 0
DWIDTH 22 0
BBX 21 30 1 -1
BITMAP
001008
00FC08
00FF08
019FF0
0107F0
0103E0
000000
000000
000000
000000
000C00
00FF80
01C1C0
0700E0
0F00E0
1E00E0
1C00F0
3C00F0
3800E0
7800E0
7801E0
7001E0
F001C0
F003C0
F00380
F00780
700F00
701E00
383800
1FE000
ENDCHAR
STARTCHAR 00F6
ENCODING 246
SWIDTH 495 0
DWIDTH 22 0
BBX 21 29 1 -1
BITMAP
007070
0078F8
0078F8
007878
002020
000000
000000
000000
000000
000C00
00FF80
01C1C0
0700E0
0F00E0
1E00E0
1C00F0
3C00F0
3800E0
7800E0
7801E0
7001E0
F001C0
F003C0
F00380
F00780
700F00
701E00
383800
1FE000
ENDCHAR
STARTCHAR 00F7
ENCODING 247
SWIDTH 540 0
DWIDTH 24 0
BBX 24 17 1 6
BITMAP
003800
003C00
003800
000000
000000
000000
000000
FFFFFF
FFFFFF
000000
000000
000000
000000
001800
003C00
003C00
001800
ENDCHAR
STARTCHAR 00F8
ENCODING 248
SWIDTH 495 0
DWIDTH 22 0
BBX 21 22 0 -2
BITMAP
000008
000618
003FD0
00E0E0
038070
0780F0
0F0170
0E0378
1E0678
1C0C78
3C1870
3C30F0
3860F0
78C1E0
7981E0
7B01C0
7E03C0
3C0780
380F00
3C1C00
6FF000
C00000
ENDCHAR
STARTCHAR 00F9
ENCODING 249
SWIDTH 495 0
DWIDTH 22 0
BBX 19 31 2 -1
BITMAP
00F000
007800
003800
003800
001800
000C00
000400
000000
000000
000000
040000
1E01E0
7E01C0
CE01C0
9E01C0
1E03C0
1C0380
1C0780
3C0780
380F00
380F00
781700
701F00
702E00
704E00
F08E00
E19C40
F31C80
FE1F00
F81E00
200000
ENDCHAR
STARTCHAR 00FA
ENCODING 250
SWIDTH 495 0
DWIDTH 22 0
BBX 19 31 2 -1
BITMAP
000780
000F00
000E00
000C00
001800
001800
001000
000000
000000
000000
040000
1E01E0
7E01C0
CE01C0
9E01C0
1E03C0
1C0380
1C0780
3C0780
380F00
380F00
781700
701F00
702E00
704E00
F08E00
E19C40
F31C80
FE1F00
F81E00
200000
ENDCHAR
STARTCHAR 00FB
ENCODING 251
SWIDTH 495 0
DWIDTH 22 0
BBX 19 31 2 -1
BITMAP
000F00
001F00
003F80
007380
00C180
010080
020000
000000
000000
000000
040000
1E01E0
7E01C0
CE01C0
9E01C0
1E03C0
1C0380
1C0780
3C0780
380F00
380F00
781700
701F00
702E00
704E00
F08E00
E19C40
F31C80
FE1F00
F81E00
200000
ENDCHAR
STARTCHAR 00FC
ENCODING 252
SWIDTH 495 0
DWIDTH 22 0
BBX 19 30 2 -1
BITMAP
00E0E0
01F1E0
01F1E0
01E1E0
004040
000000
000000
000000
000000
040000
1E01E0
7E01C0
CE01C0
9E01C0
1E03C0
1C0380
1C0780
3C0780
380F00
380F00
781700
701F00
702E00
704E00
F08E00
E19C40
F31C80
FE1F00
F81E00
200000
ENDCHAR
STARTCHAR 00FD
ENCODING 253
SWIDTH 450 0
DWIDTH 20 0
BBX 23 40 -4 -10
BITMAP
00003C
000078
000070
000060
0000E0
0000C0
000080
000000
000000
000000
000004
01F00E
07F01E
00700E
007006
007802
007806
007804
00380C
003808
003810
003830
003820
003840
003880
003980
003D00
003E00
003C00
001C00
001800
001000
002000
004000
008000
010000
720000
FC0000
780000
200000
ENDCHAR
STARTCHAR 00FE
ENCODING 254
SWIDTH 495 0
DWIDTH 22 0
BBX 26 41 -5 -10
BITMAP
0000C000
001FC000
00038000
00038000
00038000
00078000
00070000
00070000
000F0000
000E0000
000E0000
001E0C00
001C3F00
001CE780
001D83C0
003E03C0
003E03C0
003C03C0
007803C0
007803C0
00700380
00700380
00F00780
00E00700
00E00F00
01E00E00
01C01C00
01C03800
01C07000
03E0E000
03FF8000
03800000
07800000
07000000
07000000
07000000
0F000000
0E000000
1E000000
3F000000
FFC00000
ENDCHAR
STARTCHAR 00FF
ENCODING 255
SWIDTH 450 0
DWIDTH 20 0
BBX 24 39 -4 -10
BITMAP
000F0E
000F1F
000F1F
000F0F
000404
000000
000000
000000
000000
000004
01F00E
07F01E
00700E
007006
007802
007806
007804
00380C
003808
003810
003830
003820
003840
003880
003980
003D00
003E00
003C00
001C00
001800
001000
002000
004000
008000
010000
720000
FC0000
780000
200000
ENDCHAR
STARTCHAR 0100
ENCODING 256
SWIDTH 607 0
DWIDTH 27 0
BBX 32 35 -2 0
BITMAP
00001FFF
00003FFE
00000000
00000000
00000000
00000080
00000180
00000380
00000780
00000700
00000F00
00001F00
00001700
00003F00
00006F00
0000CF00
00008F00
00018F00
00030F00
00060F00
00040E00
000C0E00
00180E00
00301E00
003FFE00
00601E00
00C01E00
00801E00
01801E00
03001E00
06001E00
0E001C00
0C003E00
3E003E00
FF81FFC0
ENDCHAR
STARTCHAR 0101
ENCODING 257
SWIDTH 495 0
DWIDTH 22 0
BBX 21 28 1 -1
BITMAP
00FFF8
00FFF8
00FFF8
000000
000000
000000
000000
001810
00FEF0
01C2E0
0301E0
0701E0
0E01C0
1C01C0
1C01C0
3803C0
380380
700380
700780
F00700
F00F00
F01F00
F03F00
F06E20
F8CE40
7F8F80
7E0F00
000400
ENDCHAR
STARTCHAR 0102
ENCODING 258
SWIDTH 607 0
DWIDTH 27 0
BBX 32 38 -2 0
BITMAP
00000801
00000C03
0000060E
000007FC
000003F8
000001E0
00000000
00000000
00000080
00000180
00000380
00000780
00000700
00000F00
00001F00
00001700
00003F00
00006F00
0000CF00
00008F00
00018F00
00030F00
00060F00
00040E00
000C0E00
00180E00
00301E00
003FFE00
00601E00
00C01E00
00801E00
01801E00
03001E00
06001E00
0E001C00
0C003E00
3E003E00
FF81FFC0
ENDCHAR
STARTCHAR 0103
ENCODING 259
SWIDTH 495 0
DWIDTH 22 0
BBX 20 32 1 -1
BITMAP
008000
008010
00C060
00E1E0
007FC0
003F80
001E00
000000
000000
000000
000000
001810
00FEF0
01C2E0
0301E0
0701E0
0E01C0
1C01C0
1C01C0
3803C0
380380
700380
700780
F00700
F00F00
F01F00
F03F00
F06E20
F8CE40
7F8F80
7E0F00
000400
ENDCHAR
STARTCHAR 0104
ENCODING 260
SWIDTH 607 0
DWIDTH 27 0
BBX 26 38 -2 -8
BITMAP
00000080
00000180
00000380
00000780
00000700
00000F00
00001F00
00001700
00003F00
00006F00
0000CF00
00008F00
00018F00
00030F00
00060F00
00040E00
000C0E00
00180E00
00301E00
003FFE00
00601E00
00C01E00
00801E00
01801E00
03001E00
06001E00
0E001C00
0C003E00
3E003E00
FF81FFC0
00002000
00006000
00006000
00006000
00007000
00007800
00007FC0
00003F80
ENDCHAR
STARTCHAR 0105
ENCODING 261
SWIDTH 495 0
DWIDTH 22 0
BBX 21 28 1 -8
BITMAP
001810
00FEF0
01C2E0
0301E0
0701E0
0E01C0
1C01C0
1C01C0
3803C0
380380
700380
700780
F00700
F00F00
F01F00
F03F00
F06E20
F8CE40
7F8F80
7E0F00
000C00
001800
001800
001800
001C00
001E00
000FF8
0007E0
ENDCHAR
STARTCHAR 0106
ENCODING 262
SWIDTH 675 0
DWIDTH 30 0
BBX 28 40 3 -1
BITMAP
00001F00
00001E00
00001C00
00003800
00003000
00003000
00006000
00000000
00000000
0003FC10
000F8FF0
003C01F0
00F000E0
01E00060
03C00060
07800060
0F000060
1F000040
1E000000
3E000000
3C000000
7C000000
78000000
78000000
F8000000
F8000000
F8000000
F8000000
F8000000
F8000000
F8000000
F8000000
78000100
7C000300
3C000600
3E000C00
1F801800
07E0F000
03FFC000
003C0000
ENDCHAR
STARTCHAR 0107
ENCODING 263
SWIDTH 450 0
DWIDTH 20 0
BBX 18 30 1 -1
BITMAP
0007C0
000700
000F00
000E00
000C00
001800
001000
000000
000000
000000
000E00
007B80
01C0C0
0301C0
0E03C0
0E0380
1C0180
380000
380000
780000
700000
700000
F00000
F00000
F00000
F00100
780200
780C00
3F7800
1FE000
ENDCHAR
STARTCHAR 0108
ENCODING 264
SWIDTH 675 0
DWIDTH 30 0
BBX 28 39 3 -1
BITMAP
00001E00
00003E00
00007E00
0000C700
00010300
00020100
00040000
00000000
0003FC10
000F8FF0
003C01F0
00F000E0
01E00060
03C00060
07800060
0F000060
1F000040
1E000000
3E000000
3C000000
7C000000
78000000
78000000
F8000000
F8000000
F8000000
F8000000
F8000000
F8000000
F8000000
F8000000
78000100
7C000300
3C000600
3E000C00
1F801800
07E0F000
03FFC000
003C0000
ENDCHAR
STARTCHAR 0109
ENCODING 265
SWIDTH 450 0
DWIDTH 20 0
BBX 19 30 1 -1
BITMAP
000780
000F80
001DC0
0039C0
0060C0
00C040
010020
000000
000000
000000
000E00
007B80
01C0C0
0301C0
0E03C0
0E0380
1C0180
380000
380000
780000
700000
700000
F00000
F00000
F00000
F00100
780200
780C00
3F7800
1FE000
ENDCHAR
STARTCHAR 010A
ENCODING 266
SWIDTH 675 0
DWIDTH 30 0
BBX 28 38 3 -1
BITMAP
00003800
00007C00
00007C00
00003800
00000000
00000000
00000000
0003FC10
000F8FF0
003C01F0
00F000E0
01E00060
03C00060
07800060
0F000060
1F000040
1E000000
3E000000
3C000000
7C000000
78000000
78000000
F8000000
F8000000
F8000000
F8000000
F8000000
F8000000
F8000000
F8000000
78000100
7C000300
3C000600
3E000C00
1F801800
07E0F000
03FFC000
003C0000
ENDCHAR
STARTCHAR 010B
ENCODING 267
SWIDTH 450 0
DWIDTH 20 0
BBX 18 27 1 -1
BITMAP
000E00
001F00
001F00
000F00
000400
000000
000000
000E00
007B80
01C0C0
0301C0
0E03C0
0E0380
1C0180
380000
380000
780000
700000
700000
F00000
F00000
F00000
F00100
780200
780C00
3F7800
1FE000
ENDCHAR
STARTCHAR 010C
ENCODING 268
SWIDTH 675 0
DWIDTH 30 0
BBX 28 39 3 -1
BITMAP
00008060
0000C080
0000C300
0000E600
00007C00
00007800
00007000
00000000
0003FC10
000F8FF0
003C01F0
00F000E0
01E00060
03C00060
07800060
0F000060
1F000040
1E000000
3E000000
3C000000
7C000000
78000000
78000000
F8000000
F8000000
F8000000
F8000000
F8000000
F8000000
F8000000
F8000000
78000100
7C000300
3C000600
3E000C00
1F801800
07E0F000
03FFC000
003C0000
ENDCHAR
STARTCHAR 010D
ENCODING 269
SWIDTH 450 0
DWIDTH 20 0
BBX 21 30 1 -1
BITMAP
002008
001010
001860
001CC0
001F80
001F00
000E00
000000
000000
000000
000E00
007B80
01C0C0
0301C0
0E03C0
0E0380
1C0180
380000
380000
780000
700000
700000
F00000
F00000
F00000
F00100
780200
780C00
3F7800
1FE000
ENDCHAR
STARTCHAR 010E
ENCODING 270
SWIDTH 720 0
DWIDTH 32 0
BBX 32 38 -1 0
BITMAP
00008060
0000C080
0000C300
00006600
00007C00
00007800
00007800
00000000
00000000
00FFFF80
001E07E0
001E00F0
001E0078
003C003C
003C001E
003C001E
0038001F
0078000F
0078000F
0078000F
00F0000F
00F0000F
00F0000F
00E0001F
01E0001F
01E0001F
01C0001E
03C0003E
03C0003C
03C0003C
07800078
078000F0
078001E0
070003C0
0F000780
0F001E00
1FC7F800
FFFFC000
ENDCHAR
STARTCHAR 010F
ENCODING 271
SWIDTH 607 0
DWIDTH 27 0
BBX 30 31 1 -1
BITMAP
00000618
0000FE3C
00003C3C
00001C3C
00003C1C
00003818
00003810
00003830
000078C0
00007000
00007000
0008F000
007EE000
01C3E000
0301E000
0701E000
0E01C000
1C01C000
3C01C000
38038000
78038000
70078000
F0078000
F00F0000
F0170000
E01F0000
F02E2000
F04E2000
F98E4000
7F0F8000
7E0F0000
ENDCHAR
STARTCHAR 0110
ENCODING 272
SWIDTH 720 0
DWIDTH 32 0
BBX 33 29 -1 0
BITMAP
00FFFF8000
001E07E000
001E00F800
001E007C00
001C003C00
003C001E00
003C001F00
003C000F00
0078000F00
0078000F00
0078000F80
0070000F80
00F0000F80
0FFFF00F80
00F0000F00
01E0000F00
01E0001F00
01E0001E00
03C0001E00
03C0003E00
03C0003C00
03C0007800
078000F800
078000F000
078001C000
0F00078000
0F001E0000
1FC7F80000
FFFFC00000
ENDCHAR
STARTCHAR 0111
ENCODING 273
SWIDTH 495 0
DWIDTH 22 0
BBX 25 31 1 -1
BITMAP
00000600
0000FE00
00003C00
00001C00
00003C00
00003800
003FFF80
003FFF80
00007800
00007000
00007000
0008F000
007EE000
01C3E000
0301E000
0701E000
0E01C000
1C01C000
3C01C000
38038000
78038000
70078000
F0078000
F00F0000
F0170000
E01F0000
F02E2000
F04E2000
F98E4000
7F0F8000
7E0F0000
ENDCHAR
STARTCHAR 0112
ENCODING 274
SWIDTH 607 0
DWIDTH 27 0
BBX 29 35 -1 0
BITMAP
0003FFE0
0003FFE0
00000000
00000000
00000000
00000000
00FFFFF8
001E01F8
001E0030
001E0030
001C0010
003C0010
003C0020
003C0000
00780000
00780400
00780C00
00700800
00F03800
00FFF800
00F0F000
01E03000
01E01000
01E01000
01C02000
03C00000
03C00000
03C00080
07800080
07800180
07800300
0F000700
0F001F00
1FE3FE00
FFFFFE00
ENDCHAR
STARTCHAR 0113
ENCODING 275
SWIDTH 450 0
DWIDTH 20 0
BBX 20 27 1 -1
BITMAP
01FFF0
01FFF0
03FFE0
000000
000000
000000
000000
000600
007780
01C1C0
0301C0
0601C0
0E03C0
1C0380
3C0700
380E00
783800
7BE000
7E0000
700000
F00000
F00000
780100
780200
7C0C00
3FF800
1FE000
ENDCHAR
STARTCHAR 0114
ENCODING 276
SWIDTH 607 0
DWIDTH 27 0
BBX 29 39 -1 0
BITMAP
00000010
00008020
0000C0E0
0000FFC0
00007F80
00007F00
00000800
00000000
00000000
00000000
00FFFFF8
001E01F8
001E0030
001E0030
001C0010
003C0010
003C0020
003C0000
00780000
00780400
00780C00
00700800
00F03800
00FFF800
00F0F000
01E03000
01E01000
01E01000
01C02000
03C00000
03C00000
03C00080
07800080
07800180
07800300
0F000700
0F001F00
1FE3FE00
FFFFFE00
ENDCHAR
STARTCHAR 0115
ENCODING 277
SWIDTH 450 0
DWIDTH 20 0
BBX 21 31 1 -1
BITMAP
008008
004010
004030
0071E0
007FC0
003F80
001E00
000000
000000
000000
000000
000600
007780
01C1C0
0301C0
0601C0
0E03C0
1C0380
3C0700
380E00
783800
7BE000
7E0000
700000
F00000
F00000
780100
780200
7C0C00
3FF800
1FE000
ENDCHAR
STARTCHAR 0116
ENCODING 278
SWIDTH 607 0
DWIDTH 27 0
BBX 29 37 -1 0
BITMAP
00003C00
00003C00
00003C00
00003C00
00000000
00000000
00000000
00000000
00FFFFF8
001E01F8
001E0030
001E0030
001C0010
003C0010
003C0020
003C0000
00780000
00780400
00780C00
00700800
00F03800
00FFF800
00F0F000
01E03000
01E01000
01E01000
01C02000
03C00000
03C00000
03C00080
07800080
07800180
07800300
0F000700
0F001F00
1FE3FE00
FFFFFE00
ENDCHAR
STARTCHAR 0117
ENCODING 279
SWIDTH 450 0
DWIDTH 20 0
BBX 18 29 1 -1
BITMAP
000E00
001F00
001F00
000F00
000400
000000
000000
000000
000000
000600
007780
01C1C0
0301C0
0601C0
0E03C0
1C0380
3C0700
380E00
783800
7BE000
7E0000
700000
F00000
F00000
780100
780200
7C0C00
3FF800
1FE000
ENDCHAR
STARTCHAR 0118
ENCODING 280
SWIDTH 607 0
DWIDTH 27 0
BBX 29 37 -1 -8
BITMAP
00FFFFF8
001E01F8
001E0030
001E0030
001C0010
003C0010
003C0020
003C0000
00780000
00780400
00780C00
00700800
00F03800
00FFF800
00F0F000
01E03000
01E01000
01E01000
01C02000
03C00000
03C00000
03C00080
07800080
07800180
07800300
0F000700
0F001F00
1FE3FE00
FFFFFE00
00008000
00018000
00018000
00018000
0001C000
0001E000
0001FF00
00007E00
ENDCHAR
STARTCHAR 0119
ENCODING 281
SWIDTH 450 0
DWIDTH 20 0
BBX 18 28 1 -8
BITMAP
000600
007780
01C1C0
0301C0
0601C0
0E03C0
1C0380
3C0700
380E00
783800
7BE000
7E0000
700000
F00000
F00000
780100
780200
7C0C00
3FF800
1FE000
010000
030000
030000
030000
038000
03C000
01FE00
00FC00
ENDCHAR
STARTCHAR 011A
ENCODING 282
SWIDTH 607 0
DWIDTH 27 0
BBX 29 38 -1 0
BITMAP
00008060
0000C080
0000C300
0000EE00
00007C00
00007800
00007000
00000000
00000000
00FFFFF8
001E01F8
001E0030
001E0030
001C0010
003C0010
003C0020
003C0000
00780000
00780400
00780C00
00700800
00F03800
00FFF800
00F0F000
01E03000
01E01000
01E01000
01C02000
03C00000
03C00000
03C00080
07800080
07800180
07800300
0F000700
0F001F00
1FE3FE00
FFFFFE00
ENDCHAR
STARTCHAR 011B
ENCODING 283
SWIDTH 450 0
DWIDTH 20 0
BBX 21 30 1 -1
BITMAP
002008
003030
001860
0019C0
001F80
001F00
001E00
000000
000000
000000
000600
007780
01C1C0
0301C0
0601C0
0E03C0
1C0380
3C0700
380E00
783800
7BE000
7E0000
700000
F00000
F00000
780100
780200
7C0C00
3FF800
1FE000
ENDCHAR
STARTCHAR 011C
ENCODING 284
SWIDTH 720 0
DWIDTH 32 0
BBX 29 39 3 -1
BITMAP
00001F00
00003F00
00007700
0000E300
00008180
00010080
00020000
00000000
0001FF08
000FCFF8
003C00F0
00F00070
01E00030
03C00030
07800020
0F000020
1F000020
1E000000
3E000000
3C000000
7C000000
78000000
78000000
F8007FF8
F8000FE0
F8000780
F8000780
F8000780
F8000F00
F8000F00
78000F00
78001E00
3C001E00
3C001E00
1E001C00
0F003C00
07C07C00
01FFF000
001E0000
ENDCHAR
STARTCHAR 011D
ENCODING 285
SWIDTH 495 0
DWIDTH 22 0
BBX 24 40 -1 -10
BITMAP
0000F0
0001F0
0003F0
000638
000C18
001008
002000
000000
000000
000000
000E00
00F3C0
01C0FF
0380FF
078070
0F0070
0F00F0
0F00F0
0F00F0
0F00E0
0F01E0
0703C0
03CF00
00F800
018000
030000
060000
0F8000
0FF800
07FF80
18FFC0
300FE0
6000F0
E00070
E00060
E00060
F000C0
780380
1FFE00
01C000
ENDCHAR
STARTCHAR 011E
ENCODING 286
SWIDTH 720 0
DWIDTH 32 0
BBX 29 39 3 -1
BITMAP
00010020
00008060
0000C1C0
0000FF80
00007F00
00003C00
00000000
00000000
0001FF08
000FCFF8
003C00F0
00F00070
01E00030
03C00030
07800020
0F000020
1F000020
1E000000
3E000000
3C000000
7C000000
78000000
78000000
F8007FF8
F8000FE0
F8000780
F8000780
F8000780
F8000F00
F8000F00
78000F00
78001E00
3C001E00
3C001E00
1E001C00
0F003C00
07C07C00
01FFF000
001E0000
ENDCHAR
STARTCHAR 011F
ENCODING 287
SWIDTH 495 0
DWIDTH 22 0
BBX 24 41 -1 -10
BITMAP
002000
002004
003018
003878
001FF0
000FE0
000780
000000
000000
000000
000000
000E00
00F3C0
01C0FF
0380FF
078070
0F0070
0F00F0
0F00F0
0F00F0
0F00E0
0F01E0
0703C0
03CF00
00F800
018000
030000
060000
0F8000
0FF800
07FF80
18FFC0
300FE0
6000F0
E00070
E00060
E00060
F000C0
780380
1FFE00
01C000
ENDCHAR
STARTCHAR 0120
ENCODING 288
SWIDTH 720 0
DWIDTH 32 0
BBX 29 38 3 -1
BITMAP
00003C00
00003C00
00003C00
00003C00
00000000
00000000
00000000
0001FF08
000FCFF8
003C00F0
00F00070
01E00030
03C00030
07800020
0F000020
1F000020
1E000000
3E000000
3C000000
7C000000
78000000
78000000
F8007FF8
F8000FE0
F8000780
F8000780
F8000780
F8000F00
F8000F00
78000F00
78001E00
3C001E00
3C001E00
1E001C00
0F003C00
07C07C00
01FFF000
001E0000
ENDCHAR
STARTCHAR 0121
ENCODING 289
SWIDTH 495 0
DWIDTH 22 0
BBX 24 39 -1 -10
BITMAP
000380
000780
0007C0
000780
000100
000000
000000
000000
000000
000E00
00F3C0
01C0FF
0380FF
078070
0F0070
0F00F0
0F00F0
0F00F0
0F00E0
0F01E0
0703C0
03CF00
00F800
018000
030000
060000
0F8000
0FF800
07FF80
18FFC0
300FE0
6000F0
E00070
E00060
E00060
F000C0
780380
1FFE00
01C000
ENDCHAR
STARTCHAR 0122
ENCODING 290
SWIDTH 720 0
DWIDTH 32 0
BBX 29 38 3 -8
BITMAP
0001FF08
000FCFF8
003C00F0
00F00070
01E00030
03C00030
07800020
0F000020
1F000020
1E000000
3E000000
3C000000
7C000000
78000000
78000000
F8007FF8
F8000FE0
F8000780
F8000780
F8000780
F8000F00
F8000F00
78000F00
78001E00
3C001E00
3C001E00
1E001C00
0F003C00
07C07C00
01FFF000
001E0000
00380000
007C0000
003C0000
001C0000
001C0000
00380000
03F00000
ENDCHAR
STARTCHAR 0123
ENCODING 291
SWIDTH 495 0
DWIDTH 22 0
BBX 24 42 -1 -10
BITMAP
000180
000200
000C00
000C00
001C00
001E00
001E00
000C00
000000
000000
000000
000000
000E00
00F3C0
01C0FF
0380FF
078070
0F0070
0F00F0
0F00F0
0F00F0
0F00E0
0F01E0
0703C0
03CF00
00F800
018000
030000
060000
0F8000
0FF800
07FF80
18FFC0
300FE0
6000F0
E00070
E00060
E00060
F000C0
780380
1FFE00
01C000
ENDCHAR
STARTCHAR 0124
ENCODING 292
SWIDTH 720 0
DWIDTH 32 0
BBX 37 38 -1 0
BITMAP
000001E000
000003F000
0000077000
00000C3000
0000181000
0000201000
0000400800
0000000000
0000000000
00FFE07FF8
001F000F80
001E000F80
001E000F00
001C000F00
003C000F00
003C001E00
0038001E00
0078001E00
0078003C00
0078003C00
00F0003C00
00F0003800
00FFFFF800
00E0007800
01E0007800
01E0007000
01E000F000
03C000F000
03C000E000
03C001E000
038001E000
078001E000
078003C000
078003C000
0F0003C000
0F0007C000
1F8007C000
FFE03FF800
ENDCHAR
STARTCHAR 0125
ENCODING 293
SWIDTH 495 0
DWIDTH 22 0
BBX 22 39 1 -1
BITMAP
0000F8
0000F8
0001F8
00031C
00040C
000804
001000
003000
07F000
01E000
00E000
01E000
01C000
01C000
01C000
03C000
038000
038000
078180
0707C0
070FE0
0719E0
0F31E0
0E61C0
0E41C0
1E81C0
1D03C0
1F0380
1E0380
3C0780
3C0700
380700
780700
780F20
700E20
700E40
F00F80
E00F00
000400
ENDCHAR
STARTCHAR 0126
ENCODING 294
SWIDTH 720 0
DWIDTH 32 0
BBX 37 29 -1 0
BITMAP
00FFE07FF8
001F000F80
001E000F80
001E000F00
01FFFFFFF0
03FFFFFFE0
003C001E00
0038001E00
0078001E00
0078003C00
0078003C00
00F0003C00
00F0003800
00FFFFF800
00E0007800
01E0007800
01E0007000
01E000F000
03C000F000
03C000E000
03C001E000
038001E000
078001E000
078003C000
078003C000
0F0003C000
0F0007C000
1F8007C000
FFE03FF800
ENDCHAR
STARTCHAR 0127
ENCODING 295
SWIDTH 495 0
DWIDTH 22 0
BBX 19 32 1 -1
BITMAP
007000
07F000
00E000
00E000
00E000
01C000
1FFF80
1FFF80
03C000
038000
038000
038080
0707C0
070FE0
0719E0
0F31E0
0E61C0
0E41C0
1E81C0
1D03C0
1F0380
1E0380
3C0780
3C0700
380700
780700
780F20
700E20
700E40
F00F80
E00F00
000400
ENDCHAR
STARTCHAR 0128
ENCODING 296
SWIDTH 337 0
DWIDTH 15 0
BBX 22 38 -1 0
BITMAP
003C04
007F04
007F8C
008FF8
0083F0
0080E0
000000
000000
000000
00FFE0
001F00
001E00
001E00
001C00
003C00
003C00
003C00
007800
007800
007800
007000
00F000
00F000
00F000
01E000
01E000
01E000
01C000
03C000
03C000
03C000
078000
078000
078000
0F0000
0F0000
1F8000
FFF000
ENDCHAR
STARTCHAR 0129
ENCODING 297
SWIDTH 270 0
DWIDTH 12 0
BBX 15 30 2 -1
BITMAP
0402
1F82
3FC2
27FE
41FC
4078
0000
0000
0000
0000
0100
7F00
0F00
0E00
0E00
0E00
1C00
1C00
1C00
3C00
3800
3800
7800
7800
7000
7100
F300
F600
FC00
F800
ENDCHAR
STARTCHAR 012A
ENCODING 298
SWIDTH 337 0
DWIDTH 15 0
BBX 21 35 -1 0
BITMAP
00FFF8
00FFF8
000000
000000
000000
000000
00FFE0
001F00
001E00
001E00
001C00
003C00
003C00
003C00
007800
007800
007800
007000
00F000
00F000
00F000
01E000
01E000
01E000
01C000
03C000
03C000
03C000
078000
078000
078000
0F0000
0F0000
1F8000
FFF000
ENDCHAR
STARTCHAR 012B
ENCODING 299
SWIDTH 270 0
DWIDTH 12 0
BBX 14 27 2 -1
BITMAP
7FFC
7FFC
7FFC
0000
0000
0000
0000
0100
7F00
0F00
0E00
0E00
0E00
1C00
1C00
1C00
3C00
3800
3800
7800
7800
7000
7100
F300
F600
FC00
F800
ENDCHAR
STARTCHAR 012C
ENCODING 300
SWIDTH 337 0
DWIDTH 15 0
BBX 22 39 -1 0
BITMAP
002000
002004
003018
001FF8
001FF0
000FC0
000200
000000
000000
000000
00FFE0
001F00
001E00
001E00
001C00
003C00
003C00
003C00
007800
007800
007800
007000
00F000
00F000
00F000
01E000
01E000
01E000
01C000
03C000
03C000
03C000
078000
078000
078000
0F0000
0F0000
1F8000
FFF000
ENDCHAR
STARTCHAR 012D
ENCODING 301
SWIDTH 270 0
DWIDTH 12 0
BBX 15 31 2 -1
BITMAP
0002
1006
100C
1C38
0FF0
0FE0
0380
0000
0000
0000
0000
0100
7F00
0F00
0E00
0E00
0E00
1C00
1C00
1C00
3C00
3800
3800
7800
7800
7000
7100
F300
F600
FC00
F800
ENDCHAR
STARTCHAR 012E
ENCODING 302
SWIDTH 337 0
DWIDTH 15 0
BBX 19 37 -1 -8
BITMAP
00FFE0
001F00
001E00
001E00
001C00
003C00
003C00
003C00
007800
007800
007800
007000
00F000
00F000
00F000
01E000
01E000
01E000
01C000
03C000
03C000
03C000
078000
078000
078000
0F0000
0F0000
1F8000
FFF000
040000
0C0000
0C0000
0C0000
0E0000
0F0000
07FC00
03F000
ENDCHAR
STARTCHAR 012F
ENCODING 303
SWIDTH 270 0
DWIDTH 12 0
BBX 11 36 1 -8
BITMAP
01E0
01E0
01E0
01C0
0000
0000
0000
0000
0080
3F80
0780
0700
0700
0700
0E00
0E00
0E00
1E00
1C00
1C00
3C00
3C00
3800
3880
7980
7B00
7E00
7C00
6000
6000
C000
E000
E000
F000
7FC0
3F00
ENDCHAR
STARTCHAR 0130
ENCODING 304
SWIDTH 337 0
DWIDTH 15 0
BBX 19 37 -1 0
BITMAP
0003C0
0003C0
0003C0
0003C0
000000
000000
000000
000000
00FFE0
001F00
001E00
001E00
001C00
003C00
003C00
003C00
007800
007800
007800
007000
00F000
00F000
00F000
01E000
01E000
01E000
01C000
03C000
03C000
03C000
078000
078000
078000
0F0000
0F0000
1F8000
FFF000
ENDCHAR
STARTCHAR 0131
ENCODING 305
SWIDTH 270 0
DWIDTH 12 0
BBX 8 20 2 -1
BITMAP
01
7F
0F
0E
0E
0E
1C
1C
1C
3C
38
38
78
78
70
71
F3
F6
FC
F8
ENDCHAR
STARTCHAR 0132
ENCODING 306
SWIDTH 742 0
DWIDTH 33 0
BBX 37 30 -1 -1
BITMAP
00FFE03FF8
001F0007C0
001E0007C0
001E000780
001C000780
003C000700
003C000F00
003C000F00
0078000F00
0078001E00
0078001E00
0070001E00
00F0001C00
00F0003C00
00F0003C00
01E0003C00
01E0007800
01E0007800
01C0007800
03C0007000
03C000F000
03C000F000
078000E000
078781E000
078F81C000
0F0F83C000
0F0F078000
1F8F0F0000
FFF7FC0000
0000E00000
ENDCHAR
STARTCHAR 0133
ENCODING 307
SWIDTH 495 0
DWIDTH 22 0
BBX 20 38 2 -10
BITMAP
0380F0
03C0F0
03C0F0
0380F0
000000
000000
000000
000000
010000
7F0FC0
1E17C0
0E0380
1E0380
1C0380
1C0780
1C0700
3C0700
380F00
380E00
780E00
781E00
701E00
701C00
F11C00
E23C00
E43800
F83800
F07800
407000
007000
007000
00E000
00E000
00C000
618000
E30000
EE0000
300000
ENDCHAR
STARTCHAR 0134
ENCODING 308
SWIDTH 450 0
DWIDTH 20 0
BBX 27 39 -2 -1
BITMAP
000007C0
00000FC0
00001DC0
000038C0
00002060
00004020
00008000
00000000
00000000
0001FFC0
00003E00
00003C00
00003C00
00007800
00007800
00007800
00007000
0000F000
0000F000
0000F000
0001E000
0001E000
0001E000
0001C000
0003C000
0003C000
0003C000
00078000
00078000
00078000
00070000
000F0000
780E0000
781E0000
F81C0000
78380000
70F00000
3FE00000
0E000000
ENDCHAR
STARTCHAR 0135
ENCODING 309
SWIDTH 270 0
DWIDTH 12 0
BBX 23 40 -8 -10
BITMAP
000078
0000FC
0001DC
00038C
00060C
000C04
001002
000000
000000
000000
000040
000FC0
0003C0
0003C0
000380
000380
000780
000700
000700
000700
000F00
000E00
000E00
001E00
001C00
001C00
001C00
003C00
003800
003800
007800
007000
007000
007000
00E000
00C000
71C000
E38000
6E0000
300000
ENDCHAR
STARTCHAR 0136
ENCODING 310
SWIDTH 675 0
DWIDTH 30 0
BBX 33 37 -1 -8
BITMAP
00FFC0FF80
001F007C00
001E007000
001E00E000
003C018000
003C030000
003C0E0000
0038180000
0078300000
0078E00000
0079C00000
00F3000000
00FE000000
00FF000000
00EF800000
01E7800000
01E3C00000
01E3E00000
03C1E00000
03C0F00000
03C0F80000
0380780000
07803C0000
07803C0000
07801E0000
0F001F0000
0F001F8000
1F801FC000
FFF0FFF800
0000000000
001C000000
001E000000
000F000000
0007000000
0007000000
000E000000
00F8000000
ENDCHAR
STARTCHAR 0137
ENCODING 311
SWIDTH 450 0
DWIDTH 20 0
BBX 21 39 1 -8
BITMAP
003000
0FE000
01E000
01E000
01C000
01C000
01C000
03C000
038000
038000
078000
070000
071FF8
070380
0F0600
0E0C00
0E1800
1E3000
1C6000
1CE000
3DE000
3EF000
3CF000
387000
787000
707800
707840
F038C0
F03D80
E03F00
E01E00
000000
0E0000
0F0000
078000
038000
038000
070000
7C0000
ENDCHAR
STARTCHAR 0138
ENCODING 312
SWIDTH 450 0
DWIDTH 20 0
BBX 21 20 1 -1
BITMAP
010000
3F1FF8
4F0380
0F0600
0E0C00
0E1800
1E3000
1C6000
1CE000
3DE000
3EF000
3CF000
387000
787000
707800
707840
F038C0
F03D80
E03F00
E01E00
ENDCHAR
STARTCHAR 0139
ENCODING 313
SWIDTH 562 0
DWIDTH 25 0
BBX 24 39 -1 0
BITMAP
00007C
000078
000070
0000E0
0000C0
0000C0
000080
000000
000000
000000
00FFE0
001F00
001E00
001E00
003C00
003C00
003C00
003800
007800
007800
007800
00F000
00F000
00F000
00E000
01E000
01E000
01C000
03C000
03C000
03C000
078001
078003
078002
070006
0F000E
0F001C
1FFFFC
FFFFFC
ENDCHAR
STARTCHAR 013A
ENCODING 314
SWIDTH 270 0
DWIDTH 12 0
BBX 14 40 2 -1
BITMAP
007C
0078
0070
00E0
00C0
00C0
0180
0000
0060
0FE0
01E0
01C0
01C0
03C0
0380
0380
0380
0780
0700
0700
0F00
0E00
0E00
0E00
1E00
1C00
1C00
3C00
3800
3800
3800
7000
7000
7000
F100
E200
E400
F800
F000
4000
ENDCHAR
STARTCHAR 013B
ENCODING 315
SWIDTH 562 0
DWIDTH 25 0
BBX 24 37 -1 -8
BITMAP
00FFE0
001F00
001E00
001E00
003C00
003C00
003C00
003800
007800
007800
007800
00F000
00F000
00F000
00E000
01E000
01E000
01C000
03C000
03C000
03C000
078001
078003
078002
070006
0F000E
0F001C
1FFFFC
FFFFFC
000000
00F000
00F800
007800
003800
003800
007000
07E000
ENDCHAR
STARTCHAR 013C
ENCODING 316
SWIDTH 270 0
DWIDTH 12 0
BBX 15 39 -2 -8
BITMAP
0006
00FE
001E
001C
001C
003C
0038
0038
0038
0078
0070
0070
00F0
00E0
00E0
00E0
01E0
01C0
01C0
03C0
0380
0380
0380
0700
0700
0700
0F10
0E20
0E40
0F80
0F00
0400
1C00
3E00
0F00
0700
0E00
0E00
F800
ENDCHAR
STARTCHAR 013D
ENCODING 317
SWIDTH 562 0
DWIDTH 25 0
BBX 28 30 -1 0
BITMAP
000000E0
00FFE1F0
001F01F0
001E00F0
001E0060
003C0060
003C00C0
003C0180
00380300
00780000
00780000
00780000
00F00000
00F00000
00F00000
00E00000
01E00000
01E00000
01C00000
03C00000
03C00000
03C00000
07800100
07800300
07800200
07000600
0F000E00
0F001C00
1FFFFC00
FFFFFC00
ENDCHAR
STARTCHAR 013E
ENCODING 318
SWIDTH 360 0
DWIDTH 16 0
BBX 18 32 2 -1
BITMAP
006180
0FE3C0
01E3C0
01C3C0
01C1C0
03C180
038180
038300
038400
078800
070000
070000
0F0000
0E0000
0E0000
0E0000
1C0000
1C0000
1C0000
3C0000
380000
380000
380000
700000
700000
700000
F10000
E20000
E40000
F80000
F00000
400000
ENDCHAR
STARTCHAR 013F
ENCODING 319
SWIDTH 562 0
DWIDTH 25 0
BBX 24 29 -1 0
BITMAP
00FFE0
001F00
001E00
001E00
003C00
003C00
003C00
003800
007800
007800
007800
00F000
00F078
00F078
00E078
01E070
01E000
01C000
03C000
03C000
03C000
078001
078003
078002
070006
0F000E
0F001C
1FFFFC
FFFFFC
ENDCHAR
STARTCHAR 0140
ENCODING 320
SWIDTH 315 0
DWIDTH 14 0
BBX 15 32 2 -1
BITMAP
0060
0FE0
01E0
01C0
01C0
03C0
0380
0380
0380
0780
0700
0700
0F00
0E00
0E1C
0E3E
1E3E
1C1C
1C00
3C00
3800
3800
3800
7000
7000
7000
F100
E200
E400
F800
F000
4000
ENDCHAR
STARTCHAR 0141
ENCODING 321
SWIDTH 562 0
DWIDTH 25 0
BBX 24 29 -1 0
BITMAP
00FFE0
001F00
001E00
001E00
003C00
003C00
003C00
003800
0078C0
0079C0
007B00
00FE00
00FC00
00F000
00E000
01E000
07E000
0FC000
3BC000
33C000
43C000
078001
078003
078002
078006
0F000E
0F003C
1FFFFC
FFFFFC
ENDCHAR
STARTCHAR 0142
ENCODING 322
SWIDTH 270 0
DWIDTH 12 0
BBX 12 32 1 -1
BITMAP
0030
07F0
00F0
00E0
00E0
01E0
01C0
01C0
01C0
03C0
0380
0380
07B0
0760
07C0
0700
0F00
3E00
6E00
DE00
1C00
1C00
3C00
3C00
3800
3800
7880
7100
7200
7E00
7800
2000
ENDCHAR
STARTCHAR 0143
ENCODING 323
SWIDTH 675 0
DWIDTH 30 0
BBX 34 40 -1 -1
BITMAP
000003E000
000003C000
0000078000
0000070000
0000060000
0000040000
0000080000
0000000000
0000000000
0000000000
01FC003FC0
003E000E00
001E000E00
001E000C00
003F000C00
003F000800
0037001800
0027801800
0067801800
0063C01000
0043C03000
00C1C03000
00C1E02000
00C1E06000
0080F06000
0180F06000
0180704000
010078C000
030078C000
03003C8000
03003D8000
02001D8000
06001F8000
06001F0000
04000F0000
0C000F0000
0C000E0000
1E00060000
FF80060000
0000020000
ENDCHAR
STARTCHAR 0144
ENCODING 324
SWIDTH 495 0
DWIDTH 22 0
BBX 19 30 1 -1
BITMAP
0007C0
000780
000700
000E00
000C00
000800
000800
000000
000000
000000
008080
3F07C0
0F0FE0
0F19E0
0F21E0
0E41C0
0E41C0
1E81C0
1D03C0
1F0380
1E0380
3C0780
3C0700
380700
780700
700F20
700E20
700E40
F00F80
E00F00
ENDCHAR
STARTCHAR 0145
ENCODING 325
SWIDTH 675 0
DWIDTH 30 0
BBX 34 37 -1 -8
BITMAP
01FC003FC0
003E000E00
001E000E00
001E000C00
003F000C00
003F000800
0037001800
0027801800
0067801800
0063C01000
0043C03000
00C1C03000
00C1E02000
00C1E06000
0080F06000
0180F06000
0180704000
010078C000
030078C000
03003C8000
03003D8000
02001D8000
06001F8000
06001F0000
04000F0000
0C000F0000
0C000E0000
1E00060000
FF80060000
0000020000
001C000000
001E000000
000F000000
0007000000
0006000000
000E000000
00F8000000
ENDCHAR
STARTCHAR 0146
ENCODING 326
SWIDTH 495 0
DWIDTH 22 0
BBX 19 28 1 -8
BITMAP
008080
3F07C0
0F0FE0
0F19E0
0F21E0
0E41C0
0E41C0
1E81C0
1D03C0
1F0380
1E0380
3C0780
3C0700
380700
780700
700F20
700E20
700E40
F00F80
E00F00
000000
078000
07C000
03C000
01C000
01C000
038000
3F0000
ENDCHAR
STARTCHAR 0147
ENCODING 327
SWIDTH 675 0
DWIDTH 30 0
BBX 34 39 -1 -1
BITMAP
0000201800
0000202000
000030C000
00003B8000
00001F0000
00001E0000
00001C0000
0000000000
0000000000
01FC003FC0
003E000E00
001E000E00
001E000C00
003F000C00
003F000800
0037001800
0027801800
0067801800
0063C01000
0043C03000
00C1C03000
00C1E02000
00C1E06000
0080F06000
0180F06000
0180704000
010078C000
030078C000
03003C8000
03003D8000
02001D8000
06001F8000
06001F0000
04000F0000
0C000F0000
0C000E0000
1E00060000
FF80060000
0000020000
ENDCHAR
STARTCHAR 0148
ENCODING 328
SWIDTH 495 0
DWIDTH 22 0
BBX 19 30 1 -1
BITMAP
008020
00C0C0
00C180
006700
007E00
007C00
007800
000000
000000
000000
008080
3F07C0
0F0FE0
0F19E0
0F21E0
0E41C0
0E41C0
1E81C0
1D03C0
1F0380
1E0380
3C0780
3C0700
380700
780700
700F20
700E20
700E40
F00F80
E00F00
ENDCHAR
STARTCHAR 0149
ENCODING 329
SWIDTH 585 0
DWIDTH 26 0
BBX 21 30 3 -1
BITMAP
1C0000
3C0000
3C0000
3C0000
1C0000
180000
180000
300000
C00000
000000
000060
0FC1F0
17C7F0
038C70
038870
039070
0720F0
0740E0
0740E0
0F81E0
0F01C0
0F01C0
0E01C0
1E03C0
1C0380
1C0388
3C0790
3807A0
3807C0
780780
ENDCHAR
STARTCHAR 014A
ENCODING 330
SWIDTH 697 0
DWIDTH 31 0
BBX 32 31 -1 -1
BITMAP
000007E0
00FF1FF8
001E387C
001E603C
001EC01E
001D801E
003D001E
003E001F
003E001F
007C001F
007C001F
0078001F
0078001E
00F0001E
00F0001E
00F0003E
01E0003C
01E0003C
01E0003C
01C00078
03C0C078
03C1E070
03C3E070
0783E0E0
0787C0E0
078781C0
0F060180
0F020380
1F830600
FFF1FC00
00007000
ENDCHAR
STARTCHAR 014B
ENCODING 331
SWIDTH 472 0
DWIDTH 21 0
BBX 19 30 1 -10
BITMAP
008080
3F07C0
4F0FE0
0F19E0
0F21E0
0E61C0
0E41C0
1E81C0
1D03C0
1F0380
1E0380
3C0780
3C0700
380700
780700
780F00
700E00
700E00
F01E00
E01C00
001C00
001C00
003800
003800
003000
007000
386000
38C000
3F8000
080000
ENDCHAR
STARTCHAR 014C
ENCODING 332
SWIDTH 720 0
DWIDTH 32 0
BBX 29 36 3 -1
BITMAP
0003FFE0
0007FFC0
00000000
00000000
00000000
0001FE00
000F0F80
003C03C0
007001E0
00E001E0
03C000F0
078000F0
078000F8
0F0000F8
1E0000F8
1E0000F8
3C0000F8
3C0000F8
7C0000F8
780000F0
F80001F0
F80001F0
F80001E0
F00003E0
F00003C0
F00007C0
F0000780
F0000F80
F0000F00
F8001E00
78003C00
7C007800
3C00F000
1E03C000
07FF0000
00F00000
ENDCHAR
STARTCHAR 014D
ENCODING 333
SWIDTH 495 0
DWIDTH 22 0
BBX 21 27 1 -1
BITMAP
00FFF8
00FFF8
01FFF0
000000
000000
000000
000000
000C00
00FF80
01C1C0
0700E0
0F00E0
1E00E0
1C00F0
3C00F0
3800E0
7800E0
7801E0
7001E0
F001C0
F003C0
F00380
F00780
700F00
701E00
383800
1FE000
ENDCHAR
STARTCHAR 014E
ENCODING 334
SWIDTH 720 0
DWIDTH 32 0
BBX 29 40 3 -1
BITMAP
00010020
00010060
000180C0
0001FF80
0000FF00
00007E00
00001000
00000000
00000000
0001FE00
000F0F80
003C03C0
007001E0
00E001E0
03C000F0
078000F0
078000F8
0F0000F8
1E0000F8
1E0000F8
3C0000F8
3C0000F8
7C0000F8
780000F0
F80001F0
F80001F0
F80001E0
F00003E0
F00003C0
F00007C0
F0000780
F0000F80
F0000F00
F8001E00
78003C00
7C007800
3C00F000
1E03C000
07FF0000
00F00000
ENDCHAR
STARTCHAR 014F
ENCODING 335
SWIDTH 495 0
DWIDTH 22 0
BBX 22 31 1 -1
BITMAP
004004
004008
006018
0038F0
003FE0
001FC0
000F00
000000
000000
000000
000000
000C00
00FF80
01C1C0
0700E0
0F00E0
1E00E0
1C00F0
3C00F0
3800E0
7800E0
7801E0
7001E0
F001C0
F003C0
F00380
F00780
700F00
701E00
383800
1FE000
ENDCHAR
STARTCHAR 0150
ENCODING 336
SWIDTH 720 0
DWIDTH 32 0
BBX 29 40 3 -1
BITMAP
00003CF0
000078F0
000071E0
000071C0
0000E180
0000C300
00008200
00000000
00000000
0001FE00
000F0F80
003C03C0
007001E0
00E001E0
03C000F0
078000F0
078000F8
0F0000F8
1E0000F8
1E0000F8
3C0000F8
3C0000F8
7C0000F8
780000F0
F80001F0
F80001F0
F80001E0
F00003E0
F00003C0
F00007C0
F0000780
F0000F80
F0000F00
F8001E00
78003C00
7C007800
3C00F000
1E03C000
07FF0000
00F00000
ENDCHAR
STARTCHAR 0151
ENCODING 337
SWIDTH 495 0
DWIDTH 22 0
BBX 23 30 1 -1
BITMAP
000F3E
001E38
001C78
001870
003860
0030C0
002080
000000
000000
000000
000C00
00FF80
01C1C0
0700E0
0F00E0
1E00E0
1C00F0
3C00F0
3800E0
7800E0
7801E0
7001E0
F001C0
F003C0
F00380
F00780
700F00
701E00
383800
1FE000
ENDCHAR
STARTCHAR 0152
ENCODING 338
SWIDTH 945 0
DWIDTH 42 0
BBX 42 30 1 0
BITMAP
00007E000000
0003FFFFFFC0
001F03F00FC0
003C01F00380
00F000F00180
01E000F00180
03C001E00100
078001E00100
0F8001E00000
0F0001C00000
1E0003C02000
3E0003C04000
3C0003C0C000
7C000781C000
7C0007FFC000
780007838000
F80007018000
F8000F018000
F8000F010000
F8000E010000
F8001E000000
F8001E000000
F8001E000400
78001C000400
78003C000800
7C003C001800
3C0078003800
1E00FC00F000
0FC7FFFFF000
03FFFFFFF000
ENDCHAR
STARTCHAR 0153
ENCODING 339
SWIDTH 675 0
DWIDTH 30 0
BBX 28 21 1 -1
BITMAP
00180180
00FE0FE0
01831870
0703B070
0E03E070
1E03E0E0
1C03C0E0
3C03C1C0
38038380
78038E00
7807B800
F007C000
F0070000
F00F0000
F00F0000
F01F0040
701F8080
703BC300
3073FE00
1DC1F800
02004000
ENDCHAR
STARTCHAR 0154
ENCODING 340
SWIDTH 607 0
DWIDTH 27 0
BBX 27 39 -1 0
BITMAP
00001E00
00003C00
00003C00
00003800
00003000
00006000
00004000
00000000
00000000
00000000
00FFFE00
003E1F80
001E07C0
001E03C0
001C03C0
003C03E0
003C03E0
003803C0
007803C0
007807C0
00780780
00700F00
00F03E00
00FFF800
00EFC000
01E1E000
01E1E000
01C0E000
01C0F000
03C0F000
03C07000
03807800
07807800
07803800
07803C00
0F003C00
0F001E00
1F801F00
FFE01FE0
ENDCHAR
STARTCHAR 0155
ENCODING 341
SWIDTH 382 0
DWIDTH 17 0
BBX 17 30 1 0
BITMAP
001F00
001E00
001C00
003800
003000
002000
002000
000000
000000
000000
008100
3F0780
0F0F80
071F80
0F2700
0E4300
0E4000
0E8000
1D0000
1D0000
1E0000
3C0000
3C0000
380000
380000
780000
700000
700000
F00000
E00000
ENDCHAR
STARTCHAR 0156
ENCODING 342
SWIDTH 607 0
DWIDTH 27 0
BBX 27 37 -1 -8
BITMAP
00FFFE00
003E1F80
001E07C0
001E03C0
001C03C0
003C03E0
003C03E0
003803C0
007803C0
007807C0
00780780
00700F00
00F03E00
00FFF800
00EFC000
01E1E000
01E1E000
01C0E000
01C0F000
03C0F000
03C07000
03807800
07807800
07803800
07803C00
0F003C00
0F001E00
1F801F00
FFE01FE0
00000000
00380000
007C0000
001C0000
001E0000
001C0000
001C0000
03F00000
ENDCHAR
STARTCHAR 0157
ENCODING 343
SWIDTH 382 0
DWIDTH 17 0
BBX 18 28 0 -8
BITMAP
004080
1F83C0
0787C0
038FC0
079380
072180
072000
074000
0E8000
0E8000
0F0000
1E0000
1E0000
1C0000
1C0000
3C0000
380000
380000
780000
700000
000000
1E0000
1F0000
0F0000
070000
070000
0E0000
FC0000
ENDCHAR
STARTCHAR 0158
ENCODING 344
SWIDTH 607 0
DWIDTH 27 0
BBX 27 38 -1 0
BITMAP
00020180
00030300
00038E00
00019C00
0001F800
0001F000
0001E000
00000000
00000000
00FFFE00
003E1F80
001E07C0
001E03C0
001C03C0
003C03E0
003C03E0
003803C0
007803C0
007807C0
00780780
00700F00
00F03E00
00FFF800
00EFC000
01E1E000
01E1E000
01C0E000
01C0F000
03C0F000
03C07000
03807800
07807800
07803800
07803C00
0F003C00
0F001E00
1F801F00
FFE01FE0
ENDCHAR
STARTCHAR 0159
ENCODING 345
SWIDTH 382 0
DWIDTH 17 0
BBX 18 30 1 0
BITMAP
0200C0
010100
018600
01CE00
01FC00
00F800
00F000
000000
000000
000000
008100
3F0780
0F0F80
071F80
0F2700
0E4300
0E4000
0E8000
1D0000
1D0000
1E0000
3C0000
3C0000
380000
380000
780000
700000
700000
F00000
E00000
ENDCHAR
STARTCHAR 015A
ENCODING 346
SWIDTH 495 0
DWIDTH 22 0
BBX 24 40 0 -1
BITMAP
0000F8
0000F0
0001E0
0001C0
000180
000100
000200
000000
000000
001FC1
007FF3
00F03E
01E00E
01C00E
03C006
03C006
03C004
03C004
03E004
01F000
01F800
00FC00
007E00
003F00
001F80
000FC0
0007E0
0003E0
0003F0
2001F0
2000F0
2000F0
2000F0
3000F0
7000E0
7801E0
7C03C0
7E0780
47FE00
807000
ENDCHAR
STARTCHAR 015B
ENCODING 347
SWIDTH 382 0
DWIDTH 17 0
BBX 16 31 0 -1
BITMAP
000F
001E
001C
0018
0038
0030
0020
0000
0000
0000
0061
03FF
070F
0E06
0E02
0E02
0F02
0780
07C0
03E0
01F0
01F0
00F8
4078
4038
4038
C038
E030
E070
FDC0
0200
ENDCHAR
STARTCHAR 015C
ENCODING 348
SWIDTH 495 0
DWIDTH 22 0
BBX 24 39 0 -1
BITMAP
000078
0000FC
0001DC
00030C
000604
000806
001002
000000
001FC1
007FF3
00F03E
01E00E
01C00E
03C006
03C006
03C004
03C004
03E004
01F000
01F800
00FC00
007E00
003F00
001F80
000FC0
0007E0
0003E0
0003F0
2001F0
2000F0
2000F0
2000F0
3000F0
7000E0
7801E0
7C03C0
7E0780
47FE00
807000
ENDCHAR
STARTCHAR 015D
ENCODING 349
SWIDTH 382 0
DWIDTH 17 0
BBX 18 31 0 -1
BITMAP
000F00
001F80
003F80
007180
00C180
0180C0
020040
000000
000000
000000
006100
03FF00
070F00
0E0600
0E0200
0E0200
0F0200
078000
07C000
03E000
01F000
01F000
00F800
407800
403800
403800
C03800
E03000
E07000
FDC000
020000
ENDCHAR
STARTCHAR 015E
ENCODING 350
SWIDTH 495 0
DWIDTH 22 0
BBX 24 38 0 -8
BITMAP
001FC1
007FF3
00F03E
01E00E
01C00E
03C006
03C006
03C004
03C004
03E004
01F000
01F800
00FC00
007E00
003F00
001F80
000FC0
0007E0
0003E0
0003F0
2001F0
2000F0
2000F0
2000F0
3000F0
7000E0
7801E0
7C03C0
7E0780
47FE00
807000
007000
00F800
007800
003800
003800
007000
07C000
ENDCHAR
STARTCHAR 015F
ENCODING 351
SWIDTH 382 0
DWIDTH 17 0
BBX 16 28 0 -8
BITMAP
0061
03FF
070F
0E06
0E02
0E02
0F02
0780
07C0
03E0
01F0
01F0
00F8
4078
4038
4038
C038
E030
E070
FFC0
0600
0E00
0F00
0780
0380
0300
0700
7C00
ENDCHAR
STARTCHAR 0160
ENCODING 352
SWIDTH 495 0
DWIDTH 22 0
BBX 24 39 0 -1
BITMAP
000403
000604
000618
000330
0003E0
0003C0
0003C0
000000
001FC1
007FF3
00F03E
01E00E
01C00E
03C006
03C006
03C004
03C004
03E004
01F000
01F800
00FC00
007E00
003F00
001F80
000FC0
0007E0
0003E0
0003F0
2001F0
2000F0
2000F0
2000F0
3000F0
7000E0
7801E0
7C03C0
7E0780
47FE00
807000
ENDCHAR
STARTCHAR 0161
ENCODING 353
SWIDTH 382 0
DWIDTH 17 0
BBX 18 31 0 -1
BITMAP
010040
010180
018300
01CE00
00FC00
00F800
00F000
000000
000000
000000
006100
03FF00
070F00
0E0600
0E0200
0E0200
0F0200
078000
07C000
03E000
01F000
01F000
00F800
407800
403800
403800
C03800
E03000
E07000
FDC000
020000
ENDCHAR
STARTCHAR 0162
ENCODING 354
SWIDTH 562 0
DWIDTH 25 0
BBX 26 38 3 -10
BITMAP
1FFFFFC0
1F0F0780
180F0180
300E0180
201E0100
201E0100
201C0100
003C0000
003C0000
003C0000
00780000
00780000
00780000
00700000
00F00000
00F00000
00F00000
01E00000
01E00000
01E00000
01C00000
03C00000
03C00000
03C00000
07800000
07800000
07800000
0FC00000
FFF80000
00000000
00000000
0E000000
1F000000
1F000000
0E000000
06000000
0C000000
30000000
ENDCHAR
STARTCHAR 0163
ENCODING 355
SWIDTH 270 0
DWIDTH 12 0
BBX 13 34 0 -10
BITMAP
0020
0020
0060
00E0
01C0
03C0
1FF8
03C0
0380
0380
0780
0700
0700
0F00
0E00
0E00
0E00
1E00
1C00
1C00
3C40
38C0
3880
3F00
3E00
0000
0000
3800
7C00
7C00
1800
1800
3000
C000
ENDCHAR
STARTCHAR 0164
ENCODING 356
SWIDTH 562 0
DWIDTH 25 0
BBX 26 38 3 0
BITMAP
00080600
000C0C00
000E3800
00077000
0007E000
0007C000
00078000
00000000
00000000
1FFFFFC0
1F0F0780
180F0180
300E0180
201E0100
201E0100
201C0100
003C0000
003C0000
003C0000
00780000
00780000
00780000
00700000
00F00000
00F00000
00F00000
01E00000
01E00000
01E00000
01C00000
03C00000
03C00000
03C00000
07800000
07800000
07800000
0FC00000
FFF80000
ENDCHAR
STARTCHAR 0165
ENCODING 357
SWIDTH 360 0
DWIDTH 16 0
BBX 18 31 2 -1
BITMAP
000180
0003C0
0003C0
0003C0
0001C0
000180
008180
008300
018400
038800
070000
0F0000
7FE000
0E0000
0E0000
0E0000
1E0000
1C0000
1C0000
3C0000
380000
380000
380000
780000
700000
700000
F10000
E30000
E60000
FC0000
F80000
ENDCHAR
STARTCHAR 0166
ENCODING 358
SWIDTH 562 0
DWIDTH 25 0
BBX 26 29 3 0
BITMAP
1FFFFFC0
1F8F0780
180F0180
100E0180
301E0100
201E0100
201E0100
003C0000
003C0000
003C0000
00380000
00780000
00780000
7FFFF000
7FFFF000
00F00000
00F00000
00E00000
01E00000
01E00000
01E00000
03C00000
03C00000
03C00000
07800000
07800000
07800000
0FC00000
FFF80000
ENDCHAR
STARTCHAR 0167
ENCODING 359
SWIDTH 270 0
DWIDTH 12 0
BBX 12 25 1 -1
BITMAP
0040
0040
00C0
01C0
0380
0F80
3FF0
0700
0700
0F00
0F00
0E00
FFC0
1E00
1C00
1C00
3C00
3800
3800
3800
7880
7180
7300
7E00
7C00
ENDCHAR
STARTCHAR 0168
ENCODING 360
SWIDTH 720 0
DWIDTH 32 0
BBX 31 39 5 -1
BITMAP
00038000
0007E080
000FF880
0008FF80
00103F00
00101E00
00000000
00000000
00000000
7FF803FE
0F800070
0F800060
0F000060
0F000040
0E0000C0
1E0000C0
1E000080
1E000180
1C000180
3C000100
3C000100
38000300
78000300
78000200
78000600
70000600
F0000400
F0000C00
F0000C00
F0000800
E0001800
F0001800
F0003000
F0003000
78006000
3C01C000
1F878000
0FFE0000
01E00000
ENDCHAR
STARTCHAR 0169
ENCODING 361
SWIDTH 495 0
DWIDTH 22 0
BBX 20 31 2 -1
BITMAP
006010
01F810
01FE10
033FE0
020FE0
0207C0
000000
000000
000000
000000
040000
1E01E0
7E01C0
CE01C0
9E01C0
1E03C0
1C0380
1C0780
3C0780
380F00
380F00
781700
701F00
702E00
704E00
F08E00
E19C40
F31C80
FE1F00
F81E00
200000
ENDCHAR
STARTCHAR 016A
ENCODING 362
SWIDTH 720 0
DWIDTH 32 0
BBX 31 36 5 -1
BITMAP
000FFF80
001FFF00
00000000
00000000
00000000
00000000
7FF803FE
0F800070
0F800060
0F000060
0F000040
0E0000C0
1E0000C0
1E000080
1E000180
1C000180
3C000100
3C000100
38000300
78000300
78000200
78000600
70000600
F0000400
F0000C00
F0000C00
F0000800
E0001800
F0001800
F0003000
F0003000
78006000
3C01C000
1F878000
0FFE0000
01E00000
ENDCHAR
STARTCHAR 016B
ENCODING 363
SWIDTH 495 0
DWIDTH 22 0
BBX 20 28 2 -1
BITMAP
01FFF0
03FFE0
03FFE0
000000
000000
000000
000000
040000
1E01E0
7E01C0
CE01C0
9E01C0
1E03C0
1C0380
1C0780
3C0780
380F00
380F00
781700
701F00
702E00
704E00
F08E00
E19C40
F31C80
FE1F00
F81E00
200000
ENDCHAR
STARTCHAR 016C
ENCODING 364
SWIDTH 720 0
DWIDTH 32 0
BBX 31 40 5 -1
BITMAP
00040000
00040080
00060300
0003FF00
0003FE00
0001F800
00006000
00000000
00000000
00000000
7FF803FE
0F800070
0F800060
0F000060
0F000040
0E0000C0
1E0000C0
1E000080
1E000180
1C000180
3C000100
3C000100
38000300
78000300
78000200
78000600
70000600
F0000400
F0000C00
F0000C00
F0000800
E0001800
F0001800
F0003000
F0003000
78006000
3C01C000
1F878000
0FFE0000
01E00000
ENDCHAR
STARTCHAR 016D
ENCODING 365
SWIDTH 495 0
DWIDTH 22 0
BBX 20 32 2 -1
BITMAP
000010
008030
008060
00E1C0
007F80
007F00
001C00
000000
000000
000000
000000
040000
1E01E0
7E01C0
CE01C0
9E01C0
1E03C0
1C0380
1C0780
3C0780
380F00
380F00
781700
701F00
702E00
704E00
F08E00
E19C40
F31C80
FE1F00
F81E00
200000
ENDCHAR
STARTCHAR 016E
ENCODING 366
SWIDTH 720 0
DWIDTH 32 0
BBX 31 40 5 -1
BITMAP
0000F000
00019800
00030C00
00020400
00020400
00030C00
0001F800
0000F000
00000000
00000000
7FF803FE
0F800070
0F800060
0F000060
0F000040
0E0000C0
1E0000C0
1E000080
1E000180
1C000180
3C000100
3C000100
38000300
78000300
78000200
78000600
70000600
F0000400
F0000C00
F0000C00
F0000800
E0001800
F0001800
F0003000
F0003000
78006000
3C01C000
1F878000
0FFE0000
01E00000
ENDCHAR
STARTCHAR 016F
ENCODING 367
SWIDTH 495 0
DWIDTH 22 0
BBX 19 32 2 -1
BITMAP
001C00
007E00
004300
00C100
00C180
00C100
006300
003E00
000000
000000
000000
040000
1E01E0
7E01C0
CE01C0
9E01C0
1E03C0
1C0380
1C0780
3C0780
380F00
380F00
781700
701F00
702E00
704E00
F08E00
E19C40
F31C80
FE1F00
F81E00
200000
ENDCHAR
STARTCHAR 0170
ENCODING 368
SWIDTH 720 0
DWIDTH 32 0
BBX 31 40 5 -1
BITMAP
0001E780
0003C780
00038F00
00038E00
00070C00
00061800
00041000
00000000
00000000
00000000
7FF803FE
0F800070
0F800060
0F000060
0F000040
0E0000C0
1E0000C0
1E000080
1E000180
1C000180
3C000100
3C000100
38000300
78000300
78000200
78000600
70000600
F0000400
F0000C00
F0000C00
F0000800
E0001800
F0001800
F0003000
F0003000
78006000
3C01C000
1F878000
0FFE0000
01E00000
ENDCHAR
STARTCHAR 0171
ENCODING 369
SWIDTH 495 0
DWIDTH 22 0
BBX 21 31 2 -1
BITMAP
003CF8
0078F0
0071E0
0071C0
006180
00C100
008200
000000
000000
000000
040000
1E01E0
7E01C0
CE01C0
9E01C0
1E03C0
1C0380
1C0780
3C0780
380F00
380F00
781700
701F00
702E00
704E00
F08E00
E19C40
F31C80
FE1F00
F81E00
200000
ENDCHAR
STARTCHAR 0172
ENCODING 370
SWIDTH 720 0
DWIDTH 32 0
BBX 31 37 5 -8
BITMAP
7FF803FE
0F800070
0F800060
0F000060
0F000040
0E0000C0
1E0000C0
1E000080
1E000180
1C000180
3C000100
3C000100
38000300
78000300
78000200
78000600
70000600
F0000400
F0000C00
F0000C00
F0000800
E0001800
F0001800
F0003000
F0003000
78006000
3C01C000
1F878000
0FFE0000
01E00000
00C00000
01C00000
01C00000
01C00000
01E00000
00FF8000
007E0000
ENDCHAR
STARTCHAR 0173
ENCODING 371
SWIDTH 495 0
DWIDTH 22 0
BBX 21 28 2 -8
BITMAP
040000
1E01E0
7E01C0
CE01C0
9E01C0
1E03C0
1C0380
1C0780
3C0780
380F00
380F00
781700
701F00
702E00
704E00
F08E00
E19C40
F31C80
FE1F00
F81E00
200400
000C00
000C00
000C00
000E00
000F00
000FF8
0007F0
ENDCHAR
STARTCHAR 0174
ENCODING 372
SWIDTH 832 0
DWIDTH 37 0
BBX 35 39 6 -1
BITMAP
00001E0000
00003E0000
00007E0000
0000C70000
0001030000
0002010000
0004000000
0000000000
0000000000
FFC7FF0FE0
3E01F00780
1E00F00700
1E00F00600
1C01F00400
1C01E00C00
3C03E01800
3C07E01000
3C05E03000
3C0DE06000
3C19E04000
3C19E0C000
3C31E18000
3821E10000
3861E30000
78C1C60000
7881C40000
7983CC0000
7B03D80000
7A03D80000
7E03F00000
7C03E00000
7803E00000
7803C00000
7003800000
E003800000
E007000000
C006000000
C006000000
8004000000
ENDCHAR
STARTCHAR 0175
ENCODING 373
SWIDTH 675 0
DWIDTH 30 0
BBX 28 31 1 -1
BITMAP
00003C00
00007C00
0000EE00
0001CE00
00030600
00060200
00080000
00000000
00000000
00000000
04004020
7C00C070
BE00C070
1E01C070
0E03C030
0E03C030
0E05C020
0E0DC020
0F09C040
0719C0C0
0711E080
0721E100
0760E300
0740E200
07C0E400
0780E800
0700F800
0700F000
0600E000
0600C000
04008000
ENDCHAR
STARTCHAR 0176
ENCODING 374
SWIDTH 562 0
DWIDTH 25 0
BBX 25 38 4 0
BITMAP
0001E000
0003E000
00077000
000C7000
00183000
00201000
00400000
00000000
00000000
3FF07F80
0F801C00
0F801800
07801800
07803000
07806000
03C0C000
03C0C000
03C18000
01C30000
01E20000
01E60000
00EC0000
00F80000
00F80000
00F00000
00F00000
01E00000
01E00000
01E00000
03C00000
03C00000
03C00000
03C00000
07800000
07800000
0F800000
1F800000
FFF80000
ENDCHAR
STARTCHAR 0177
ENCODING 375
SWIDTH 450 0
DWIDTH 20 0
BBX 23 40 -4 -10
BITMAP
00003C
00007C
0000FC
00018C
000306
000402
000802
000000
000000
000000
000004
01F00E
07F01E
00700E
007006
007802
007806
007804
00380C
003808
003810
003830
003820
003840
003880
003980
003D00
003E00
003C00
001C00
001800
001000
002000
004000
008000
010000
720000
FC0000
780000
200000
ENDCHAR
STARTCHAR 0178
ENCODING 376
SWIDTH 562 0
DWIDTH 25 0
BBX 25 37 4 0
BITMAP
00707000
0078F800
00F8F800
00787000
00002000
00000000
00000000
00000000
3FF07F80
0F801C00
0F801800
07801800
07803000
07806000
03C0C000
03C0C000
03C18000
01C30000
01E20000
01E60000
00EC0000
00F80000
00F80000
00F00000
00F00000
01E00000
01E00000
01E00000
03C00000
03C00000
03C00000
03C00000
07800000
07800000
0F800000
1F800000
FFF80000
ENDCHAR
STARTCHAR 0179
ENCODING 377
SWIDTH 562 0
DWIDTH 25 0
BBX 27 39 0 0
BITMAP
00007C00
00007800
00007000
0000E000
0000C000
0000C000
00008000
00000000
00000000
00000000
03FFFFE0
03E007C0
03000780
06000F80
04001F00
04003E00
00007C00
00007800
0000F800
0001F000
0003E000
0007C000
00078000
000F8000
001F0000
003E0000
007C0000
00780000
00F80000
01F00000
03E00000
07C00100
07800200
0F800200
1F000600
3E000C00
7C003C00
7807FC00
FFFFF800
ENDCHAR
STARTCHAR 017A
ENCODING 378
SWIDTH 382 0
DWIDTH 17 0
BBX 18 30 -1 0
BITMAP
000780
000F00
000E00
000E00
000C00
001800
001000
000000
000000
000000
000000
07FFC0
0FFF80
0FFF80
080300
100600
000C00
001800
003000
006000
00C000
018000
030000
060000
0C0100
180200
100600
3FFE00
7FFC00
FFFC00
ENDCHAR
STARTCHAR 017B
ENCODING 379
SWIDTH 562 0
DWIDTH 25 0
BBX 27 37 0 0
BITMAP
0000E000
0001F000
0001F000
0000F000
00004000
00000000
00000000
00000000
03FFFFE0
03E007C0
03000780
06000F80
04001F00
04003E00
00007C00
00007800
0000F800
0001F000
0003E000
0007C000
00078000
000F8000
001F0000
003E0000
007C0000
00780000
00F80000
01F00000
03E00000
07C00100
07800200
0F800200
1F000600
3E000C00
7C003C00
7807FC00
FFFFF800
ENDCHAR
STARTCHAR 017C
ENCODING 380
SWIDTH 382 0
DWIDTH 17 0
BBX 18 29 -1 0
BITMAP
001C00
001E00
003E00
001E00
000800
000000
000000
000000
000000
000000
07FFC0
0FFF80
0FFF80
080300
100600
000C00
001800
003000
006000
00C000
018000
030000
060000
0C0100
180200
100600
3FFE00
7FFC00
FFFC00
ENDCHAR
STARTCHAR 017D
ENCODING 381
SWIDTH 562 0
DWIDTH 25 0
BBX 27 38 0 0
BITMAP
00040100
00060600
00031C00
0003B800
0003F000
0003E000
0003C000
00000000
00000000
03FFFFE0
03E007C0
03000780
06000F80
04001F00
04003E00
00007C00
00007800
0000F800
0001F000
0003E000
0007C000
00078000
000F8000
001F0000
003E0000
007C0000
00780000
00F80000
01F00000
03E00000
07C00100
07800200
0F800200
1F000600
3E000C00
7C003C00
7807FC00
FFFFF800
ENDCHAR
STARTCHAR 017E
ENCODING 382
SWIDTH 382 0
DWIDTH 17 0
BBX 19 30 -1 0
BITMAP
008020
0080C0
00C180
00E700
007E00
007C00
007800
000000
000000
000000
000000
07FFC0
0FFF80
0FFF80
080300
100600
000C00
001800
003000
006000
00C000
018000
030000
060000
0C0100
180200
100600
3FFE00
7FFC00
FFFC00
ENDCHAR
STARTCHAR 017F
ENCODING 383
SWIDTH 270 0
DWIDTH 12 0
BBX 29 41 -8 -10
BITMAP
000001E0
00000638
00000C38
00001838
00003810
00003000
00007000
0000E000
0000E000
0000E000
0001C000
0001C000
0001C000
0003C000
00038000
00038000
00078000
00078000
00070000
00070000
000F0000
000F0000
000E0000
000E0000
001E0000
001E0000
001C0000
001C0000
003C0000
00380000
00380000
00380000
00700000
00700000
00600000
00C00000
00C00000
71800000
E3000000
6E000000
30000000
ENDCHAR
STARTCHAR 018F
ENCODING 399
SWIDTH 697 0
DWIDTH 31 0
BBX 28 31 3 -1
BITMAP
020FF000
03FCFE00
03C01F00
03800F80
070007C0
060003C0
040003E0
080001E0
000001E0
000001F0
000001F0
000001F0
000001F0
000001F0
7FFFFFF0
FFFFFFE0
F80001E0
F80003E0
F00003E0
F00003C0
F00003C0
F0000780
F0000780
F0000F00
F8001E00
78003C00
78007800
3C00F000
1E03E000
07FF8000
00780000
ENDCHAR
STARTCHAR 0192
ENCODING 402
SWIDTH 495 0
DWIDTH 22 0
BBX 22 39 0 -9
BITMAP
000078
00019C
00019C
000318
000300
000700
000700
000E00
000E00
000E00
001E00
01FFE0
001E00
001C00
001C00
003C00
003C00
003C00
003800
007800
007800
007800
007000
00F000
00F000
00F000
00E000
00E000
01E000
01C000
01C000
01C000
018000
038000
038000
630000
E60000
EE0000
780000
ENDCHAR
STARTCHAR 01A0
ENCODING 416
SWIDTH 720 0
DWIDTH 32 0
BBX 33 32 3 -1
BITMAP
0000000300
0001FE0780
000F8F8780
003C03C780
007001E300
00E000FE00
03C000F000
078000F000
078000F800
0F0000F800
1E0000F800
1E0000F800
3C0000F800
3C0000F800
7C0000F800
780000F000
F80001F000
F80001F000
F80001E000
F00003E000
F00003C000
F00007C000
F000078000
F0000F8000
F0000F0000
F8001E0000
78003C0000
7800780000
3C00F00000
1F03C00000
07FF000000
00F0000000
ENDCHAR
STARTCHAR 01A1
ENCODING 417
SWIDTH 540 0
DWIDTH 24 0
BBX 25 21 1 -1
BITMAP
00000600
000C0F00
00FF8F80
01C1C700
0700E300
0F00FE00
1E00E000
1C00F000
3C00F000
3800E000
7800E000
7801E000
7001E000
F001C000
F003C000
F0038000
F0078000
700F0000
701E0000
38380000
1FE00000
ENDCHAR
STARTCHAR 01AF
ENCODING 431
SWIDTH 765 0
DWIDTH 34 0
BBX 35 35 5 -1
BITMAP
00000001E0
00000001E0
00000001E0
00000000E0
00000001C0
7FF803FE00
0F80007000
0F80006000
0F00006000
0F00004000
0E0000C000
1E0000C000
1E00008000
1E00018000
1C00018000
3C00010000
3C00010000
3800030000
7800030000
7800020000
7800060000
7000060000
F000040000
F0000C0000
F0000C0000
F000080000
E000180000
F000180000
F000300000
F000300000
7800600000
3C01C00000
1F87800000
0FFE000000
01E0000000
ENDCHAR
STARTCHAR 01B0
ENCODING 432
SWIDTH 540 0
DWIDTH 24 0
BBX 24 21 2 -1
BITMAP
040000
3E01EE
7E01CF
CE01CF
9E01C6
1E03FE
1C0380
1C0780
3C0780
380F00
380F00
781700
701F00
702E00
704E00
F08E00
E19C40
F31C80
FE1F00
F81E00
200000
ENDCHAR
STARTCHAR 01CD
ENCODING 461
SWIDTH 607 0
DWIDTH 27 0
BBX 32 39 -2 0
BITMAP
00000400
00000203
0000030C
0000039C
000003F8
000001F0
000001E0
00000000
00000000
00000080
00000180
00000380
00000780
00000700
00000F00
00001F00
00001700
00003F00
00006F00
0000CF00
00008F00
00018F00
00030F00
00060F00
00040E00
000C0E00
00180E00
00301E00
003FFE00
00601E00
00C01E00
00801E00
01801E00
03001E00
06001E00
0E001C00
0C003E00
3E003E00
FF81FFC0
ENDCHAR
STARTCHAR 01CE
ENCODING 462
SWIDTH 495 0
DWIDTH 22 0
BBX 21 31 1 -1
BITMAP
002008
001010
001860
001CC0
001F80
000F00
000E00
000000
000000
000000
001810
00FEF0
01C2E0
0301E0
0701E0
0E01C0
1C01C0
1C01C0
3803C0
380380
700380
700780
F00700
F00F00
F01F00
F03F00
F06E20
F8CE40
7F8F80
7E0F00
000400
ENDCHAR
STARTCHAR 01CF
ENCODING 463
SWIDTH 337 0
DWIDTH 15 0
BBX 22 39 -1 0
BITMAP
001004
001808
000830
000C60
000FC0
000F80
000F00
000000
000000
000000
00FFE0
001F00
001E00
001E00
001C00
003C00
003C00
003C00
007800
007800
007800
007000
00F000
00F000
00F000
01E000
01E000
01E000
01C000
03C000
03C000
03C000
078000
078000
078000
0F0000
0F0000
1F8000
FFF000
ENDCHAR
STARTCHAR 01D0
ENCODING 464
SWIDTH 270 0
DWIDTH 12 0
BBX 15 30 2 -1
BITMAP
0802
0C0C
0C18
0670
07E0
07C0
0780
0000
0000
0000
0100
7F00
0F00
0E00
0E00
0E00
1C00
1C00
1C00
3C00
3800
3800
7800
7800
7000
7100
F300
F600
FC00
F800
ENDCHAR
STARTCHAR 01D1
ENCODING 465
SWIDTH 720 0
DWIDTH 32 0
BBX 29 40 3 -1
BITMAP
00008000
00004060
00006180
00007380
00007F00
00003E00
00003C00
00000000
00000000
0001FE00
000F0F80
003C03C0
007001E0
00E001E0
03C000F0
078000F0
078000F8
0F0000F8
1E0000F8
1E0000F8
3C0000F8
3C0000F8
7C0000F8
780000F0
F80001F0
F80001F0
F80001E0
F00003E0
F00003C0
F00007C0
F0000780
F0000F80
F0000F00
F8001E00
78003C00
7C007800
3C00F000
1E03C000
07FF0000
00F00000
ENDCHAR
STARTCHAR 01D2
ENCODING 466
SWIDTH 495 0
DWIDTH 22 0
BBX 22 30 1 -1
BITMAP
00200C
001018
001870
001CE0
000FC0
000F80
000F00
000000
000000
000000
000C00
00FF80
01C1C0
0700E0
0F00E0
1E00E0
1C00F0
3C00F0
3800E0
7800E0
7801E0
7001E0
F001C0
F003C0
F00380
F00780
700F00
701E00
383800
1FE000
ENDCHAR
STARTCHAR 01D3
ENCODING 467
SWIDTH 720 0
DWIDTH 32 0
BBX 31 40 5 -1
BITMAP
00040000
00020300
00030C00
00039800
0003F000
0003E000
0001C000
00000000
00000000
00000000
7FF803FE
0F800070
0F800060
0F000060
0F000040
0E0000C0
1E0000C0
1E000080
1E000180
1C000180
3C000100
3C000100
38000300
78000300
78000200
78000600
70000600
F0000400
F0000C00
F0000C00
F0000800
E0001800
F0001800
F0003000
F0003000
78006000
3C01C000
1F878000
0FFE0000
01E00000
ENDCHAR
STARTCHAR 01D4
ENCODING 468
SWIDTH 495 0
DWIDTH 22 0
BBX 20 31 2 -1
BITMAP
008030
004040
006180
007300
007E00
003C00
003C00
000000
000000
000000
040000
1E01E0
7E01C0
CE01C0
9E01C0
1E03C0
1C0380
1C0780
3C0780
380F00
380F00
781700
701F00
702E00
704E00
F08E00
E19C40
F31C80
FE1F00
F81E00
200000
ENDCHAR
STARTCHAR 01D5
ENCODING 469
SWIDTH 720 0
DWIDTH 32 0
BBX 31 41 5 -1
BITMAP
0003FF80
0003FF00
0007FF00
00000000
00000000
00060C00
000F1E00
000F1E00
00060C00
00000000
00000000
7FF803FE
0F800070
0F800060
0F000060
0F000040
0E0000C0
1E0000C0
1E000080
1E000180
1C000180
3C000100
3C000100
38000300
78000300
78000200
78000600
70000600
F0000400
F0000C00
F0000C00
F0000800
E0001800
F0001800
F0003000
F0003000
78006000
3C01C000
1F878000
0FFE0000
01E00000
ENDCHAR
STARTCHAR 01D6
ENCODING 470
SWIDTH 495 0
DWIDTH 22 0
BBX 21 34 2 -1
BITMAP
00FFF8
00FFF8
01FFF0
000000
000000
000080
01E1C0
03E3E0
01E3E0
01C1C0
000000
000000
000000
040000
1E01E0
7E01C0
CE01C0
9E01C0
1E03C0
1C0380
1C0780
3C0780
380F00
380F00
781700
701F00
702E00
704E00
F08E00
E19C40
F31C80
FE1F00
F81E00
200000
ENDCHAR
STARTCHAR 01D7
ENCODING 471
SWIDTH 720 0
DWIDTH 32 0
BBX 31 41 5 -1
BITMAP
00003C00
00003800
00007000
00006000
00000000
00060C00
000F1E00
000F1E00
00060C00
00000000
00000000
7FF803FE
0F800070
0F800060
0F000060
0F000040
0E0000C0
1E0000C0
1E000080
1E000180
1C000180
3C000100
3C000100
38000300
78000300
78000200
78000600
70000600
F0000400
F0000C00
F0000C00
F0000800
E0001800
F0001800
F0003000
F0003000
78006000
3C01C000
1F878000
0FFE0000
01E00000
ENDCHAR
STARTCHAR 01D8
ENCODING 472
SWIDTH 495 0
DWIDTH 22 0
BBX 19 38 2 -1
BITMAP
0003E0
0003C0
000380
000780
000700
000600
000C00
000800
000000
000080
01E1C0
03E3E0
01E3E0
01C1C0
000000
000000
000000
040000
1E01E0
7E01C0
CE01C0
9E01C0
1E03C0
1C0380
1C0780
3C0780
380F00
380F00
781700
701F00
702E00
704E00
F08E00
E19C40
F31C80
FE1F00
F81E00
200000
ENDCHAR
STARTCHAR 01D9
ENCODING 473
SWIDTH 720 0
DWIDTH 32 0
BBX 31 41 5 -1
BITMAP
00010100
00018600
0000FC00
0000F000
00000000
00060C00
000F1E00
000F1E00
00060C00
00000000
00000000
7FF803FE
0F800070
0F800060
0F000060
0F000040
0E0000C0
1E0000C0
1E000080
1E000180
1C000180
3C000100
3C000100
38000300
78000300
78000200
78000600
70000600
F0000400
F0000C00
F0000C00
F0000800
E0001800
F0001800
F0003000
F0003000
78006000
3C01C000
1F878000
0FFE0000
01E00000
ENDCHAR
STARTCHAR 01DA
ENCODING 474
SWIDTH 495 0
DWIDTH 22 0
BBX 21 37 2 -1
BITMAP
002008
002030
003060
0039C0
001F80
001F00
001E00
000000
000080
01E1C0
03E3E0
01E3E0
01C1C0
000000
000000
000000
040000
1E01E0
7E01C0
CE01C0
9E01C0
1E03C0
1C0380
1C0780
3C0780
380F00
380F00
781700
701F00
702E00
704E00
F08E00
E19C40
F31C80
FE1F00
F81E00
200000
ENDCHAR
STARTCHAR 01DB
ENCODING 475
SWIDTH 720 0
DWIDTH 32 0
BBX 31 41 5 -1
BITMAP
0001E000
0000E000
00006000
00003000
00000000
00060C00
000F1E00
000F1E00
00060C00
00000000
00000000
7FF803FE
0F800070
0F800060
0F000060
0F000040
0E0000C0
1E0000C0
1E000080
1E000180
1C000180
3C000100
3C000100
38000300
78000300
78000200
78000600
70000600
F0000400
F0000C00
F0000C00
F0000800
E0001800
F0001800
F0003000
F0003000
78006000
3C01C000
1F878000
0FFE0000
01E00000
ENDCHAR
STARTCHAR 01DC
ENCODING 476
SWIDTH 495 0
DWIDTH 22 0
BBX 19 38 2 -1
BITMAP
00F800
007800
003800
001C00
001C00
000C00
000600
000200
000000
000080
01E1C0
03E3E0
01E3E0
01C1C0
000000
000000
000000
040000
1E01E0
7E01C0
CE01C0
9E01C0
1E03C0
1C0380
1C0780
3C0780
380F00
380F00
781700
701F00
702E00
704E00
F08E00
E19C40
F31C80
FE1F00
F81E00
200000
ENDCHAR
STARTCHAR 01FA
ENCODING 506
SWIDTH 607 0
DWIDTH 27 0
BBX 32 45 -2 0
BITMAP
0000001F
0000001E
0000003C
00000038
00000030
00000020
00000040
00000000
000003E0
00000630
00000418
00000408
00000418
00000618
000003F0
000001E0
00000180
00000380
00000780
00000700
00000F00
00001F00
00001700
00003F00
00006F00
0000CF00
00008F00
00018F00
00030F00
00060F00
00040E00
000C0E00
00180E00
00301E00
003FFE00
00601E00
00C01E00
00801E00
01801E00
03001E00
06001E00
0E001C00
0C003E00
3E003E00
FF81FFC0
ENDCHAR
STARTCHAR 01FB
ENCODING 507
SWIDTH 495 0
DWIDTH 22 0
BBX 22 41 1 -1
BITMAP
00007C
000078
0000F0
0000E0
0000C0
000180
000180
000100
000000
000780
000FC0
001860
001820
001020
001860
000C60
0007C0
000000
000000
000000
001810
00FEF0
01C2E0
0301E0
0701E0
0E01C0
1C01C0
1C01C0
3803C0
380380
700380
700780
F00700
F00F00
F01F00
F03F00
F06E20
F8CE40
7F8F80
7E0F00
000400
ENDCHAR
STARTCHAR 01FC
ENCODING 508
SWIDTH 900 0
DWIDTH 40 0
BBX 42 39 -2 0
BITMAP
00000001F000
00000001E000
00000003C000
000000038000
000000030000
000000060000
000000040000
000000040000
000000000000
000000000000
000007FFFFC0
000001BC07C0
000001F801C0
000003780080
000006780080
00000C700080
000008F00080
000018F00000
000030E00000
000061E02000
0000C1E02000
000081E06000
000181C1E000
000303FFC000
000603C3C000
000C0380C000
000807808000
001FFF808000
003FFF808000
006007000000
00C00F000000
00800F000400
01800E000400
03001E000C00
06001E001800
0C001E003800
1C003E00F800
3C007FFFF000
FF83FFFFF000
ENDCHAR
STARTCHAR 01FD
ENCODING 509
SWIDTH 675 0
DWIDTH 30 0
BBX 28 30 1 -1
BITMAP
00003E00
00003800
00007800
00007000
00006000
0000C000
00008000
00000000
00000000
00000000
00180180
00F4EFE0
0182D870
0302E070
0703E070
0E03C070
1C03C0E0
1C0381C0
38038380
38078E00
70077800
700FC000
F00F0000
F01F0000
E01F0000
F02F0040
F04700C0
F9C78180
7F83FE00
7E01FC00
ENDCHAR
STARTCHAR 01FE
ENCODING 510
SWIDTH 720 0
DWIDTH 32 0
BBX 31 40 2 -2
BITMAP
00000F80
00000F00
00000E00
00001E00
00001C00
00001800
00003000
00002000
00000004
0000FF06
0007CFCC
001E01F8
003800F0
00F000F0
01E000F8
03C001F8
03C0037C
0780063C
0F000C3C
0F00187C
1E00307C
1E00607C
3E00C07C
3C018078
7C0300F8
7C0600F8
7C0C00F0
781801F0
783001E0
787003E0
78E003C0
79C007C0
7B800780
7F000F00
3E001E00
1E003C00
3E007000
3F81E000
63FF8000
C0780000
ENDCHAR
STARTCHAR 01FF
ENCODING 511
SWIDTH 495 0
DWIDTH 22 0
BBX 21 31 0 -2
BITMAP
0001E0
0003C0
000380
000300
000600
000600
000400
000000
000000
000008
000618
003FD0
00E0E0
038070
0780F0
0F0170
0E0378
1E0678
1C0C78
3C1870
3C30F0
3860F0
78C1E0
7981E0
7B01C0
7E03C0
3C0780
380F00
3C1C00
6FF000
C00000
ENDCHAR
STARTCHAR 0218
ENCODING 536
SWIDTH 495 0
DWIDTH 22 0
BBX 24 40 0 -10
BITMAP
001FC1
007FF3
00F03E
01E00E
01C00E
03C006
03C006
03C004
03C004
03E004
01F000
01F800
00FC00
007E00
003F00
001F80
000FC0
0007E0
0003E0
0003F0
2001F0
2000F0
2000F0
2000F0
3000F0
7000E0
7801E0
7C03C0
7E0780
47FE00
807000
000000
00E000
00F000
00F000
007000
006000
00C000
018000
020000
ENDCHAR
STARTCHAR 0219
ENCODING 537
SWIDTH 382 0
DWIDTH 17 0
BBX 16 30 0 -10
BITMAP
0061
03FF
070F
0E06
0E02
0E02
0F02
0780
07C0
03E0
01F0
01F0
00F8
4078
4038
4038
C038
E030
E070
FDC0
0200
0000
0F00
0F00
0F00
0700
0600
0C00
1800
2000
ENDCHAR
STARTCHAR 021A
ENCODING 538
SWIDTH 562 0
DWIDTH 25 0
BBX 26 38 3 -10
BITMAP
1FFFFFC0
1F0F0780
180F0180
300E0180
201E0100
201E0100
201C0100
003C0000
003C0000
003C0000
00780000
00780000
00780000
00700000
00F00000
00F00000
00F00000
01E00000
01E00000
01E00000
01C00000
03C00000
03C00000
03C00000
07800000
07800000
07800000
0FC00000
FFF80000
00000000
00000000
0E000000
1F000000
0F000000
0E000000
06000000
0C000000
30000000
ENDCHAR
STARTCHAR 021B
ENCODING 539
SWIDTH 270 0
DWIDTH 12 0
BBX 14 35 -1 -10
BITMAP
0010
0010
0030
0070
00E0
03E0
0FFC
01C0
01C0
03C0
03C0
0380
0380
0780
0700
0700
0F00
0F00
0E00
0E00
1E20
1C60
1CC0
1F80
1F00
0000
0000
3C00
3C00
3C00
1C00
1800
1000
6000
8000
ENDCHAR
STARTCHAR 0259
ENCODING 601
SWIDTH 450 0
DWIDTH 20 0
BBX 17 20 1 -1
BITMAP
003000
01FE00
07FF00
180F80
300780
400780
000780
000380
000780
001F80
03E780
0F0700
1C0700
780E00
700E00
E01C00
E03800
E07000
E0E000
7F8000
ENDCHAR
STARTCHAR 02C6
ENCODING 710
SWIDTH 337 0
DWIDTH 15 0
BBX 11 7 6 23
BITMAP
03C0
07C0
0FC0
18C0
3060
4020
8020
ENDCHAR
STARTCHAR 02C7
ENCODING 711
SWIDTH 337 0
DWIDTH 15 0
BBX 11 7 7 23
BITMAP
8020
4040
6180
7300
7E00
3C00
3800
ENDCHAR
STARTCHAR 02C9
ENCODING 713
SWIDTH 337 0
DWIDTH 15 0
BBX 14 3 5 26
BITMAP
7FFC
7FFC
FFF8
ENDCHAR
STARTCHAR 02D8
ENCODING 728
SWIDTH 337 0
DWIDTH 15 0
BBX 13 7 6 24
BITMAP
8008
8010
4030
71E0
7FC0
3F80
1E00
ENDCHAR
STARTCHAR 02D9
ENCODING 729
SWIDTH 337 0
DWIDTH 15 0
BBX 4 4 10 24
BITMAP
70
F0
F0
F0
ENDCHAR
STARTCHAR 02DA
ENCODING 730
SWIDTH 337 0
DWIDTH 15 0
BBX 8 8 8 23
BITMAP
1C
7E
43
C1
C1
C1
63
3E
ENDCHAR
STARTCHAR 02DB
ENCODING 731
SWIDTH 337 0
DWIDTH 15 0
BBX 10 8 2 -8
BITMAP
4000
C000
C000
C000
E000
F000
7FC0
3F00
ENDCHAR
STARTCHAR 02DC
ENCODING 732
SWIDTH 337 0
DWIDTH 15 0
BBX 14 6 4 24
BITMAP
0804
3F04
7F84
4FFC
83F8
80F0
ENDCHAR
STARTCHAR 02DD
ENCODING 733
SWIDTH 337 0
DWIDTH 15 0
BBX 13 7 7 23
BITMAP
3CF8
78E0
71C0
61C0
C180
C300
8200
ENDCHAR
STARTCHAR 0300
ENCODING 768
SWIDTH 0 0
DWIDTH 0 0
BBX 7 8 -5 32
BITMAP
F8
78
38
1C
0C
0C
06
02
ENDCHAR
STARTCHAR 0301
ENCODING 769
SWIDTH 0 0
DWIDTH 0 0
BBX 7 8 -2 32
BITMAP
3E
3C
38
70
60
60
C0
80
ENDCHAR
STARTCHAR 0303
ENCODING 771
SWIDTH 0 0
DWIDTH 0 0
BBX 13 6 -11 32
BITMAP
3C00
7E08
FF88
8FF8
83F0
00E0
ENDCHAR
STARTCHAR 0309
ENCODING 777
SWIDTH 0 0
DWIDTH 0 0
BBX 7 8 -3 32
BITMAP
18
6C
C6
4C
18
10
20
40
ENDCHAR
STARTCHAR 0323
ENCODING 803
SWIDTH 0 0
DWIDTH 0 0
BBX 4 4 -20 -7
BITMAP
F0
F0
F0
E0
ENDCHAR
STARTCHAR 037E
ENCODING 894
SWIDTH 337 0
DWIDTH 15 0
BBX 11 25 1 -6
BITMAP
0080
01C0
03E0
03E0
01C0
0000
0000
0000
0000
0000
0000
0000
0000
0000
0000
0000
1800
3C00
3C00
3C00
1C00
1800
1800
3000
C000
ENDCHAR
STARTCHAR 0384
ENCODING 900
SWIDTH 337 0
DWIDTH 15 0
BBX 6 7 9 23
BITMAP
3C
38
70
70
60
C0
80
ENDCHAR
STARTCHAR 0385
ENCODING 901
SWIDTH 337 0
DWIDTH 15 0
BBX 16 7 4 23
BITMAP
01F0
01E0
21C4
F39E
FB1F
F21E
740E
ENDCHAR
STARTCHAR 0386
ENCODING 902
SWIDTH 607 0
DWIDTH 27 0
BBX 26 30 -2 0
BITMAP
0007C080
00078180
000F0380
000E0780
000C0700
00080F00
00101F00
00001700
00003F00
00006F00
0000CF00
00008F00
00018F00
00030F00
00060F00
00040E00
000C0E00
00180E00
00301E00
003FFE00
00601E00
00C01E00
00801E00
01801E00
03001E00
06001E00
06001C00
0C003E00
3E003E00
FF81FFC0
ENDCHAR
STARTCHAR 0387
ENCODING 903
SWIDTH 337 0
DWIDTH 15 0
BBX 5 5 7 15
BITMAP
20
70
F8
F0
60
ENDCHAR
STARTCHAR 0388
ENCODING 904
SWIDTH 675 0
DWIDTH 30 0
BBX 29 30 2 0
BITMAP
3E000000
3CFFFFF8
781E00F8
701E0030
601E0030
C01C0010
803C0010
003C0000
003C0000
00780000
00780400
00780C00
00700800
00F03800
00FFF800
00F07000
01E03000
01E01000
01E01000
01C02000
03C00000
03C00000
03C00080
07800080
07800180
07800300
0F000700
0F001F00
1FE3FE00
FFFFFE00
ENDCHAR
STARTCHAR 0389
ENCODING 905
SWIDTH 787 0
DWIDTH 35 0
BBX 37 30 2 0
BITMAP
3E00000000
38FFE03FF8
781F000F80
701E000F80
601E000F00
C01C000F00
803C000F00
003C001E00
003C001E00
0078001E00
0078001C00
0078003C00
0070003C00
00F0003C00
00FFFFF800
00F0007800
01E0007800
01E0007000
01E000F000
01C000F000
03C000F000
03C001E000
038001E000
078001E000
078001C000
078003C000
0F0003C000
0F0007C000
1F8007C000
FFF03FF800
ENDCHAR
STARTCHAR 038A
ENCODING 906
SWIDTH 405 0
DWIDTH 18 0
BBX 19 30 2 0
BITMAP
3E0000
38FFE0
781F00
701E00
601E00
C01C00
803C00
003C00
003C00
003800
007800
007800
007000
00F000
00F000
00F000
01E000
01E000
01E000
01C000
03C000
03C000
03C000
078000
078000
078000
078000
0F0000
1F8000
FFF000
ENDCHAR
STARTCHAR 038C
ENCODING 908
SWIDTH 720 0
DWIDTH 32 0
BBX 29 31 3 -1
BITMAP
3E01FE00
3C0F8F80
383C03C0
707001E0
60E000E0
43C000F0
878000F0
078000F8
0F0000F8
1E0000F8
1E0000F8
3C0000F8
3C0000F8
7C0000F8
780000F0
F80001F0
F80001F0
F80001E0
F00003E0
F00003C0
F00007C0
F0000780
F0000F80
F0000F00
F8001E00
78003C00
7C007800
3C00F000
1E03C000
07FF0000
01F00000
ENDCHAR
STARTCHAR 038E
ENCODING 910
SWIDTH 652 0
DWIDTH 29 0
BBX 32 30 2 0
BITMAP
3E000000
3CFFC1FF
783E0038
701E0030
601E0060
C00F00C0
800F00C0
000F0180
00070300
00078200
00078600
00038C00
0003D800
0003D800
0003F000
0001E000
0001C000
0003C000
0003C000
0003C000
00078000
00078000
00078000
000F0000
000F0000
000F0000
000F0000
001F0000
003F0000
01FFE000
ENDCHAR
STARTCHAR 038F
ENCODING 911
SWIDTH 720 0
DWIDTH 32 0
BBX 31 30 1 0
BITMAP
1F00FF80
1C07E3E0
3C1E00F0
387C0078
30F0003C
61F0003C
43E0001E
03C0001E
07C0001E
0780001E
0F80001E
0F00001E
0F00003E
1F00003E
1F00003C
1F00007C
1F00007C
0F0000F8
0F0000F0
0F0001E0
078003C0
03C00780
01F01E00
4078F820
40108020
60308060
7C3187E0
FFE1FFC0
FFE1FFC0
FFE3FFC0
ENDCHAR
STARTCHAR 0390
ENCODING 912
SWIDTH 270 0
DWIDTH 12 0
BBX 16 30 2 -1
BITMAP
01F0
01E0
21C4
F39E
F31F
F21E
740E
0000
0000
0000
0100
7F00
0F00
0E00
0E00
1E00
1C00
1C00
1C00
3C00
3800
3800
7800
7000
7000
7100
F200
E600
FC00
F800
ENDCHAR
STARTCHAR 0391
ENCODING 913
SWIDTH 607 0
DWIDTH 27 0
BBX 26 30 -2 0
BITMAP
00000080
00000180
00000380
00000780
00000700
00000F00
00001F00
00001700
00003F00
00006F00
0000CF00
00008F00
00018F00
00030F00
00060F00
00040E00
000C0E00
00180E00
00301E00
003FFE00
00601E00
00C01E00
00801E00
01801E00
03001E00
06001E00
0E001C00
0C003E00
3E003E00
FF81FFC0
ENDCHAR
STARTCHAR 0392
ENCODING 914
SWIDTH 607 0
DWIDTH 27 0
BBX 27 29 -1 0
BITMAP
00FFFE00
001E0F80
001E03C0
001E03E0
001C01E0
003C01E0
003C01E0
003801E0
003803E0
007803C0
00780780
00700F00
00F1FC00
00FFF000
00E0FC00
01E03E00
01E01F00
01C00F00
01C00F80
03C00F80
03C00F80
03800F00
07800F00
07801F00
07003E00
0F007C00
0F00F800
1FFFF000
FFFF8000
ENDCHAR
STARTCHAR 0393
ENCODING 915
SWIDTH 562 0
DWIDTH 25 0
BBX 30 29 -1 0
BITMAP
00FFFFFC
001E003C
001E001C
001E0018
001C0008
003C0008
003C0010
003C0000
00780000
00780000
00780000
00700000
00F00000
00F00000
00E00000
01E00000
01E00000
01E00000
03C00000
03C00000
03C00000
03800000
07800000
07800000
07800000
0F000000
0F000000
1F800000
FFF00000
ENDCHAR
STARTCHAR 0394
ENCODING 916
SWIDTH 585 0
DWIDTH 26 0
BBX 25 30 -2 0
BITMAP
00000180
00000180
00000380
00000700
00000F00
00000F00
00001F00
00003700
00006F00
0000CF00
00008F00
00018F00
00030F00
00060F00
000C0F00
000C0F00
00180E00
00300E00
00600E00
00C00E00
00C00E00
01801E00
03001E00
06001E00
0C001E00
0C001E00
18001E00
30001E00
60001E00
FFFFFE00
ENDCHAR
STARTCHAR 0395
ENCODING 917
SWIDTH 607 0
DWIDTH 27 0
BBX 29 29 -1 0
BITMAP
00FFFFF8
001E01F8
001E0030
001E0030
001C0010
003C0010
003C0020
003C0000
00780000
00780400
00780C00
00700800
00F03800
00FFF800
00F0F000
01E03000
01E01000
01E01000
01C02000
03C00000
03C00000
03C00080
07800080
07800180
07800300
0F000700
0F001F00
1FE3FE00
FFFFFE00
ENDCHAR
STARTCHAR 0396
ENCODING 918
SWIDTH 562 0
DWIDTH 25 0
BBX 27 29 0 0
BITMAP
03FFFFE0
03E007C0
03000780
06000F80
04001F00
04003E00
00007C00
00007800
0000F800
0001F000
0003E000
0007C000
00078000
000F8000
001F0000
003E0000
007C0000
00780000
00F80000
01F00000
03E00000
07C00100
07800200
0F800200
1F000600
3E000C00
7C003C00
7807FC00
FFFFF800
ENDCHAR
STARTCHAR 0397
ENCODING 919
SWIDTH 720 0
DWIDTH 32 0
BBX 37 29 -1 0
BITMAP
00FFE07FF8
001F000F80
001E000F80
001E000F00
001C000F00
003C000F00
003C001E00
0038001E00
0078001E00
0078003C00
0078003C00
00F0003C00
00F0003800
00FFFFF800
00E0007800
01E0007800
01E0007000
01E000F000
03C000F000
03C000E000
03C001E000
038001E000
078001E000
078003C000
078003C000
0F0003C000
0F0007C000
1F8007C000
FFE03FF800
ENDCHAR
STARTCHAR 0398
ENCODING 920
SWIDTH 720 0
DWIDTH 32 0
BBX 29 31 3 -1
BITMAP
0001FE00
000F8F80
003C03C0
007001E0
00E000E0
01C000F0
038000F0
078000F8
0F000078
1F000078
1E200878
3E2008F8
3C2018F8
7C7870F8
787FF0F0
F87FF0F0
F87FE1F0
F8C061E0
F08023E0
F10023C0
F00003C0
F0000780
F0000F80
F0000F00
F8001E00
78003C00
3C007800
3C00F000
1F03C000
07FF0000
00F00000
ENDCHAR
STARTCHAR 0399
ENCODING 921
SWIDTH 337 0
DWIDTH 15 0
BBX 19 29 -1 0
BITMAP
00FFE0
001F00
001E00
001E00
001C00
003C00
003C00
003C00
007800
007800
007800
007000
00F000
00F000
00F000
01E000
01E000
01E000
01C000
03C000
03C000
03C000
078000
078000
078000
0F0000
0F0000
1F8000
FFF000
ENDCHAR
STARTCHAR 039A
ENCODING 922
SWIDTH 675 0
DWIDTH 30 0
BBX 33 29 -1 0
BITMAP
00FFC0FF80
001F007C00
001E007000
001E00E000
003C018000
003C030000
003C0E0000
0038180000
0078300000
0078E00000
0079C00000
00F3000000
00FE000000
00FF000000
00EF800000
01E7800000
01E3C00000
01E3E00000
03C1E00000
03C0F00000
03C0F80000
0380780000
07803C0000
07803C0000
07801E0000
0F001F0000
0F001F8000
1F801FC000
FFF0FFF800
ENDCHAR
STARTCHAR 039B
ENCODING 923
SWIDTH 607 0
DWIDTH 27 0
BBX 26 30 -2 0
BITMAP
00000080
00000180
00000380
00000780
00000700
00000F00
00001F00
00001F00
00003F00
00006F00
0000CF00
00008F00
00018F00
00030F00
00060E00
00040E00
000C0E00
00181E00
00301E00
00201E00
00601E00
00C01E00
00801E00
01801E00
03001E00
06001C00
0E003C00
1C003C00
3E003E00
FF83FFC0
ENDCHAR
STARTCHAR 039C
ENCODING 924
SWIDTH 832 0
DWIDTH 37 0
BBX 42 29 -1 0
BITMAP
00FE00003FC0
001E00007C00
001E00007C00
001F0000F800
001F0001F800
003F00017800
003F0003F000
002F0006F000
006F000CF000
006F000DE000
00470019E000
00C70031E000
00C78021E000
00C78063C000
008780C3C000
01878183C000
018781878000
010783078000
030386078000
03038C070000
03038C0F0000
0203D80F0000
0603F00F0000
0603F00E0000
0403E01E0000
0C03C01E0000
0C03803E0000
1E01803E0000
FF8103FFC000
ENDCHAR
STARTCHAR 039D
ENCODING 925
SWIDTH 675 0
DWIDTH 30 0
BBX 34 30 -1 -1
BITMAP
01FC003FC0
003E000E00
001E000E00
001E000C00
003F000C00
003F000800
0037001800
0027801800
0067801800
0063C01000
0043C03000
00C1C03000
00C1E02000
00C1E06000
0080F06000
0180F06000
0180704000
010078C000
030078C000
03003C8000
03003D8000
02001D8000
06001F8000
06001F0000
04000F0000
0C000F0000
0C000E0000
1E00060000
FF80060000
0000020000
ENDCHAR
STARTCHAR 039E
ENCODING 926
SWIDTH 630 0
DWIDTH 28 0
BBX 30 29 0 0
BITMAP
00FFFFFC
00FFFFFC
00FFFFFC
00C00038
01800008
01000008
01000008
00000000
00000000
00000000
00200200
00200200
00780C00
007FFC00
007FFC00
007FFC00
00C00800
00800800
01000800
00000000
20000080
20000080
20000080
40000100
60000300
7FFFFF00
FFFFFF00
FFFFFE00
FFFFFE00
ENDCHAR
STARTCHAR 039F
ENCODING 927
SWIDTH 720 0
DWIDTH 32 0
BBX 29 31 3 -1
BITMAP
0001FE00
000F0F80
003C03C0
007001E0
00E001E0
03C000F0
078000F0
078000F8
0F0000F8
1E0000F8
1E0000F8
3C0000F8
3C0000F8
7C0000F8
780000F0
F80001F0
F80001F0
F80001E0
F00003E0
F00003C0
F00007C0
F0000780
F0000F80
F0000F00
F8001E00
78003C00
7C007800
3C00F000
1E03C000
07FF0000
00F00000
ENDCHAR
STARTCHAR 03A0
ENCODING 928
SWIDTH 720 0
DWIDTH 32 0
BBX 36 29 -1 0
BITMAP
00FFFFFFF0
001E000780
001E000780
001E000F00
001C000F00
003C000F00
003C001E00
003C001E00
0078001E00
0078001C00
0078003C00
0070003C00
00F0003C00
00F0007800
00F0007800
01E0007800
01E000F000
01E000F000
03C000F000
03C000E000
03C001E000
03C001E000
078001E000
078003C000
078003C000
0F8003C000
0F8007C000
1F800FC000
FFF07FF800
ENDCHAR
STARTCHAR 03A1
ENCODING 929
SWIDTH 607 0
DWIDTH 27 0
BBX 29 29 -1 0
BITMAP
00FFFF80
001F07C0
001E01E0
001E00F0
001E00F0
003C00F8
003C00F8
003C00F8
003800F0
007800F0
007801E0
007803E0
00F00780
00F81F00
00FFFC00
01E00000
01E00000
01E00000
01E00000
03C00000
03C00000
03C00000
07800000
07800000
07800000
07800000
0F000000
1F800000
FFF00000
ENDCHAR
STARTCHAR 03A3
ENCODING 931
SWIDTH 585 0
DWIDTH 26 0
BBX 31 29 -2 0
BITMAP
007FFFFE
007C003E
003C000E
003E0004
001E0004
001F0004
000F0000
000F8000
00078000
0003C000
0003E000
0001E000
0001E000
0000C000
00018000
00030000
00060000
000C0000
00180000
00300000
00600040
00C00040
01800080
07000180
0E000380
1FFFFF00
3FFFFF00
7FFFFF00
FFFFFE00
ENDCHAR
STARTCHAR 03A4
ENCODING 932
SWIDTH 562 0
DWIDTH 25 0
BBX 26 29 3 0
BITMAP
1FFFFFC0
1F0F0780
180F0180
300E0180
201E0100
201E0100
201C0100
003C0000
003C0000
003C0000
00780000
00780000
00780000
00700000
00F00000
00F00000
00F00000
01E00000
01E00000
01E00000
01C00000
03C00000
03C00000
03C00000
07800000
07800000
07800000
0FC00000
FFF80000
ENDCHAR
STARTCHAR 03A5
ENCODING 933
SWIDTH 562 0
DWIDTH 25 0
BBX 25 29 4 0
BITMAP
3FF07F80
0F801C00
0F801800
07801800
07803000
07806000
03C0C000
03C0C000
03C18000
01C30000
01E20000
01E60000
00EC0000
00F80000
00F80000
00F00000
00F00000
01E00000
01E00000
01E00000
03C00000
03C00000
03C00000
03C00000
07800000
07800000
0F800000
1F800000
FFF80000
ENDCHAR
STARTCHAR 03A6
ENCODING 934
SWIDTH 765 0
DWIDTH 34 0
BBX 30 29 3 0
BITMAP
0007FFC0
0000FC00
0000F800
0000F800
0000F000
003FFF80
01F1F1E0
07C1E0F0
0F01E078
1E01E03C
3C03E03C
3C03C03C
7803C03C
7807C03C
7807803C
F807803C
F00F8078
780F8078
780F00F0
780F01E0
3C1F03C0
1E1E0F80
0F9E7E00
01FFE000
003E0000
003C0000
007C0000
00FE0000
07FFC000
ENDCHAR
STARTCHAR 03A7
ENCODING 935
SWIDTH 607 0
DWIDTH 27 0
BBX 35 29 -3 0
BITMAP
003FF03FE0
000F800F00
0007800E00
0007801C00
0003C01800
0003C03000
0003C06000
0001C0C000
0001E18000
0001E30000
0001E60000
0000FC0000
0000F80000
0000F00000
0000F00000
0000F80000
0001F80000
0003780000
00063C0000
000C3C0000
00183C0000
00301C0000
00601E0000
00C01E0000
01801E0000
03000F0000
07000F0000
1F001F8000
FFC0FFF000
ENDCHAR
STARTCHAR 03A8
ENCODING 936
SWIDTH 697 0
DWIDTH 31 0
BBX 30 30 6 0
BITMAP
C000001C
707FF870
380F80E0
380F01E0
380F03C0
780E03C0
781E03C0
781E0780
781E0780
F03C0780
F03C0F00
F03C0F00
F0380E00
70781E00
70783C00
38707800
1CF1F000
0FFFC000
00F00000
00E00000
01E00000
01E00000
01C00000
03C00000
03C00000
03C00000
07800000
07800000
0FC00000
FFF80000
ENDCHAR
STARTCHAR 03A9
ENCODING 937
SWIDTH 720 0
DWIDTH 32 0
BBX 31 30 1 0
BITMAP
0000FF80
0007E3E0
001E00F0
00780078
00F0003C
01E0003C
03E0001E
03C0001E
0780001E
0F80001E
0F80001E
0F00001E
1F00003E
1F00003E
1F00003C
1F00007C
1F000078
1F0000F8
0F0000F0
0F0001E0
078003C0
03C00780
01F03E00
4070F820
40108020
40318060
7C2107C0
FFE1FFC0
FFE3FFC0
FFC3FF80
ENDCHAR
STARTCHAR 03AA
ENCODING 938
SWIDTH 337 0
DWIDTH 15 0
BBX 21 37 -1 0
BITMAP
007070
0078F8
00F8F8
007870
000020
000000
000000
000000
00FFE0
001F00
001E00
001E00
001C00
003C00
003C00
003C00
007800
007800
007800
007000
00F000
00F000
00F000
01E000
01E000
01E000
01C000
03C000
03C000
03C000
078000
078000
078000
0F0000
0F0000
1F8000
FFF000
ENDCHAR
STARTCHAR 03AB
ENCODING 939
SWIDTH 562 0
DWIDTH 25 0
BBX 25 37 4 0
BITMAP
00707000
0078F800
00F8F800
00787000
00002000
00000000
00000000
00000000
3FF07F80
0F801C00
0F801800
07801800
07803000
07806000
03C0C000
03C0C000
03C18000
01C30000
01E20000
01E60000
00EC0000
00F80000
00F80000
00F00000
00F00000
01E00000
01E00000
01E00000
03C00000
03C00000
03C00000
03C00000
07800000
07800000
0F800000
1F800000
FFF80000
ENDCHAR
STARTCHAR 03AC
ENCODING 940
SWIDTH 517 0
DWIDTH 23 0
BBX 21 31 1 -1
BITMAP
0003C0
000780
000700
000700
000600
000C00
000800
000000
000000
000000
003000
01FC38
038670
070270
0E03F0
1E01E0
3C01E0
3C01C0
7803C0
780380
780380
700780
F00780
F00F80
F00E80
701C88
701C88
7038F8
3870F8
1FC070
020000
ENDCHAR
STARTCHAR 03AD
ENCODING 941
SWIDTH 405 0
DWIDTH 18 0
BBX 17 31 0 -1
BITMAP
001E00
003C00
003800
003800
003000
006000
004000
000000
000000
000000
003800
03EE00
070380
0E0380
0C0380
1C0380
1C0000
0C0000
060000
01F000
0F1000
3C0000
780000
700000
700000
F00E00
701E00
701E00
383C00
1EF000
010000
ENDCHAR
STARTCHAR 03AE
ENCODING 942
SWIDTH 495 0
DWIDTH 22 0
BBX 19 40 1 -10
BITMAP
0003C0
000780
000700
000600
000E00
000C00
000800
000000
000000
000000
0200C0
0F03E0
1F0FE0
2708E0
4710E0
0720E0
0E41E0
0EC1C0
0E81C0
1F03C0
1E0380
1E0380
3C0380
3C0780
380700
380700
780F00
700E00
700E00
F00E00
001E00
001C00
001C00
001C00
003C00
003C00
003800
003800
003800
003800
ENDCHAR
STARTCHAR 03AF
ENCODING 943
SWIDTH 270 0
DWIDTH 12 0
BBX 12 30 2 -1
BITMAP
00F0
01E0
01C0
0180
0380
0300
0200
0000
0000
0000
0100
7F00
0F00
0E00
0E00
0E00
1C00
1C00
1C00
3C00
3800
3800
7800
7800
7000
7100
F300
F600
FC00
F800
ENDCHAR
STARTCHAR 03B0
ENCODING 944
SWIDTH 450 0
DWIDTH 20 0
BBX 20 31 1 -1
BITMAP
000F80
000F00
031E20
079CF0
0798F0
0790F0
03A070
000000
000000
000000
021000
1F0E00
3F0300
4F0180
CF0180
0E01C0
0E01C0
1E01C0
1E01C0
1C01C0
1C01C0
3C0180
380380
380380
380300
780600
780E00
381C00
383800
1EE000
010000
ENDCHAR
STARTCHAR 03B1
ENCODING 945
SWIDTH 517 0
DWIDTH 23 0
BBX 21 21 1 -1
BITMAP
003000
01FC38
038670
070270
0E03F0
1E01E0
3C01E0
3C01C0
7803C0
780380
780380
700780
F00780
F00F80
F00E80
701C88
701C88
7038F8
3870F8
1FC070
020000
ENDCHAR
STARTCHAR 03B2
ENCODING 946
SWIDTH 495 0
DWIDTH 22 0
BBX 26 41 -3 -10
BITMAP
00007C00
0001C700
00030380
00070380
000E0380
000E03C0
001C03C0
001C0380
003C0380
00380780
00380700
00780E00
00701C00
0073F000
00F37000
00E03800
00E01C00
00E01C00
01E01E00
01C01E00
01C01E00
03C01E00
03801E00
03801C00
03803C00
07803C00
07007800
07007000
0F00E000
0F81C000
0EFF8000
1E080000
1C000000
1C000000
1C000000
38000000
38000000
38000000
70000000
70000000
E0000000
ENDCHAR
STARTCHAR 03B3
ENCODING 947
SWIDTH 405 0
DWIDTH 18 0
BBX 16 30 1 -10
BITMAP
1002
3C0F
7E0F
6E0F
C60F
8207
0207
0206
0206
020C
020C
0218
0210
0230
0260
0240
0280
0300
0200
0200
0600
0E00
0E00
1C00
3C00
3C00
3800
7800
7000
2000
ENDCHAR
STARTCHAR 03B4
ENCODING 948
SWIDTH 472 0
DWIDTH 21 0
BBX 20 32 1 -1
BITMAP
000F00
0023C0
0041E0
0040F0
004060
006000
006000
007000
003800
001E00
000E00
000F00
000780
003B80
01C3C0
0783C0
0F01C0
1E01C0
3C01C0
3803C0
7803C0
7003C0
F00380
F00780
F00700
F00F00
F00E00
F01C00
701800
303000
1FC000
020000
ENDCHAR
STARTCHAR 03B5
ENCODING 949
SWIDTH 405 0
DWIDTH 18 0
BBX 17 21 0 -1
BITMAP
003800
03EE00
070380
0E0380
0C0380
1C0380
1C0000
0C0000
060000
01F000
0F1000
3C0000
780000
700000
700000
F00E00
701E00
701E00
383C00
1EF000
010000
ENDCHAR
STARTCHAR 03B6
ENCODING 950
SWIDTH 405 0
DWIDTH 18 0
BBX 23 38 1 -7
BITMAP
002000
00C000
01807E
01C1FC
00E7F0
001C00
001000
002000
004000
008000
010000
030000
060000
0C0000
080000
180000
100000
300000
200000
600000
600000
600000
C00000
C00000
E00000
E00000
E00000
F80000
7FF000
7FF800
3FFC00
07FC00
000C00
000400
000800
07F800
07F000
07C000
ENDCHAR
STARTCHAR 03B7
ENCODING 951
SWIDTH 495 0
DWIDTH 22 0
BBX 19 30 1 -10
BITMAP
0200C0
0F03E0
1F0FE0
2708E0
4710E0
0720E0
0E41E0
0EC1C0
0E81C0
1F03C0
1E0380
1E0380
3C0380
3C0780
380700
380700
780F00
700E00
700E00
F00E00
001E00
001C00
001C00
001C00
003C00
003C00
003800
003800
003800
003800
ENDCHAR
STARTCHAR 03B8
ENCODING 952
SWIDTH 495 0
DWIDTH 22 0
BBX 21 32 2 -1
BITMAP
000780
0018C0
007060
00E070
01C070
038070
038070
070078
0F0078
0E0078
1E0070
1C0070
1C0070
3C00F0
3800F0
7FFFE0
7801E0
7801E0
7001C0
F003C0
F003C0
E00380
E00780
E00700
E00F00
E00E00
E01C00
601800
603800
306000
1DC000
020000
ENDCHAR
STARTCHAR 03B9
ENCODING 953
SWIDTH 270 0
DWIDTH 12 0
BBX 8 20 2 -1
BITMAP
01
7F
0F
0E
0E
0E
1C
1C
1C
3C
38
38
78
78
70
71
F3
F6
FC
F8
ENDCHAR
STARTCHAR 03BA
ENCODING 954
SWIDTH 472 0
DWIDTH 21 0
BBX 21 20 1 0
BITMAP
008000
3F80F8
0F01F8
0703F0
0F0600
0E0C00
0E1800
1E6000
1CE000
1DE000
1FF000
3E7000
387000
387800
787800
703820
703C60
F03EC0
E01F80
E01F00
ENDCHAR
STARTCHAR 03BB
ENCODING 955
SWIDTH 427 0
DWIDTH 19 0
BBX 19 31 -1 0
BITMAP
003800
007C00
00FC00
008C00
008400
000400
000400
000400
000400
000400
000400
000400
000C00
000C00
001C00
003C00
003C00
007C00
00F400
00E400
01E400
03C400
038400
078400
0F0400
1E0400
1E0420
3C0420
780660
7007C0
F00780
ENDCHAR
STARTCHAR 03BC
ENCODING 956
SWIDTH 495 0
DWIDTH 22 0
BBX 23 29 -2 -10
BITMAP
00E01E
00E01C
01E01C
01C03C
01C038
01C038
03C038
038070
038070
078070
0700F0
0700E0
0700E0
0F01E0
0E03E0
0E03C2
1E0DC4
1F18FC
17E0F8
300020
300000
300000
700000
700000
E00000
E00000
E00000
E00000
400000
ENDCHAR
STARTCHAR 03BD
ENCODING 957
SWIDTH 450 0
DWIDTH 20 0
BBX 19 20 1 -1
BITMAP
000080
7E01C0
BE01E0
1E01E0
0F00C0
0F00C0
0F00C0
070080
070180
070100
070200
070600
078C00
078800
079000
07A000
07C000
078000
030000
020000
ENDCHAR
STARTCHAR 03BE
ENCODING 958
SWIDTH 427 0
DWIDTH 19 0
BBX 21 37 1 -6
BITMAP
00C038
00C0F0
00C1E0
0067C0
001800
001000
002000
002000
004000
004000
004FE0
003FC0
00C600
030000
060000
080000
180000
300000
200000
600000
400000
C00000
C00000
C00000
C00000
E00000
F00000
FFF000
7FFC00
3FFC00
01FE00
000600
000200
000400
03CC00
07F800
03E000
ENDCHAR
STARTCHAR 03BF
ENCODING 959
SWIDTH 495 0
DWIDTH 22 0
BBX 20 20 1 -1
BITMAP
000C00
00FF80
01C1C0
0700E0
0F00E0
1E00E0
1C00F0
3C00F0
3800E0
7800E0
7801E0
7001E0
F001C0
F003C0
F00380
F00780
700F00
701E00
383800
1FE000
ENDCHAR
STARTCHAR 03C0
ENCODING 960
SWIDTH 495 0
DWIDTH 22 0
BBX 22 19 1 -1
BITMAP
0FFFFC
1FFFFC
3FFFFC
618300
418700
018700
030700
030E00
030E00
060E00
061C00
0E1C00
1E1C00
1C1C00
3C3820
7C3820
783C40
F81FC0
F01F80
ENDCHAR
STARTCHAR 03C1
ENCODING 961
SWIDTH 472 0
DWIDTH 21 0
BBX 22 30 -3 -10
BITMAP
0001C0
000FF0
003838
00701C
00701C
00E01C
00E01C
01C01C
01C01C
01C01C
03C03C
03803C
038038
078078
070078
0700F0
0F00E0
0F01C0
0F0380
0FFF00
1E0000
1C0000
1C0000
3C0000
380000
380000
780000
700000
F00000
E00000
ENDCHAR
STARTCHAR 03C2
ENCODING 962
SWIDTH 405 0
DWIDTH 18 0
BBX 18 27 1 -7
BITMAP
001800
01FF00
030F80
0403C0
0801C0
100000
300000
200000
600000
400000
400000
400000
C00000
C00000
E00000
700000
7E0000
7FF000
3FF800
1FF800
007800
001800
000800
000800
0F3000
0FE000
0F8000
ENDCHAR
STARTCHAR 03C3
ENCODING 963
SWIDTH 495 0
DWIDTH 22 0
BBX 22 20 1 -1
BITMAP
007FFC
01FFFC
07FFFC
0FC200
1F0300
1E0380
3C0380
780380
7803C0
7003C0
F00380
F00780
F00780
F00700
F00F00
F01E00
701C00
303800
1FE000
020000
ENDCHAR
STARTCHAR 03C4
ENCODING 964
SWIDTH 360 0
DWIDTH 16 0
BBX 16 19 1 -1
BITMAP
0FFF
3FFF
3FFF
61C0
81C0
0380
0380
0380
0700
0700
0700
0E00
0E00
0E00
0E10
0E10
0E20
0FE0
0FC0
ENDCHAR
STARTCHAR 03C5
ENCODING 965
SWIDTH 450 0
DWIDTH 20 0
BBX 18 21 1 -1
BITMAP
021000
1F0E00
3F0300
4F0180
CF0180
0E01C0
0E01C0
1E01C0
1E01C0
1C01C0
1C01C0
3C0180
380380
380380
380300
780600
780E00
381C00
383800
1EE000
010000
ENDCHAR
STARTCHAR 03C6
ENCODING 966
SWIDTH 562 0
DWIDTH 25 0
BBX 21 30 2 -10
BITMAP
004080
0387E0
070FF0
0E0C70
1C1838
381838
783838
703038
703038
F07078
E06070
E06070
E06070
E0C0E0
E0C0E0
E0C1C0
E1C380
718700
718E00
3FF800
038000
030000
030000
060000
060000
060000
0E0000
0C0000
0C0000
0C0000
ENDCHAR
STARTCHAR 03C7
ENCODING 967
SWIDTH 450 0
DWIDTH 20 0
BBX 24 29 -4 -10
BITMAP
00E00F
01F00F
03301E
02103C
001838
001878
0018F0
0009E0
0009C0
000BC0
000F80
000F00
000E00
001E00
003C00
003800
007C00
00F400
01E400
01C400
03C400
078400
0F0400
0F0600
1E0610
3C0210
3803E0
7803E0
F00080
ENDCHAR
STARTCHAR 03C8
ENCODING 968
SWIDTH 630 0
DWIDTH 28 0
BBX 26 30 3 -10
BITMAP
400000C0
700C0380
380C0F00
380C0E00
38181E00
38181C00
38183C00
78303C00
78303C00
78307800
F0707800
F0607000
F060F000
F060F000
E0C0E000
E0C1C000
70C1C000
71838000
39870000
1DBC0000
03C00000
03000000
03000000
07000000
06000000
06000000
06000000
0C000000
0C000000
0C000000
ENDCHAR
STARTCHAR 03C9
ENCODING 969
SWIDTH 697 0
DWIDTH 31 0
BBX 27 21 2 -1
BITMAP
00180000
01F00F00
07800180
0E0001C0
1C0380E0
3C0780E0
780780E0
780F00E0
700F00E0
F00F00E0
F00E01E0
F00E01E0
E00C01E0
E00803C0
E00803C0
E0180780
E0380700
E0640F00
70C61E00
3F83F800
04004000
ENDCHAR
STARTCHAR 03CA
ENCODING 970
SWIDTH 270 0
DWIDTH 12 0
BBX 14 29 2 -1
BITMAP
1C3C
3E3C
3E3C
3C3C
0810
0000
0000
0000
0000
0100
7F00
0F00
0E00
0E00
0E00
1C00
1C00
1C00
3C00
3800
3800
7800
7800
7000
7100
F300
F600
FC00
F800
ENDCHAR
STARTCHAR 03CB
ENCODING 971
SWIDTH 450 0
DWIDTH 20 0
BBX 18 30 1 -1
BITMAP
038780
078780
07C780
078780
010200
000000
000000
000000
000000
021000
1F0E00
3F0300
4F0180
CF0180
0E01C0
0E01C0
1E01C0
1E01C0
1C01C0
1C01C0
3C0180
380380
380380
380300
780600
780E00
381C00
383800
1EE000
010000
ENDCHAR
STARTCHAR 03CC
ENCODING 972
SWIDTH 495 0
DWIDTH 22 0
BBX 20 30 1 -1
BITMAP
0003C0
000780
000700
000600
000C00
000C00
000800
000000
000000
000000
000C00
00FF80
01C1C0
0700E0
0F00E0
1E00E0
1C00F0
3C00F0
3800E0
7800E0
7801E0
7001E0
F001C0
F003C0
F00380
F00780
700F00
701E00
383800
1FE000
ENDCHAR
STARTCHAR 03CD
ENCODING 973
SWIDTH 450 0
DWIDTH 20 0
BBX 18 31 1 -1
BITMAP
001F00
001C00
003C00
003800
003000
006000
004000
000000
000000
000000
021000
1F0E00
3F0300
4F0180
CF0180
0E01C0
0E01C0
1E01C0
1E01C0
1C01C0
1C01C0
3C0180
380380
380380
380300
780600
780E00
381C00
383800
1EE000
010000
ENDCHAR
STARTCHAR 03CE
ENCODING 974
SWIDTH 697 0
DWIDTH 31 0
BBX 27 31 2 -1
BITMAP
00007C00
00007800
00007000
0000E000
0000C000
00008000
00010000
00000000
00000000
00000000
00180000
01F00F00
07800180
0E0001C0
1C0380E0
3C0780E0
780780E0
780F00E0
700F00E0
F00F00E0
F00E01E0
F00E01E0
E00C01E0
E00803C0
E00803C0
E0180780
E0380700
E0640F00
70C61E00
3F83F800
04004000
ENDCHAR
STARTCHAR 0401
ENCODING 1025
SWIDTH 607 0
DWIDTH 27 0
BBX 29 38 -1 0
BITMAP
00006060
0000F0F0
0000F1F0
0000F1F0
000060E0
00000000
00000000
00000000
00000000
00FFFFF8
001E01F8
001E0030
001E0030
001C0010
003C0010
003C0020
003C0000
00780000
00780400
00780C00
00700800
00F03800
00FFF800
00F0F000
01E03000
01E01000
01E01000
01C02000
03C00000
03C00000
03C00080
07800080
07800180
07800300
0F000700
0F001F00
1FE3FE00
FFFFFE00
ENDCHAR
STARTCHAR 0402
ENCODING 1026
SWIDTH 787 0
DWIDTH 35 0
BBX 30 29 4 0
BITMAP
3FFFFFE0
3E0F07C0
300F01C0
601E00C0
601E0080
401E0080
001C0000
003C0000
003C0000
003C0600
00787FC0
0079FFF0
007B80F8
007E00F8
00F8007C
00F0007C
00E0007C
01E0007C
01E0007C
01E00078
03C000F8
03C000F8
03C000F0
038001F0
078001E0
078003C0
0F800780
0FC00F00
FFF9FC00
ENDCHAR
STARTCHAR 0403
ENCODING 1027
SWIDTH 562 0
DWIDTH 25 0
BBX 30 39 -1 0
BITMAP
00000F00
00001F00
00001E00
00001C00
00003800
00003000
00002000
00000000
00000000
00000000
00FFFFFC
001E003C
001E001C
001E0018
001C0008
003C0008
003C0010
003C0000
00780000
00780000
00780000
00700000
00F00000
00F00000
00E00000
01E00000
01E00000
01E00000
03C00000
03C00000
03C00000
03800000
07800000
07800000
07800000
0F000000
0F000000
1F800000
FFF00000
ENDCHAR
STARTCHAR 0404
ENCODING 1028
SWIDTH 675 0
DWIDTH 30 0
BBX 28 31 3 -1
BITMAP
0001FC10
000F8FF0
003C01F0
00F000F0
01E00060
03C00060
07800060
0F000060
1F000040
1E000000
3E000000
3C000000
7C000000
7C000000
7FFF0000
FFFE0000
F8000000
F8000000
F8000000
F8000000
F8000000
F8000000
78000000
78000100
7C000100
3E000200
1E000C00
1F801800
07E0F000
03FFC000
003C0000
ENDCHAR
STARTCHAR 0405
ENCODING 1029
SWIDTH 495 0
DWIDTH 22 0
BBX 24 31 0 -1
BITMAP
001FC1
007FF3
00F03E
01E00E
01C00E
03C006
03C006
03C004
03C004
03E004
01F000
01F800
00FC00
007E00
003F00
001F80
000FC0
0007E0
0003E0
0003F0
2001F0
2000F0
2000F0
2000F0
3000F0
7000E0
7801E0
7C03C0
7E0780
47FE00
807000
ENDCHAR
STARTCHAR 0406
ENCODING 1030
SWIDTH 337 0
DWIDTH 15 0
BBX 19 29 -1 0
BITMAP
00FFE0
001F00
001E00
001E00
001C00
003C00
003C00
003C00
007800
007800
007800
007000
00F000
00F000
00F000
01E000
01E000
01E000
01C000
03C000
03C000
03C000
078000
078000
078000
0F0000
0F0000
1F8000
FFF000
ENDCHAR
STARTCHAR 0407
ENCODING 1031
SWIDTH 337 0
DWIDTH 15 0
BBX 21 37 -1 0
BITMAP
007070
0078F8
00F8F8
007870
000020
000000
000000
000000
00FFE0
001F00
001E00
001E00
001C00
003C00
003C00
003C00
007800
007800
007800
007000
00F000
00F000
00F000
01E000
01E000
01E000
01C000
03C000
03C000
03C000
078000
078000
078000
0F0000
0F0000
1F8000
FFF000
ENDCHAR
STARTCHAR 0408
ENCODING 1032
SWIDTH 450 0
DWIDTH 20 0
BBX 26 30 -2 -1
BITMAP
0001FFC0
00003E00
00003C00
00003C00
00007800
00007800
00007800
00007000
0000F000
0000F000
0000F000
0001E000
0001E000
0001E000
0001C000
0003C000
0003C000
0003C000
00078000
00078000
00078000
00070000
000F0000
780E0000
781E0000
F81C0000
78380000
70F00000
3FE00000
0E000000
ENDCHAR
STARTCHAR 0409
ENCODING 1033
SWIDTH 922 0
DWIDTH 41 0
BBX 40 29 -1 0
BITMAP
000FFFFFC0
0003803E00
0001003C00
0003003C00
0003003800
0003007800
0002007800
0006007800
000600F000
000400F000
000C00F000
000C00E000
000801E000
001801FFF0
001801E1F8
001003C07C
003003C03E
003003C01F
002007801F
006007801F
006007801F
004007001F
00C00F001F
00C00F001E
F1800F003E
F1801E007C
F3001E01F8
FE003FFFE0
7C01FFFF80
ENDCHAR
STARTCHAR 040A
ENCODING 1034
SWIDTH 922 0
DWIDTH 41 0
BBX 40 29 -1 0
BITMAP
00FFE1FFC0
001F003E00
001E003C00
001E003C00
001C007800
003C007800
003C007800
003C00F000
007800F000
007800F000
007800E000
007001E000
00F001E000
00FFFFFFE0
00F003C3F8
01E003C07C
01E003C03E
01E007801E
01C007801F
03C007801F
03C007801F
03800F001F
07800F001E
07800F003E
07801E003C
0F001E007C
0F001E01F8
1F803FFFE0
FFF1FFFF00
ENDCHAR
STARTCHAR 040B
ENCODING 1035
SWIDTH 810 0
DWIDTH 36 0
BBX 28 29 4 0
BITMAP
3FFFFFE0
3E0F07C0
380F01C0
601E00C0
601E0080
401E0080
001C0000
003C0000
003C0000
003C0600
00787FC0
0079F7E0
007B81F0
007600F0
00FC00F0
00F000F0
00F000F0
01E000F0
01E000E0
01E001E0
01C001E0
03C001C0
03C003C0
03C003C0
078003C0
07800380
07800780
0FC00FC0
FFF87FF0
ENDCHAR
STARTCHAR 040C
ENCODING 1036
SWIDTH 675 0
DWIDTH 30 0
BBX 33 39 -1 0
BITMAP
000003C000
0000078000
0000070000
0000070000
00000E0000
00000C0000
0000080000
0000000000
0000000000
0000000E00
00FFF03F80
001F003F80
001E006780
001E00C780
001C00C000
003C018000
003C018000
003C030000
0078030000
0078060000
0078040000
00701C0000
00F0780000
00FFE00000
00F7E00000
01E1E00000
01E0F00000
01E0F00000
01C0780000
03C0780000
03C03C0000
03C03C0000
07803E0000
07801E0000
07801E0000
07000F0000
0F000F8000
1F8007C000
FFF007F000
ENDCHAR
STARTCHAR 040D
ENCODING 1037
SWIDTH 720 0
DWIDTH 32 0
BBX 37 39 -1 0
BITMAP
00003C0000
00001C0000
00001E0000
00000E0000
0000060000
0000030000
0000010000
0000000000
0000000000
0000000000
00FFE03FF8
001F000F80
001E000F80
001E000F00
001E001F00
003C003F00
003C007E00
003C00DE00
0078019E00
0078031C00
0078063C00
00700C3C00
00F0183C00
00F0307800
00E0607800
01E0C07800
01E1807000
01E300F000
03C600F000
03CC00F000
03D801E000
03B001E000
07F001E000
07E003C000
07C003C000
0F8003C000
0F0007C000
1F8007C000
FFF07FF800
ENDCHAR
STARTCHAR 040E
ENCODING 1038
SWIDTH 675 0
DWIDTH 30 0
BBX 29 39 5 -1
BITMAP
00100200
00380700
00380F00
003C1E00
001E1C00
0007F000
00000000
00000000
00000000
7FE007F8
1F0001C0
1F000180
0F000180
0F000300
0F000200
07800600
07800C00
07800C00
07801800
03C03000
03C03000
03C06000
01C04000
01E0C000
01E18000
01E18000
00E30000
00F20000
00F60000
00FC0000
007C0000
00780000
00700000
F0700000
F0600000
F0400000
F9800000
7F000000
0C000000
ENDCHAR
STARTCHAR 040F
ENCODING 1039
SWIDTH 720 0
DWIDTH 32 0
BBX 37 38 -1 -9
BITMAP
00FFE03FF8
001F000F80
001E000F80
001E000F00
001C000F00
003C000F00
003C001E00
003C001E00
0078001E00
0078001C00
0078003C00
0070003C00
00F0003C00
00F0007800
00F0007800
01E0007800
01E000F000
01E000F000
03C000F000
03C000E000
03C001E000
038001E000
078001E000
078003C000
078003C000
0F0003C000
0F8007C000
1FF07FC000
FFFFFFF800
003FC00000
001F000000
000E000000
000C000000
000C000000
0008000000
0008000000
0010000000
0010000000
ENDCHAR
STARTCHAR 0410
ENCODING 1040
SWIDTH 607 0
DWIDTH 27 0
BBX 26 30 -2 0
BITMAP
00000080
00000180
00000380
00000780
00000700
00000F00
00001F00
00001700
00003F00
00006F00
0000CF00
00008F00
00018F00
00030F00
00060F00
00040E00
000C0E00
00180E00
00301E00
003FFE00
00601E00
00C01E00
00801E00
01801E00
03001E00
06001E00
0E001C00
0C003E00
3E003E00
FF81FFC0
ENDCHAR
STARTCHAR 0411
ENCODING 1041
SWIDTH 585 0
DWIDTH 26 0
BBX 29 29 -1 0
BITMAP
00FFFFF8
001E00F0
001E0030
001E0030
001C0020
003C0020
003C0020
003C0000
00780000
00780000
00780000
00700000
00F00000
00FFF800
00F0FC00
01E03E00
01E01F00
01E00F80
03C00F80
03C00F80
03C00F80
03C00F80
07800F80
07800F00
07801F00
0F003E00
0F00FC00
1FFFF000
FFFFC000
ENDCHAR
STARTCHAR 0412
ENCODING 1042
SWIDTH 607 0
DWIDTH 27 0
BBX 27 29 -1 0
BITMAP
00FFFE00
001E0F80
001E03C0
001E03E0
001C01E0
003C01E0
003C01E0
003801E0
003803E0
007803C0
00780780
00700F00
00F1FC00
00FFF000
00E0FC00
01E03E00
01E01F00
01C00F00
01C00F80
03C00F80
03C00F80
03800F00
07800F00
07801F00
07003E00
0F007C00
0F00F800
1FFFF000
FFFF8000
ENDCHAR
STARTCHAR 0413
ENCODING 1043
SWIDTH 562 0
DWIDTH 25 0
BBX 30 29 -1 0
BITMAP
00FFFFFC
001E003C
001E001C
001E0018
001C0008
003C0008
003C0010
003C0000
00780000
00780000
00780000
00700000
00F00000
00F00000
00E00000
01E00000
01E00000
01E00000
03C00000
03C00000
03C00000
03800000
07800000
07800000
07800000
0F000000
0F000000
1F800000
FFF00000
ENDCHAR
STARTCHAR 0414
ENCODING 1044
SWIDTH 630 0
DWIDTH 28 0
BBX 37 38 -5 -9
BITMAP
0003FFFFF8
00006007C0
0000600780
0000400780
0000400F00
0000C00F00
0000C00F00
0000801E00
0000801E00
0001801E00
0001801C00
0001003C00
0003003C00
0003003C00
0002007800
0006007800
0004007800
000C007000
000C00F000
000800F000
001800E000
001001E000
003001E000
006001E000
006003C000
00C003C000
018007C000
03803FE000
1FFFFFF800
1F0000F800
3C00003800
3800003800
3000001000
2000001000
4000001000
4000002000
4000002000
8000002000
ENDCHAR
STARTCHAR 0415
ENCODING 1045
SWIDTH 607 0
DWIDTH 27 0
BBX 29 29 -1 0
BITMAP
00FFFFF8
001E01F8
001E0030
001E0030
001C0010
003C0010
003C0020
003C0000
00780000
00780400
00780C00
00700800
00F03800
00FFF800
00F0F000
01E03000
01E01000
01E01000
01C02000
03C00000
03C00000
03C00080
07800080
07800180
07800300
0F000700
0F001F00
1FE3FE00
FFFFFE00
ENDCHAR
STARTCHAR 0416
ENCODING 1046
SWIDTH 922 0
DWIDTH 41 0
BBX 45 30 -2 0
BITMAP
003800000070
007E03FF81F8
00FE007C03F8
00FB007803F8
007300780678
000300780400
000300F00C00
000300F00800
000300F01800
000301E01000
000301E03000
000301E02000
000101C06000
0001C3C1C000
0000FFFF0000
0003FBFF0000
0007C78F0000
000F87878000
001F07878000
003E0703C000
007C0F03C000
00F80F03E000
00F00F01E000
01F01E01E000
03E01E00F000
07C01E00F000
0F803C007800
1F003C007C00
3E007E003C00
FE03FFC03F80
ENDCHAR
STARTCHAR 0417
ENCODING 1047
SWIDTH 495 0
DWIDTH 22 0
BBX 22 31 0 -1
BITMAP
019FC0
01FFF0
01C078
038078
03007C
02003C
04003C
04007C
000078
000078
0000F0
0001E0
0003C0
000F80
007E00
001F80
0003C0
0003E0
0001E0
0001F0
0001F0
0001F0
0001E0
0001E0
0003E0
0003C0
000780
C00F00
701E00
1FFC00
03C000
ENDCHAR
STARTCHAR 0418
ENCODING 1048
SWIDTH 720 0
DWIDTH 32 0
BBX 37 29 -1 0
BITMAP
00FFE03FF8
001F000F80
001E000F80
001E000F00
001E001F00
003C003F00
003C007E00
003C00DE00
0078019E00
0078031C00
0078063C00
00700C3C00
00F0183C00
00F0307800
00E0607800
01E0C07800
01E1807000
01E300F000
03C600F000
03CC00F000
03D801E000
03B001E000
07F001E000
07E003C000
07C003C000
0F8003C000
0F0007C000
1F8007C000
FFF07FF800
ENDCHAR
STARTCHAR 0419
ENCODING 1049
SWIDTH 720 0
DWIDTH 32 0
BBX 37 38 -1 0
BITMAP
0000300600
0000380F00
0000380F00
00003C1E00
00001E1C00
00000FF000
0000000000
0000000000
0000000000
00FFE03FF8
001F000F80
001E000F80
001E000F00
001E001F00
003C003F00
003C007E00
003C00DE00
0078019E00
0078031C00
0078063C00
00700C3C00
00F0183C00
00F0307800
00E0607800
01E0C07800
01E1807000
01E300F000
03C600F000
03CC00F000
03D801E000
03B001E000
07F001E000
07E003C000
07C003C000
0F8003C000
0F0007C000
1F8007C000
FFF07FF800
ENDCHAR
STARTCHAR 041A
ENCODING 1050
SWIDTH 675 0
DWIDTH 30 0
BBX 33 30 -1 0
BITMAP
0000000E00
00FFF03F80
001F003F80
001E006780
001E00C780
001C00C000
003C018000
003C018000
003C030000
0078030000
0078060000
0078040000
00701C0000
00F0780000
00FFE00000
00F7E00000
01E1E00000
01E0F00000
01E0F00000
01C0780000
03C0780000
03C03C0000
03C03C0000
07803E0000
07801E0000
07801E0000
07000F0000
0F000F8000
1F8007C000
FFF007F000
ENDCHAR
STARTCHAR 041B
ENCODING 1051
SWIDTH 675 0
DWIDTH 30 0
BBX 35 29 -2 0
BITMAP
0007FFFFE0
0001800F00
0001800F00
0001801E00
0001801E00
0001801E00
0001003C00
0003003C00
0003003C00
0003003800
0002007800
0006007800
0006007800
000400F000
000C00F000
000C00F000
000801E000
001801E000
001801E000
001001C000
003003C000
003003C000
002003C000
0060078000
7040078000
F8C0078000
78800F8000
7F800F8000
3E007FF000
ENDCHAR
STARTCHAR 041C
ENCODING 1052
SWIDTH 832 0
DWIDTH 37 0
BBX 42 29 -1 0
BITMAP
00FE00003FC0
001E00007C00
001E00007C00
001F0000F800
001F0001F800
003F00017800
003F0003F000
002F0006F000
006F000CF000
006F000DE000
00470019E000
00C70031E000
00C78021E000
00C78063C000
008780C3C000
01878183C000
018781878000
010783078000
030386078000
03038C070000
03038C0F0000
0203D80F0000
0603F00F0000
0603F00E0000
0403E01E0000
0C03C01E0000
0C03803E0000
1E01803E0000
FF8103FFC000
ENDCHAR
STARTCHAR 041D
ENCODING 1053
SWIDTH 720 0
DWIDTH 32 0
BBX 37 29 -1 0
BITMAP
00FFE07FF8
001F000F80
001E000F80
001E000F00
001C000F00
003C000F00
003C001E00
0038001E00
0078001E00
0078003C00
0078003C00
00F0003C00
00F0003800
00FFFFF800
00E0007800
01E0007800
01E0007000
01E000F000
03C000F000
03C000E000
03C001E000
038001E000
078001E000
078003C000
078003C000
0F0003C000
0F0007C000
1F8007C000
FFE03FF800
ENDCHAR
STARTCHAR 041E
ENCODING 1054
SWIDTH 720 0
DWIDTH 32 0
BBX 29 31 3 -1
BITMAP
0001FE00
000F0F80
003C03C0
007001E0
00E001E0
03C000F0
078000F0
078000F8
0F0000F8
1E0000F8
1E0000F8
3C0000F8
3C0000F8
7C0000F8
780000F0
F80001F0
F80001F0
F80001E0
F00003E0
F00003C0
F00007C0
F0000780
F0000F80
F0000F00
F8001E00
78003C00
7C007800
3C00F000
1E03C000
07FF0000
00F00000
ENDCHAR
STARTCHAR 041F
ENCODING 1055
SWIDTH 720 0
DWIDTH 32 0
BBX 36 29 -1 0
BITMAP
00FFFFFFF0
001E000780
001E000780
001E000F00
001C000F00
003C000F00
003C001E00
003C001E00
0078001E00
0078001C00
0078003C00
0070003C00
00F0003C00
00F0007800
00F0007800
01E0007800
01E000F000
01E000F000
03C000F000
03C000E000
03C001E000
03C001E000
078001E000
078003C000
078003C000
0F8003C000
0F8007C000
1F800FC000
FFF07FF800
ENDCHAR
STARTCHAR 0420
ENCODING 1056
SWIDTH 607 0
DWIDTH 27 0
BBX 29 29 -1 0
BITMAP
00FFFF80
001F07C0
001E01E0
001E00F0
001E00F0
003C00F8
003C00F8
003C00F8
003800F0
007800F0
007801E0
007803E0
00F00780
00F81F00
00FFFC00
01E00000
01E00000
01E00000
01E00000
03C00000
03C00000
03C00000
07800000
07800000
07800000
07800000
0F000000
1F800000
FFF00000
ENDCHAR
STARTCHAR 0421
ENCODING 1057
SWIDTH 675 0
DWIDTH 30 0
BBX 28 31 3 -1
BITMAP
0003FC10
000F8FF0
003C01F0
00F000E0
01E00060
03C00060
07800060
0F000060
1F000040
1E000000
3E000000
3C000000
7C000000
78000000
78000000
F8000000
F8000000
F8000000
F8000000
F8000000
F8000000
F8000000
F8000000
78000100
7C000300
3C000600
3E000C00
1F801800
07E0F000
03FFC000
003C0000
ENDCHAR
STARTCHAR 0422
ENCODING 1058
SWIDTH 562 0
DWIDTH 25 0
BBX 26 29 3 0
BITMAP
1FFFFFC0
1F0F0780
180F0180
300E0180
201E0100
201E0100
201C0100
003C0000
003C0000
003C0000
00780000
00780000
00780000
00700000
00F00000
00F00000
00F00000
01E00000
01E00000
01E00000
01C00000
03C00000
03C00000
03C00000
07800000
07800000
07800000
0FC00000
FFF80000
ENDCHAR
STARTCHAR 0423
ENCODING 1059
SWIDTH 675 0
DWIDTH 30 0
BBX 29 30 5 -1
BITMAP
7FE007F8
1F0001C0
1F000180
0F000180
0F000300
0F000200
07800600
07800C00
07800C00
07801800
03C03000
03C03000
03C06000
01C04000
01E0C000
01E18000
01E18000
00E30000
00F20000
00F60000
00FC0000
007C0000
00780000
00700000
F0700000
F0600000
F0400000
F9800000
7F000000
0C000000
ENDCHAR
STARTCHAR 0424
ENCODING 1060
SWIDTH 810 0
DWIDTH 36 0
BBX 32 29 3 0
BITMAP
0001FFC0
00007C00
00007C00
00007800
000FFFC0
007E79F0
01E0703C
0780F01E
0F00F00E
1E00F00F
3E01E00F
3C01E00F
7801E00F
7803C00F
F803C00F
F003C01F
F003C01E
F007803E
7007803C
78078078
780F00F0
3C0F01E0
1E0F0780
07CE7E00
00FFC000
001E0000
001E0000
003E0000
01FFC000
ENDCHAR
STARTCHAR 0425
ENCODING 1061
SWIDTH 607 0
DWIDTH 27 0
BBX 35 29 -3 0
BITMAP
003FF03FE0
000F800F00
0007800E00
0007801C00
0003C01800
0003C03000
0003C06000
0001C0C000
0001E18000
0001E30000
0001E60000
0000FC0000
0000F80000
0000F00000
0000F00000
0000F80000
0001F80000
0003780000
00063C0000
000C3C0000
00183C0000
00301C0000
00601E0000
00C01E0000
01801E0000
03000F0000
07000F0000
1F001F8000
FFC0FFF000
ENDCHAR
STARTCHAR 0426
ENCODING 1062
SWIDTH 720 0
DWIDTH 32 0
BBX 37 38 -1 -9
BITMAP
00FFE07FF8
001F000F80
001E000F80
001E000F00
001E000F00
003C000F00
003C001E00
003C001E00
0078001E00
0078001C00
0078003C00
0070003C00
00F0003C00
00F0007800
00F0007800
01E0007800
01E0007000
01E000F000
03C000F000
03C000E000
03C001E000
038001E000
078001E000
078003C000
078003C000
0F8003C000
0F8007C000
1FF07FE000
FFFFFFF800
000000F800
0000007800
0000003800
0000003000
0000003000
0000003000
0000002000
0000002000
0000002000
ENDCHAR
STARTCHAR 0427
ENCODING 1063
SWIDTH 697 0
DWIDTH 31 0
BBX 29 29 5 0
BITMAP
FFE03FF8
1F0007C0
1F000780
1E000780
1E000700
1E000F00
1C000F00
3C000F00
3C001E00
3C001E00
38001E00
78001C00
78003C00
3C003C00
3E00F800
1FFFF800
0FFC7800
00007800
00007000
0000F000
0000F000
0000E000
0001E000
0001E000
0001E000
0003C000
0003C000
0007E000
003FFC00
ENDCHAR
STARTCHAR 0428
ENCODING 1064
SWIDTH 1035 0
DWIDTH 46 0
BBX 49 29 0 0
BITMAP
01FFC0FF80FF80
003E003E007E00
003C003C003C00
003C003C007C00
003C0078007800
00780078007800
00780078007800
007800F000F000
00F000F000F000
00F000F000F000
00F000F000E000
00E001E001E000
01E001E001E000
01E001E001E000
01C003C003C000
03C003C003C000
03C003C003C000
03C00380078000
07800780078000
07800780078000
07800780070000
07000F000F0000
0F000F000F0000
0F000F000F0000
0F001E001E0000
1E001E001E0000
1F001E003E0000
3FC3FFE1FF0000
FFFFFFFFFFE000
ENDCHAR
STARTCHAR 0429
ENCODING 1065
SWIDTH 1035 0
DWIDTH 46 0
BBX 49 38 0 -9
BITMAP
01FFC0FF80FF80
003E003E007E00
003C003C003C00
003C003C007C00
003C0078007800
00780078007800
00780078007800
007800F000F000
00F000F000F000
00F000F000F000
00F000F000E000
00E001E001E000
01E001E001E000
01E001E001E000
01C003C003C000
03C003C003C000
03C003C003C000
03C00380078000
07800780078000
07800780078000
07800780070000
07000F000F0000
0F000F000F0000
0F000F000F0000
0F000E001E0000
1E001E001E0000
1F001E003E0000
3FC3FFE1FF0000
FFFFFFFFFFE000
0000000007C000
0000000003C000
0000000001C000
00000000018000
00000000018000
00000000008000
00000000008000
00000000010000
00000000010000
ENDCHAR
STARTCHAR 042A
ENCODING 1066
SWIDTH 675 0
DWIDTH 30 0
BBX 25 29 3 0
BITMAP
1FFFE000
1E1F0000
181E0000
301E0000
203C0000
203C0000
203C0000
00380000
00780000
00780000
00780000
00F00000
00F00000
00FFF800
01E0FC00
01E03E00
01E01F00
01C00F00
03C00F80
03C00F80
03C00F80
07800F80
07800F00
07801F00
07001E00
0F003E00
0F00FC00
1FFFF000
FFFFC000
ENDCHAR
STARTCHAR 042B
ENCODING 1067
SWIDTH 877 0
DWIDTH 39 0
BBX 43 29 -1 0
BITMAP
007FE000FFE0
001F00001F00
001E00001E00
001E00001E00
001E00001E00
003C00001C00
003C00003C00
003C00003C00
007800003C00
007800007800
007800007800
007000007800
00F000007000
00FFF800F000
00F0FC00F000
01E03E00F000
01E01F01E000
01E00F81E000
03C00F81E000
03C00F81C000
03C00F83C000
03C00F83C000
07800F83C000
07800F078000
07801F078000
0F003E078000
0F00FC0F8000
1FFFF01F8000
FFFFC0FFF000
ENDCHAR
STARTCHAR 042C
ENCODING 1068
SWIDTH 585 0
DWIDTH 26 0
BBX 25 29 -1 0
BITMAP
007FE000
001F0000
001E0000
001E0000
001E0000
003C0000
003C0000
003C0000
00780000
00780000
00780000
00700000
00F00000
00FFF800
00F0FC00
01E03E00
01E01F00
01E00F80
03C00F80
03C00F80
03C00F80
03C00F80
07800F80
07800F00
07801F00
0F003E00
0F00FC00
1FFFF000
FFFFC000
ENDCHAR
STARTCHAR 042D
ENCODING 1069
SWIDTH 652 0
DWIDTH 29 0
BBX 28 31 1 -1
BITMAP
020FF000
03FCFC00
03C01F00
07800F80
07000780
060003C0
0C0003C0
080003E0
000001E0
000001E0
000001E0
000001F0
000001F0
000001E0
000FFFE0
000FFFE0
000001E0
000003E0
000003C0
000003C0
000007C0
00000780
00000F00
80000F00
C0001E00
60003C00
30007800
1C00F000
0F87E000
03FF8000
00380000
ENDCHAR
STARTCHAR 042E
ENCODING 1070
SWIDTH 1035 0
DWIDTH 46 0
BBX 47 31 -1 -1
BITMAP
000000007F00
00FFE003E3E0
001F000E00F0
001E001C0078
001E00780078
001C00F0003C
003C01E0003C
003C03E0003C
003C03C0003E
00780780003E
00780F80003E
00780F00003E
00701F00003E
00F01E00003C
00F01E00003C
00FFFE00007C
01E03E00007C
01E03C000078
01E03C0000F8
01C03C0000F0
03C03C0001F0
03C03C0001E0
03803C0003C0
07803C0007C0
07803C000780
07801E000F00
0F001E001E00
0F000F003800
1F800780F000
FFF003FFC000
0000007C0000
ENDCHAR
STARTCHAR 042F
ENCODING 1071
SWIDTH 652 0
DWIDTH 29 0
BBX 35 29 -2 0
BITMAP
0000FFFFE0
0003E01F00
0007801E00
000F003C00
001F003C00
003E003C00
003E007800
003E007800
003E007800
003E007000
001E00F000
001F00F000
000F80F000
0003FFE000
0001FFE000
0007C1E000
000F81C000
001F03C000
003E03C000
007C03C000
0078038000
00F8078000
01F0078000
03E0070000
07C00F0000
0F800F0000
1F000F0000
3E001F0000
FE00FFE000
ENDCHAR
STARTCHAR 0430
ENCODING 1072
SWIDTH 495 0
DWIDTH 22 0
BBX 20 21 1 -1
BITMAP
001810
00FEF0
01C2E0
0301E0
0701E0
0E01C0
1C01C0
1C01C0
3803C0
380380
700380
700780
F00700
F00F00
F01F00
F03F00
F06E20
F8CE40
7F8F80
7E0F00
000400
ENDCHAR
STARTCHAR 0431
ENCODING 1073
SWIDTH 495 0
DWIDTH 22 0
BBX 21 32 2 -1
BITMAP
000008
000038
001FF0
007FE0
00FFC0
01E000
030000
060000
040000
080000
080000
101800
10E700
238180
2601C0
6E01C0
5C01E0
7801E0
F801E0
F001E0
F001E0
F003C0
E003C0
E003C0
E00780
E00780
E00F00
E00E00
601C00
703800
3FE000
020000
ENDCHAR
STARTCHAR 0432
ENCODING 1074
SWIDTH 427 0
DWIDTH 19 0
BBX 18 21 1 -1
BITMAP
000C00
00E780
0383C0
0701C0
0F03C0
1E0380
3C0700
3C0E00
783800
79C000
7FF800
701E00
F01E00
F00F00
F00F00
700E00
701E00
701C00
383800
1CF000
030000
ENDCHAR
STARTCHAR 0433
ENCODING 1075
SWIDTH 382 0
DWIDTH 17 0
BBX 17 20 0 -1
BITMAP
003000
01FF00
060F80
080780
000380
000380
000700
000E00
001C00
007000
018000
0E0000
1C0000
780000
700000
F00000
F00200
F00400
781800
3FE000
ENDCHAR
STARTCHAR 0434
ENCODING 1076
SWIDTH 495 0
DWIDTH 22 0
BBX 20 31 1 -1
BITMAP
004000
003000
001800
000600
000300
000380
000180
0001C0
0000C0
0000E0
0000E0
0018F0
00FFF0
01C1F0
0700F0
0F00F0
1E00F0
1C00F0
3C00F0
3800F0
7800F0
7801E0
7001E0
F001C0
F003C0
F00380
700700
700F00
701E00
383800
1FF000
ENDCHAR
STARTCHAR 0435
ENCODING 1077
SWIDTH 450 0
DWIDTH 20 0
BBX 18 20 1 -1
BITMAP
000600
007780
01C1C0
0301C0
0601C0
0E03C0
1C0380
3C0700
380E00
783800
7BE000
7E0000
700000
F00000
F00000
780100
780200
7C0C00
3FF800
1FE000
ENDCHAR
STARTCHAR 0436
ENCODING 1078
SWIDTH 922 0
DWIDTH 41 0
BBX 41 21 0 -1
BITMAP
006000000C00
03FC07807700
063E0701C380
081F07038380
100F07070780
200F0F0E0780
00070E1E0300
00070E1C0000
00071E3C0000
000F1C380000
000FFFF80000
000E1C780000
000E3C780000
001C38780000
601C38780000
F03878780200
F07070780400
E060703C0800
E1C0703F3000
7700F01FE000
080000000000
ENDCHAR
STARTCHAR 0437
ENCODING 1079
SWIDTH 382 0
DWIDTH 17 0
BBX 17 20 -1 -1
BITMAP
041800
07FF00
060780
040380
080380
080380
000780
000F00
003C00
03C000
003800
001C00
000E00
000E00
000E00
001E00
801E00
403C00
70F800
1FE000
ENDCHAR
STARTCHAR 0438
ENCODING 1080
SWIDTH 495 0
DWIDTH 22 0
BBX 19 21 2 -1
BITMAP
040000
1E01E0
7E01C0
CE01C0
9E01C0
1E03C0
1C0380
1C0780
3C0780
380F00
380F00
781700
701F00
702E00
704E00
F08E00
E19C40
F31C80
FE1F00
F81E00
200000
ENDCHAR
STARTCHAR 0439
ENCODING 1081
SWIDTH 495 0
DWIDTH 22 0
BBX 19 31 2 -1
BITMAP
00C020
01E020
01F040
00F980
007F00
001800
000000
000000
000000
000000
040000
3E01E0
7E01C0
CE01C0
9E01C0
1E03C0
1C0380
1C0780
3C0780
380F00
380F00
781700
703F00
702E00
704E00
F08E00
E19C40
F31C80
FE1F00
F81E00
200800
ENDCHAR
STARTCHAR 043A
ENCODING 1082
SWIDTH 472 0
DWIDTH 21 0
BBX 20 20 1 0
BITMAP
0180C0
3F01E0
0F03F0
0F06F0
0F0460
0E0C00
0E0800
1E1800
1C3000
1C6000
1FC000
3CE000
387000
387800
783800
703C00
701C00
701E00
E00F00
E00FC0
ENDCHAR
STARTCHAR 043B
ENCODING 1083
SWIDTH 427 0
DWIDTH 19 0
BBX 20 20 -2 -1
BITMAP
01FFF0
0070F0
0020E0
0020E0
0041E0
0041C0
0041C0
0083C0
008380
008380
010380
010780
010700
020700
020F00
040E20
640E40
F80F80
F80F00
000400
ENDCHAR
STARTCHAR 043C
ENCODING 1084
SWIDTH 630 0
DWIDTH 28 0
BBX 29 21 -2 -1
BITMAP
00040000
00FC0078
013E00F0
003E00F0
003E0170
005E02F0
004E02E0
004E04E0
008E09E0
008E09E0
008E11C0
010E21C0
010E23C0
010E4380
020E8380
020E8780
060F0790
640E0720
F80E07C0
F00C0780
00080200
ENDCHAR
STARTCHAR 043D
ENCODING 1085
SWIDTH 495 0
DWIDTH 22 0
BBX 19 20 1 -1
BITMAP
018000
3F80E0
0F00E0
0701E0
0F01C0
0E01C0
0E01C0
0E03C0
1E0380
1FFF80
1FFF80
3C0700
380700
380700
780F00
700E20
700E60
700EC0
F01F80
E00F00
ENDCHAR
STARTCHAR 043E
ENCODING 1086
SWIDTH 495 0
DWIDTH 22 0
BBX 20 20 1 -1
BITMAP
000C00
00FF80
01C1C0
0700E0
0F00E0
1E00E0
1C00F0
3C00F0
3800E0
7800E0
7801E0
7001E0
F001C0
F003C0
F00380
F00780
700F00
701E00
383800
1FE000
ENDCHAR
STARTCHAR 043F
ENCODING 1087
SWIDTH 495 0
DWIDTH 22 0
BBX 19 20 1 -1
BITMAP
008080
3F07C0
0F0FE0
0F19E0
0F21E0
0E41C0
0E41C0
1E81C0
1D03C0
1F0380
1E0380
3C0780
3C0700
380700
780700
700F20
700E20
700E40
F00F80
E00F00
ENDCHAR
STARTCHAR 0440
ENCODING 1088
SWIDTH 495 0
DWIDTH 22 0
BBX 26 30 -5 -10
BITMAP
00020C00
01FC3F00
003CC780
003D03C0
003E03C0
003E03C0
003C03C0
007803C0
007803C0
00700380
00700780
00F00780
00E00700
00E00F00
01E00E00
01C01C00
01C03800
01C07000
03E0E000
03FF8000
03800000
07800000
07000000
07000000
07000000
0F000000
0E000000
1E000000
3F000000
FFC00000
ENDCHAR
STARTCHAR 0441
ENCODING 1089
SWIDTH 450 0
DWIDTH 20 0
BBX 18 20 1 -1
BITMAP
000E00
007B80
01C0C0
0301C0
0E03C0
0E0380
1C0180
380000
380000
780000
700000
700000
F00000
F00000
F00000
F00100
780200
780C00
3F7800
1FE000
ENDCHAR
STARTCHAR 0442
ENCODING 1090
SWIDTH 720 0
DWIDTH 32 0
BBX 29 20 1 -1
BITMAP
00810020
3F0FC1F0
4F1FC3F0
0F33C670
0E63CC70
0E439870
0E8390F0
1F03A0F0
1D07C0E0
1E0740E0
3C0781E0
3C0781C0
380F01C0
380F03C0
780E03C0
701E0388
701E0390
F01C07B0
E01C07E0
E03C07C0
ENDCHAR
STARTCHAR 0443
ENCODING 1091
SWIDTH 450 0
DWIDTH 20 0
BBX 23 30 -4 -10
BITMAP
000004
01F00E
07F01E
00700E
007006
007802
007806
007804
00380C
003808
003810
003830
003820
003840
003880
003980
003D00
003E00
003C00
001C00
001800
001000
002000
004000
008000
010000
720000
FC0000
780000
200000
ENDCHAR
STARTCHAR 0444
ENCODING 1092
SWIDTH 720 0
DWIDTH 32 0
BBX 29 41 1 -10
BITMAP
00000C00
0001FC00
00003C00
00003800
00003800
00003800
00007800
00007000
00007000
0000F000
0000E000
0018E300
01FCEFE0
0383D070
0703E070
0E03E038
1E03C038
1C03C038
3C038078
38038078
78070078
78070078
700700F0
F00F00F0
F00E01E0
F00E01E0
F01E01C0
701E0380
703E0700
305F0E00
1FBDFC00
00380000
00380000
00780000
00700000
00700000
00700000
00F00000
00F00000
03F80000
0FFE0000
ENDCHAR
STARTCHAR 0445
ENCODING 1093
SWIDTH 450 0
DWIDTH 20 0
BBX 21 21 -2 -1
BITMAP
004010
0FE078
01E0F8
00F1B8
007200
007600
007C00
007800
003800
003800
003800
003C00
005C00
00DC00
009C00
011E10
030E20
660E40
FC0FC0
780700
200000
ENDCHAR
STARTCHAR 0446
ENCODING 1094
SWIDTH 495 0
DWIDTH 22 0
BBX 19 28 2 -9
BITMAP
040000
3E01E0
7E01C0
CE01C0
9E01C0
1E03C0
1C0380
1C0780
3C0780
380F00
380F00
781700
703F00
702E00
704E00
F08E00
E19C40
F31C80
FE1F80
F81F00
200200
000600
000C00
000E00
000E00
000C00
001C00
003000
ENDCHAR
STARTCHAR 0447
ENCODING 1095
SWIDTH 472 0
DWIDTH 21 0
BBX 18 20 2 -1
BITMAP
020000
FE03C0
3C0380
1C0380
1C0780
3C0700
380700
380F00
780F00
780E00
781E00
3EFE00
1F9C00
001C00
003C00
003880
003880
003900
003E00
003C00
ENDCHAR
STARTCHAR 0448
ENCODING 1096
SWIDTH 765 0
DWIDTH 34 0
BBX 30 21 2 -1
BITMAP
04000000
1E00E01C
3E01E03C
4E01C038
9E01C038
1E03C038
1C038078
1C038070
3C0780F0
3C0780F0
380F01E0
381702E0
781702E0
702E05E0
704E0DC0
70CE19C4
F18E11C8
F31E63D8
FE1FC3F0
7C0F83E0
20040000
ENDCHAR
STARTCHAR 0449
ENCODING 1097
SWIDTH 765 0
DWIDTH 34 0
BBX 30 29 2 -9
BITMAP
04000000
1E00E01C
3E01E03C
4E01C038
9E01C038
1E03C038
1C038078
1C038070
3C0780F0
3C0780F0
380F01E0
381702E0
781702E0
702E05E0
704E0DC0
70CE19C4
F18E11C8
F31E63D8
FE1FC3F0
7C0F83E0
20040020
00000040
000001C0
000001C0
000001C0
000001C0
00000180
00000300
00000400
ENDCHAR
STARTCHAR 044A
ENCODING 1098
SWIDTH 517 0
DWIDTH 23 0
BBX 20 20 1 -1
BITMAP
3FE000
7FE000
7FE000
41C000
81C000
03C000
038300
039FC0
03B3E0
07C0F0
0780F0
0700F0
0F00F0
0E00F0
0E00E0
0E01E0
0E03C0
070700
03CE00
003000
ENDCHAR
STARTCHAR 044B
ENCODING 1099
SWIDTH 675 0
DWIDTH 30 0
BBX 26 21 2 -1
BITMAP
030000C0
7E001FC0
1E000780
1E000380
1C000780
1C000700
1C000700
3C300700
39FC0F00
3B3E0E00
7C0F0E00
780F1E00
700F1C00
700F1C00
F00F1C00
E00E3C40
E01E3880
701C3900
70383E00
3CE03C00
03001000
ENDCHAR
STARTCHAR 044C
ENCODING 1100
SWIDTH 450 0
DWIDTH 20 0
BBX 16 21 2 -1
BITMAP
0300
7E00
1E00
1E00
1C00
1C00
1C00
3C30
39FC
3B3E
7C0F
780F
700F
700F
F00F
E00E
E01E
701C
7038
3CE0
0300
ENDCHAR
STARTCHAR 044D
ENCODING 1101
SWIDTH 450 0
DWIDTH 20 0
BBX 17 21 1 -1
BITMAP
10C000
1FFC00
181E00
300F00
200F00
200700
000780
000780
000780
03FF80
07FF00
000F00
000F00
000F00
001E00
801C00
803C00
407800
71F000
1FC000
020000
ENDCHAR
STARTCHAR 044E
ENCODING 1102
SWIDTH 697 0
DWIDTH 31 0
BBX 29 20 1 -1
BITMAP
00800600
3F803FC0
0F00E0E0
0701C070
0F078070
0E070078
0E0E0078
0E1E0078
1E1C0078
1FFC0070
1FFC00F0
3C3800F0
383800F0
387801E0
387801C0
703803C0
70380780
703C0700
F01C1C00
E00FF800
ENDCHAR
STARTCHAR 044F
ENCODING 1103
SWIDTH 472 0
DWIDTH 21 0
BBX 22 20 -3 -1
BITMAP
0003FC
007F7C
00F03C
01E038
01C038
03C078
03C078
01C070
01E070
007FF0
003FE0
0078E0
00F1E0
01E1E0
03C1C0
0381C4
0783C4
0F03C8
1E03F0
FC03E0
ENDCHAR
STARTCHAR 0451
ENCODING 1105
SWIDTH 450 0
DWIDTH 20 0
BBX 20 29 1 -1
BITMAP
00E0E0
00F1F0
01F1F0
00F1E0
004040
000000
000000
000000
000000
000600
007780
01C1C0
0301C0
0601C0
0E03C0
1C0380
3C0700
380E00
783800
7BE000
7E0000
700000
F00000
F00000
780100
780200
7C0C00
3FF800
1FE000
ENDCHAR
STARTCHAR 0452
ENCODING 1106
SWIDTH 472 0
DWIDTH 21 0
BBX 19 40 1 -10
BITMAP
003000
07F000
00E000
00E000
00E000
01E000
0FFF80
01C000
03C000
038000
038000
078100
0707C0
070FC0
0719E0
0F21E0
0E41E0
0EC1C0
1E81C0
1D03C0
1F03C0
1E03C0
3C0380
3C0780
380780
780700
780F00
700E00
700E00
F01C00
E01C00
003800
003800
007000
006000
00C000
018000
030000
060000
080000
ENDCHAR
STARTCHAR 0453
ENCODING 1107
SWIDTH 382 0
DWIDTH 17 0
BBX 20 30 -2 0
BITMAP
0001E0
0003C0
000380
000380
000300
000600
000400
000000
000000
000000
000000
07FFF0
00E0F0
00E020
01E020
01C020
01C000
01C000
03C000
038000
038000
078000
070000
070000
070000
0F0000
0E0000
0E0000
1E0000
FFC000
ENDCHAR
STARTCHAR 0454
ENCODING 1108
SWIDTH 427 0
DWIDTH 19 0
BBX 19 20 1 -1
BITMAP
000C20
00FFE0
01C1C0
0300C0
0E00C0
0E00C0
1C0000
380000
380000
7FF000
7FE000
F00000
F00000
F00000
F00000
F00100
780200
780C00
3F3800
1FE000
ENDCHAR
STARTCHAR 0455
ENCODING 1109
SWIDTH 382 0
DWIDTH 17 0
BBX 16 21 0 -1
BITMAP
0061
03FF
070F
0E06
0E02
0E02
0F02
0780
07C0
03E0
01F0
01F0
00F8
4078
4038
4038
C038
E030
E070
FDC0
0200
ENDCHAR
STARTCHAR 0456
ENCODING 1110
SWIDTH 270 0
DWIDTH 12 0
BBX 10 28 2 -1
BITMAP
03C0
03C0
03C0
0380
0000
0000
0000
0000
0100
7F00
0F00
0E00
0E00
0E00
1C00
1C00
1C00
3C00
3800
3800
7800
7800
7000
7100
F300
F600
FC00
F800
ENDCHAR
STARTCHAR 0457
ENCODING 1111
SWIDTH 270 0
DWIDTH 12 0
BBX 14 29 2 -1
BITMAP
1C3C
3E3C
3E3C
3C3C
0810
0000
0000
0000
0000
0100
7F00
0F00
0E00
0E00
0E00
1C00
1C00
1C00
3C00
3800
3800
7800
7800
7000
7100
F300
F600
FC00
F800
ENDCHAR
STARTCHAR 0458
ENCODING 1112
SWIDTH 270 0
DWIDTH 12 0
BBX 20 38 -8 -10
BITMAP
000070
0000F0
0000F0
000070
000000
000000
000000
000000
000000
000FC0
0007C0
0003C0
000380
000380
000780
000700
000700
000700
000F00
000E00
000E00
001E00
001C00
001C00
001C00
003C00
003800
003800
007800
007000
007000
007000
00E000
00C000
71C000
E38000
6E0000
300000
ENDCHAR
STARTCHAR 0459
ENCODING 1113
SWIDTH 675 0
DWIDTH 30 0
BBX 30 21 -2 -1
BITMAP
00003000
0003F800
00043800
00087800
00107000
00207000
00207000
0040F0C0
0040E7F0
0080ECF8
0081F03C
0181E03C
0101C03C
0103C03C
0303803C
02038038
02038078
6401C070
FC01C0E0
F800F380
00000C00
ENDCHAR
STARTCHAR 045A
ENCODING 1114
SWIDTH 720 0
DWIDTH 32 0
BBX 29 21 1 -1
BITMAP
00801000
3F83F000
0F05E000
0700E000
0F00E000
0E01E000
0E01C000
1E01C100
1C03CFE0
1FFFB9F0
1FFFE0F0
3C03C078
38078078
38070070
78070070
700700F0
700700E0
700701C0
F0038380
E001CE00
00003000
ENDCHAR
STARTCHAR 045B
ENCODING 1115
SWIDTH 495 0
DWIDTH 22 0
BBX 19 32 1 -1
BITMAP
007000
07F000
00E000
00E000
00E000
01C000
1FFF80
1FFF80
03C000
038000
038000
038080
0707C0
070FE0
0719E0
0F31E0
0E61C0
0E41C0
1E81C0
1D03C0
1F0380
1E0380
3C0780
3C0700
380700
780700
780F20
700E20
700E40
F00F80
E00F00
000400
ENDCHAR
STARTCHAR 045C
ENCODING 1116
SWIDTH 472 0
DWIDTH 21 0
BBX 20 30 1 0
BITMAP
000780
000700
000E00
000E00
000C00
001800
001000
000000
000000
000000
0180C0
3F01E0
0F03F0
0F06F0
0F0460
0E0C00
0E0800
1E1800
1C3000
1C6000
1FC000
3CE000
387000
387800
783800
703C00
701C00
701E00
E00F00
E00FC0
ENDCHAR
STARTCHAR 045D
ENCODING 1117
SWIDTH 495 0
DWIDTH 22 0
BBX 19 31 2 -1
BITMAP
01F000
00F000
007800
003800
001800
000C00
000400
000000
000000
000000
040000
1E01E0
7E01C0
CE01C0
9E01C0
1E03C0
1C0380
1C0780
3C0780
380F00
380F00
781700
701F00
702E00
704E00
F08E00
E19C40
F31C80
FE1F00
F81E00
200000
ENDCHAR
STARTCHAR 045E
ENCODING 1118
SWIDTH 450 0
DWIDTH 20 0
BBX 24 40 -4 -10
BITMAP
000E01
000F02
000F04
000F88
0007F0
000180
000000
000000
000000
000000
000004
01F00E
07F01E
00700E
007006
007802
007806
007804
00380C
003808
003810
003830
003820
003840
003880
003980
003D00
003E00
003C00
001800
001800
001000
002000
004000
008000
010000
720000
FC0000
780000
200000
ENDCHAR
STARTCHAR 045F
ENCODING 1119
SWIDTH 495 0
DWIDTH 22 0
BBX 20 28 1 -9
BITMAP
020000
1F00F0
3F00E0
6700E0
4F00E0
0F01E0
0E01C0
0E03C0
1E03C0
1C0780
1C0780
3C0B80
381780
381700
382700
784700
70CE20
798E40
7F0F80
7E0F00
140000
180000
380000
380000
380000
380000
300000
E00000
ENDCHAR
STARTCHAR 0490
ENCODING 1168
SWIDTH 450 0
DWIDTH 20 0
BBX 27 36 -1 0
BITMAP
00000020
00000020
00000020
00000040
000000C0
000001C0
00007F80
00FFFF80
001E0000
001E0000
001E0000
001C0000
003C0000
003C0000
003C0000
00780000
00780000
00780000
00700000
00F00000
00F00000
00F00000
01E00000
01E00000
01E00000
03C00000
03C00000
03C00000
03800000
07800000
07800000
07800000
0F000000
0F000000
1F800000
FFF00000
ENDCHAR
STARTCHAR 0491
ENCODING 1169
SWIDTH 315 0
DWIDTH 14 0
BBX 15 23 2 -1
BITMAP
0002
0004
0004
7FFC
1FFC
0F00
0E00
0E00
1E00
1C00
1C00
1C00
3C00
3800
3800
7800
7000
7000
7100
F300
E600
FC00
F800
ENDCHAR
STARTCHAR 0492
ENCODING 1170
SWIDTH 562 0
DWIDTH 25 0
BBX 30 29 -1 0
BITMAP
00FFFFFC
001E003C
001E001C
001E0018
001C0008
003C0008
003C0010
003C0000
00780000
00780000
00780000
00700000
00F00000
0FFFF000
00F00000
01E00000
01E00000
01E00000
03C00000
03C00000
03C00000
03800000
07800000
07800000
07800000
0F000000
0F000000
1F800000
FFF00000
ENDCHAR
STARTCHAR 0493
ENCODING 1171
SWIDTH 382 0
DWIDTH 17 0
BBX 17 20 0 -1
BITMAP
003800
01FF00
060780
080780
000380
000380
030700
030E00
019C00
01F000
01C000
0E6000
1C7000
783000
700000
F00000
F00200
F00400
781800
3FE000
ENDCHAR
STARTCHAR 0496
ENCODING 1174
SWIDTH 922 0
DWIDTH 41 0
BBX 45 39 -2 -9
BITMAP
003800000070
007E03FF81F8
00FE007C03F8
00FB007803F8
007300780638
000300780400
000300F00C00
000300F00800
000300F01800
000301E01800
000301E03000
000301E02000
000101C06000
0001C3C1C000
0000FFFF0000
0003FBFE0000
0007C78F0000
000F87878000
001F07878000
003E0703C000
007C0F03C000
00F80F03E000
00F00F01E000
01F01E01E000
03E01E00F000
07C01E00F000
0F803C007800
1F003C007C00
3E007E003C00
FE03FFC03F00
000000000F00
000000000700
000000000700
000000000600
000000000600
000000000600
000000000400
000000000400
000000000400
ENDCHAR
STARTCHAR 0497
ENCODING 1175
SWIDTH 922 0
DWIDTH 41 0
BBX 41 29 0 -9
BITMAP
006000000C00
03FC0780F700
063E0701C380
081F07038380
100F07070780
200F0F0E0780
00070E1E0300
00070E1C0000
00071E3C0000
000F1C380000
000FFFF80000
000E1C780000
000E3C780000
001C38780000
601C38780000
F03878780200
F07070780400
E060703C0C00
E0C0703F3800
7780F01FF000
080000021000
000000006000
000000006000
00000000E000
00000000E000
00000000E000
00000000C000
000000038000
000000020000
ENDCHAR
STARTCHAR 049A
ENCODING 1178
SWIDTH 675 0
DWIDTH 30 0
BBX 33 39 -1 -9
BITMAP
0000000600
00FFF01F80
001F003F80
001E006780
001E00C700
001C00C000
003C018000
003C018000
003C030000
0078030000
0078060000
00780C0000
00701C0000
00F0380000
00FFE00000
00F7E00000
01E1E00000
01E0F00000
01E0F00000
01C0780000
03C0780000
03C03C0000
03C03C0000
07803E0000
07801E0000
07801E0000
0F000F0000
0F000F8000
1F8007C000
FFF007F000
000001F000
000000F000
0000006000
0000006000
0000006000
0000006000
0000004000
0000004000
0000004000
ENDCHAR
STARTCHAR 049B
ENCODING 1179
SWIDTH 472 0
DWIDTH 21 0
BBX 20 28 1 -9
BITMAP
0180C0
3F01E0
0F03F0
0F06F0
0F0460
0E0C00
0E0800
1E1800
1C3000
1C6000
1FC000
3CE000
387000
387800
783800
703C00
701C20
701E40
E00FC0
E00F80
000100
000300
000600
000600
000700
000600
000E00
001800
ENDCHAR
STARTCHAR 049C
ENCODING 1180
SWIDTH 675 0
DWIDTH 30 0
BBX 33 30 -1 0
BITMAP
0000000600
00FFF01F80
001F003F80
001E006780
001E00C700
001C00C000
003C018000
003C618000
003C630000
0078630000
0078C60000
0078CC0000
0070DC0000
00F0B80000
00FFE00000
00F7E00000
01E1E00000
01E3F00000
01E3F00000
01C3780000
03C2780000
03C63C0000
03C63C0000
07863E0000
078C1E0000
07801E0000
0F000F0000
0F000F8000
1F8007C000
FFF007F000
ENDCHAR
STARTCHAR 049D
ENCODING 1181
SWIDTH 472 0
DWIDTH 21 0
BBX 20 20 1 0
BITMAP
0180C0
3F01E0
0F03F0
0F36F0
0F6460
0E6C00
0E6800
1E5800
1CF000
1CE000
1FC000
3DE000
39F000
39F800
793800
733C00
731C00
701E00
E00F00
E00FC0
ENDCHAR
STARTCHAR 04A2
ENCODING 1186
SWIDTH 720 0
DWIDTH 32 0
BBX 37 37 -1 -9
BITMAP
00FFE07FF8
001F000F80
001E000F80
001E000F00
001C000F00
003C000F00
003C001E00
0038001E00
0078001E00
0078003C00
0078003C00
00F0003C00
00F0003800
00FFFFF800
00E0007800
01E0007800
01E0007000
01E000F000
03C000F000
03C000E000
03C001E000
038001E000
078001E000
078003C000
078003C000
0F0003C000
0F0007C000
1F8007C000
FFE03FF800
000001F800
0000007000
0000007000
0000003000
0000003000
0000002000
0000002000
0000002000
ENDCHAR
STARTCHAR 04A3
ENCODING 1187
SWIDTH 495 0
DWIDTH 22 0
BBX 19 29 1 -9
BITMAP
018000
3F80E0
0F00E0
0701E0
0F01C0
0E01C0
0E01C0
0E03C0
1E0380
1FFF80
1FFF80
3C0700
380700
380700
780F00
700E20
700E40
700EC0
F01F80
E00F00
000100
000200
000600
000E00
000E00
000E00
000C00
001800
002000
ENDCHAR
STARTCHAR 04AE
ENCODING 1198
SWIDTH 562 0
DWIDTH 25 0
BBX 25 29 4 0
BITMAP
3FF07F80
0F801C00
0F801800
07801800
07803000
07806000
03C0C000
03C0C000
03C18000
01C30000
01E20000
01E60000
00EC0000
00F80000
00F80000
00F00000
00F00000
01E00000
01E00000
01E00000
03C00000
03C00000
03C00000
03C00000
07800000
07800000
0F800000
1F800000
FFF80000
ENDCHAR
STARTCHAR 04AF
ENCODING 1199
SWIDTH 495 0
DWIDTH 22 0
BBX 25 30 0 -10
BITMAP
1FF07F80
0FC01C00
07801800
07803000
07803000
03806000
0380C000
0380C000
03818000
03C30000
03C30000
03C60000
03CC0000
01C80000
01D80000
01F00000
01E00000
01E00000
01C00000
01C00000
03C00000
03800000
03800000
03800000
07800000
07000000
07000000
0F000000
3FC00000
FFE00000
ENDCHAR
STARTCHAR 04B0
ENCODING 1200
SWIDTH 562 0
DWIDTH 25 0
BBX 25 29 4 0
BITMAP
3FF07F80
0F801C00
0F801800
07801800
07803000
07806000
03C0C000
03C0C000
03C18000
01C30000
01E20000
01E60000
00EC0000
00F80000
00F80000
00F00000
FFFFE000
01E00000
01E00000
01E00000
01C00000
03C00000
03C00000
03C00000
07800000
07800000
0F800000
1F800000
FFF80000
ENDCHAR
STARTCHAR 04B1
ENCODING 1201
SWIDTH 495 0
DWIDTH 22 0
BBX 26 30 -1 -10
BITMAP
0FF83FC0
07E00E00
03C00C00
03C01800
03C01800
01C03000
01C06000
01C06000
01C0C000
01E18000
01E18000
01E30000
01E60000
00E40000
00EC0000
00F80000
00F00000
00F00000
7FFFE000
FFFFC000
01E00000
01C00000
01C00000
01C00000
03C00000
03800000
03800000
07800000
1FE00000
7FF00000
ENDCHAR
STARTCHAR 04B2
ENCODING 1202
SWIDTH 607 0
DWIDTH 27 0
BBX 35 37 -3 -9
BITMAP
003FF03FE0
000F800F00
0007800E00
0007801C00
0003C01800
0003C03000
0003C06000
0001C0C000
0001E18000
0001E30000
0001E60000
0000FC0000
0000F80000
0000F00000
0000F00000
0000F80000
0001F80000
0003780000
00063C0000
000C3C0000
00183C0000
00301C0000
00601E0000
00C01E0000
01801E0000
03000F0000
07000F0000
1F001F8000
FFC0FFF000
000003F000
000000E000
000000E000
0000006000
0000006000
0000004000
0000004000
0000004000
ENDCHAR
STARTCHAR 04B3
ENCODING 1203
SWIDTH 450 0
DWIDTH 20 0
BBX 21 29 -2 -9
BITMAP
004010
0FE078
01E0F8
00F1B8
007200
007600
007C00
007800
003800
003800
003800
003C00
005C00
00DC00
009C00
011E00
030E20
660E40
FC0FC0
780780
200100
000300
000600
000700
000700
000600
000E00
001C00
001000
ENDCHAR
STARTCHAR 04B8
ENCODING 1208
SWIDTH 697 0
DWIDTH 31 0
BBX 29 29 5 0
BITMAP
FFE03FF8
1F0007C0
1F000780
1E000780
1E000700
1E000F00
1C0C0F00
3C0C0F00
3C0C1E00
3C081E00
38181E00
78181C00
78183C00
3C303C00
3E30F800
1FFFF800
0FFC7800
00607800
00607000
0060F000
00C0F000
00C0E000
00C1E000
0081E000
0001E000
0003C000
0003C000
0007E000
003FFC00
ENDCHAR
STARTCHAR 04B9
ENCODING 1209
SWIDTH 472 0
DWIDTH 21 0
BBX 18 20 2 -1
BITMAP
020000
FE03C0
3C0380
1C0380
1C6780
3CC700
38C700
38CF00
788F00
798E00
799E00
3DFE00
1F9C00
031C00
033C00
023880
063880
003900
003E00
003C00
ENDCHAR
STARTCHAR 04BA
ENCODING 1210
SWIDTH 697 0
DWIDTH 31 0
BBX 29 29 -1 0
BITMAP
00FFE000
003F0000
001E0000
001E0000
003C0000
003C0000
003C0000
00780000
00780000
00780000
00700000
00F07E00
00F7FFC0
00FF07E0
01F001E0
01E000F0
01E000F0
01C000F0
03C000E0
03C001E0
03C001E0
078001E0
078001C0
078003C0
070003C0
0F0003C0
0F0007C0
1F800FC0
FFF07FF8
ENDCHAR
STARTCHAR 04BB
ENCODING 1211
SWIDTH 495 0
DWIDTH 22 0
BBX 19 32 1 -1
BITMAP
003000
07F000
01E000
00E000
01E000
01C000
01C000
01C000
03C000
038000
038000
078180
0707C0
070FE0
0719E0
0F31E0
0E61C0
0E41C0
1E81C0
1D03C0
1F0380
1E0380
3C0780
3C0700
380700
780700
780F20
700E20
700E40
F00F80
E00F00
000400
ENDCHAR
STARTCHAR 04D8
ENCODING 1240
SWIDTH 697 0
DWIDTH 31 0
BBX 28 31 3 -1
BITMAP
020FF000
03FCFE00
03C01F00
03800F80
070007C0
060003C0
040003E0
080001E0
000001E0
000001F0
000001F0
000001F0
000001F0
000001F0
7FFFFFF0
FFFFFFE0
F80001E0
F80003E0
F00003E0
F00003C0
F00003C0
F0000780
F0000780
F0000F00
F8001E00
78003C00
78007800
3C00F000
1E03E000
07FF8000
00780000
ENDCHAR
STARTCHAR 04D9
ENCODING 1241
SWIDTH 450 0
DWIDTH 20 0
BBX 17 20 1 -1
BITMAP
003000
01FE00
07FF00
180F80
300780
400780
000780
000380
000780
001F80
03E780
0F0700
1C0700
780E00
700E00
E01C00
E03800
E07000
E0E000
7F8000
ENDCHAR
STARTCHAR 04E8
ENCODING 1256
SWIDTH 720 0
DWIDTH 32 0
BBX 29 31 3 -1
BITMAP
0001FE00
000F8F80
003C03C0
007001E0
00E000E0
03C000F0
078000F0
078000F8
0F0000F8
1E0000F8
1E0000F8
3C0000F8
3C0000F8
7C0000F8
7FFFFFF0
F80001F0
F80001F0
F80001E0
F00003E0
F00003C0
F00007C0
F0000780
F0000F80
F0000F00
F8001E00
78003C00
78007800
3C00F000
1E03C000
07FF0000
00F00000
ENDCHAR
STARTCHAR 04E9
ENCODING 1257
SWIDTH 495 0
DWIDTH 22 0
BBX 20 20 1 -1
BITMAP
000C00
00FF80
01C1C0
0700E0
0F00E0
1E00E0
1C00F0
3C00F0
3800E0
7FFFE0
7FFFE0
7001E0
F001C0
F003C0
F00380
700780
700F00
701E00
383800
1FE000
ENDCHAR
STARTCHAR 05B0
ENCODING 1456
SWIDTH 337 0
DWIDTH 15 0
BBX 4 9 1 -12
BITMAP
60
F0
F0
60
00
60
F0
F0
60
ENDCHAR
STARTCHAR 05B1
ENCODING 1457
SWIDTH 337 0
DWIDTH 15 0
BBX 14 9 -4 -12
BITMAP
6318
F7BC
F7BC
6318
0000
1818
1C3C
1C3C
1818
ENDCHAR
STARTCHAR 05B2
ENCODING 1458
SWIDTH 337 0
DWIDTH 15 0
BBX 12 9 -3 -12
BITMAP
0060
FE70
FE70
0060
0000
0060
0070
0070
0060
ENDCHAR
STARTCHAR 05B3
ENCODING 1459
SWIDTH 337 0
DWIDTH 15 0
BBX 14 9 -4 -12
BITMAP
0018
FFBC
FFBC
1818
1800
1C18
1C3C
183C
0018
ENDCHAR
STARTCHAR 05B4
ENCODING 1460
SWIDTH 337 0
DWIDTH 15 0
BBX 4 4 1 -7
BITMAP
60
F0
F0
60
ENDCHAR
STARTCHAR 05B5
ENCODING 1461
SWIDTH 337 0
DWIDTH 15 0
BBX 8 4 -1 -7
BITMAP
C6
E7
E7
C6
ENDCHAR
STARTCHAR 05B6
ENCODING 1462
SWIDTH 337 0
DWIDTH 15 0
BBX 8 9 -1 -12
BITMAP
C6
E7
E7
C6
00
18
3C
3C
18
ENDCHAR
STARTCHAR 05B7
ENCODING 1463
SWIDTH 337 0
DWIDTH 15 0
BBX 8 2 -1 -6
BITMAP
FF
FF
ENDCHAR
STARTCHAR 05B8
ENCODING 1464
SWIDTH 337 0
DWIDTH 15 0
BBX 8 7 -1 -11
BITMAP
FF
FF
18
18
3C
3C
18
ENDCHAR
STARTCHAR 05B9
ENCODING 1465
SWIDTH 337 0
DWIDTH 15 0
BBX 4 4 10 26
BITMAP
60
F0
F0
60
ENDCHAR
STARTCHAR 05BA
ENCODING 1466
SWIDTH 337 0
DWIDTH 15 0
BBX 4 4 10 26
BITMAP
60
F0
F0
60
ENDCHAR
STARTCHAR 05BB
ENCODING 1467
SWIDTH 337 0
DWIDTH 15 0
BBX 14 9 -4 -12
BITMAP
6000
F000
F000
6700
0780
0718
003C
003C
0018
ENDCHAR
STARTCHAR 05BC
ENCODING 1468
SWIDTH 337 0
DWIDTH 15 0
BBX 3 4 6 9
BITMAP
E0
E0
E0
40
ENDCHAR
STARTCHAR 05BD
ENCODING 1469
SWIDTH 337 0
DWIDTH 15 0
BBX 2 7 2 -11
BITMAP
C0
C0
C0
C0
C0
C0
C0
ENDCHAR
STARTCHAR 05BE
ENCODING 1470
SWIDTH 360 0
DWIDTH 16 0
BBX 12 5 5 18
BITMAP
FFF0
FFF0
FFF0
FFF0
FFF0
ENDCHAR
STARTCHAR 05BF
ENCODING 1471
SWIDTH 337 0
DWIDTH 15 0
BBX 8 3 8 26
BITMAP
FF
FF
FF
ENDCHAR
STARTCHAR 05C0
ENCODING 1472
SWIDTH 337 0
DWIDTH 15 0
BBX 11 27 2 -2
BITMAP
00E0
01E0
01C0
01C0
01C0
0380
0380
0380
0780
0700
0700
0700
0E00
0E00
0E00
1E00
1C00
1C00
1C00
3800
3800
3800
7800
7000
7000
7000
E000
ENDCHAR
STARTCHAR 05C1
ENCODING 1473
SWIDTH 337 0
DWIDTH 15 0
BBX 4 4 19 26
BITMAP
60
F0
F0
60
ENDCHAR
STARTCHAR 05C2
ENCODING 1474
SWIDTH 337 0
DWIDTH 15 0
BBX 4 4 1 26
BITMAP
60
F0
F0
60
ENDCHAR
STARTCHAR 05C3
ENCODING 1475
SWIDTH 337 0
DWIDTH 15 0
BBX 10 23 3 0
BITMAP
0380
07C0
07C0
0380
0000
0000
0000
0000
0000
0000
0000
0000
0000
0000
0000
0000
0000
0000
0000
6000
F000
F000
F000
ENDCHAR
STARTCHAR 05D0
ENCODING 1488
SWIDTH 472 0
DWIDTH 21 0
BBX 23 25 -1 0
BITMAP
010040
010040
0300F0
0380F8
0380FC
03C0FE
03C07E
03E03C
01F060
00F8C0
00F880
01FD80
023F00
043F00
0C1F00
1C0F80
180780
1C07C0
1C03C0
1C01E0
3C01E0
3E00E0
3E00C0
3C00C0
FC0080
ENDCHAR
STARTCHAR 05D1
ENCODING 1489
SWIDTH 427 0
DWIDTH 19 0
BBX 19 24 -1 0
BITMAP
030000
03FF80
07FFE0
07FFE0
07FFE0
01FFE0
0000E0
000060
000060
000060
000040
0000C0
0000C0
000080
000080
000180
000100
000100
000200
000400
3FFFC0
7FFF80
7FFF80
FFFF00
ENDCHAR
STARTCHAR 05D2
ENCODING 1490
SWIDTH 315 0
DWIDTH 14 0
BBX 15 25 -2 -1
BITMAP
0040
00C0
00F8
00FC
01FE
00FE
007E
001E
000C
000C
0008
0008
0008
0018
0010
0010
0030
0030
0070
00F8
03B8
3F38
7E38
FC18
F810
ENDCHAR
STARTCHAR 05D3
ENCODING 1491
SWIDTH 427 0
DWIDTH 19 0
BBX 16 24 4 -1
BITMAP
6000
7FFF
FFFF
FFFF
FFFF
3FFE
0008
0010
0020
0060
0040
00C0
00C0
0180
0180
0180
0180
0380
0380
0300
0700
0700
0600
0C00
ENDCHAR
STARTCHAR 05D4
ENCODING 1492
SWIDTH 472 0
DWIDTH 21 0
BBX 23 25 -1 -1
BITMAP
018000
03FFFE
03FFFE
03FFFE
03FFFE
01FFFC
000018
000010
000020
000020
000060
000060
070060
0E00E0
0C00C0
1C00C0
1C00C0
1800C0
3801C0
3801C0
3801C0
300180
700380
600300
800400
ENDCHAR
STARTCHAR 05D5
ENCODING 1493
SWIDTH 270 0
DWIDTH 12 0
BBX 8 25 4 -1
BITMAP
20
60
78
FE
FE
7F
3E
0E
06
06
04
0C
0C
08
08
18
18
10
30
30
20
60
60
40
40
ENDCHAR
STARTCHAR 05D6
ENCODING 1494
SWIDTH 247 0
DWIDTH 11 0
BBX 11 25 1 0
BITMAP
0400
0C00
0F00
1FE0
1FE0
0FE0
07E0
03E0
0200
0600
0400
0C00
0C00
0C00
1800
1800
1800
1800
3800
3800
3000
3000
7000
6000
C000
ENDCHAR
STARTCHAR 05D7
ENCODING 1495
SWIDTH 472 0
DWIDTH 21 0
BBX 22 25 0 -1
BITMAP
030000
07FFFC
07FFFC
07FFFC
07FFF8
03FFF8
018030
030020
020040
0600C0
0400C0
0C00C0
0C01C0
0C0180
1C0180
180180
180180
180380
380380
380380
300300
300300
600600
C00400
000800
ENDCHAR
STARTCHAR 05D8
ENCODING 1496
SWIDTH 472 0
DWIDTH 21 0
BBX 19 25 2 0
BITMAP
100000
180000
3C03C0
3F07C0
3F0FE0
3F1FE0
1F1DE0
0830E0
082060
104060
104040
300040
200040
2000C0
200080
600080
600180
600100
600300
600600
400E00
FFFC00
FFF800
FFF800
FFF000
ENDCHAR
STARTCHAR 05D9
ENCODING 1497
SWIDTH 247 0
DWIDTH 11 0
BBX 7 14 4 11
BITMAP
20
60
70
FC
FE
7E
3E
0E
06
06
04
0C
18
70
ENDCHAR
STARTCHAR 05DA
ENCODING 1498
SWIDTH 427 0
DWIDTH 19 0
BBX 17 32 4 -8
BITMAP
600000
7FFF00
FFFF80
FFFF00
FFFF00
3FFE00
000400
000C00
000800
000800
001800
001800
001000
001000
003000
003000
002000
006000
006000
006000
006000
00C000
00C000
00C000
01C000
018000
018000
018000
030000
030000
020000
040000
ENDCHAR
STARTCHAR 05DB
ENCODING 1499
SWIDTH 405 0
DWIDTH 18 0
BBX 18 24 -1 0
BITMAP
030000
03FE00
07FF80
07FFC0
07FFC0
01FFC0
0001C0
0000C0
0000C0
0000C0
0000C0
0000C0
000080
000080
000080
000180
000100
000300
000600
003E00
3FFC00
3FF800
7FF000
FFC000
ENDCHAR
STARTCHAR 05DC
ENCODING 1500
SWIDTH 427 0
DWIDTH 19 0
BBX 15 33 4 0
BITMAP
2000
7000
7800
3800
1000
1000
2000
2000
4000
4000
FFF8
FFFE
FFFE
7FFE
1FFE
000E
0006
0004
0004
000C
0008
0018
0030
0060
00C0
0180
0300
0600
0400
0C00
0C00
1C00
1800
ENDCHAR
STARTCHAR 05DD
ENCODING 1501
SWIDTH 472 0
DWIDTH 21 0
BBX 20 24 0 0
BITMAP
020000
07FFC0
07FFF0
0FFFF0
07FFF0
03FFF0
00C070
030030
060030
0C0030
180020
180020
100060
300060
300040
3000C0
2000C0
600080
600080
400180
FFFF00
FFFF00
FFFF00
FFFF00
ENDCHAR
STARTCHAR 05DE
ENCODING 1502
SWIDTH 472 0
DWIDTH 21 0
BBX 21 25 -1 0
BITMAP
020000
030000
0780C0
07E0E0
07E1F0
07E3F0
03C7F0
00DCF8
007038
004038
008018
010018
030010
060010
040010
0C0030
080020
100020
100040
300040
2000C0
61FF80
43FF80
43FF00
C7FF00
ENDCHAR
STARTCHAR 05DF
ENCODING 1503
SWIDTH 247 0
DWIDTH 11 0
BBX 10 32 2 -8
BITMAP
0800
1800
1E00
3F80
3FC0
1FC0
0FC0
0380
0180
0100
0100
0200
0200
0600
0400
0C00
0C00
0C00
0800
1800
1800
1800
3000
3000
3000
3000
7000
6000
6000
E000
C000
C000
ENDCHAR
STARTCHAR 05E0
ENCODING 1504
SWIDTH 270 0
DWIDTH 12 0
BBX 14 25 -2 0
BITMAP
0080
0180
01F0
03F8
03FC
01FC
00FC
003C
0018
0018
0010
0010
0030
0020
0020
0060
0060
0060
0040
00C0
00C0
3FC0
3FC0
7FC0
FFC0
ENDCHAR
STARTCHAR 05E1
ENCODING 1505
SWIDTH 472 0
DWIDTH 21 0
BBX 17 25 2 -1
BITMAP
180000
1FFE00
3FFF00
3FFF80
3FFF80
0FFF80
080380
180180
100180
200080
600080
600080
400180
400100
C00100
C00300
E00200
E00600
700E00
781C00
7FF800
3FF800
3FF000
1FE000
070000
ENDCHAR
STARTCHAR 05E2
ENCODING 1506
SWIDTH 450 0
DWIDTH 20 0
BBX 22 26 -1 -1
BITMAP
020040
0200C0
07C0E0
07F0F8
07F0FC
03F0FC
01F078
008038
010010
010020
018060
018040
01C080
01C080
00C180
00C100
004300
004200
004600
008E00
00FC00
0FFC00
1FF800
3FE000
7F0000
E00000
ENDCHAR
STARTCHAR 05E3
ENCODING 1507
SWIDTH 427 0
DWIDTH 19 0
BBX 16 31 2 -8
BITMAP
0800
1FFC
1FFF
3FFF
1FFF
0FFF
0807
1003
2003
6002
6002
F006
FC06
FC04
F80C
800C
000C
0008
0018
0018
0018
0038
0030
0030
0030
0070
0060
0060
00E0
00C0
00C0
ENDCHAR
STARTCHAR 05E4
ENCODING 1508
SWIDTH 427 0
DWIDTH 19 0
BBX 19 24 -1 0
BITMAP
010000
03FF00
03FFC0
07FFC0
03FFE0
01FFE0
0200E0
060060
040060
0E0060
0F0060
1F8040
1F8040
1F8040
0000C0
000080
000180
000180
000300
001F00
3FFE00
3FFC00
7FF800
FFE000
ENDCHAR
STARTCHAR 05E5
ENCODING 1509
SWIDTH 450 0
DWIDTH 20 0
BBX 17 33 4 -8
BITMAP
401000
601000
F83C00
FE3F00
FE3F80
7E3F80
1C0F80
0C0C00
041800
041000
042000
064000
02C000
028000
030000
070000
070000
060000
060000
060000
0E0000
0C0000
0C0000
1C0000
1C0000
1C0000
180000
380000
380000
300000
300000
600000
400000
ENDCHAR
STARTCHAR 05E6
ENCODING 1510
SWIDTH 450 0
DWIDTH 20 0
BBX 21 25 0 0
BITMAP
000100
060180
0783C0
0FC3F0
0FC3F8
07C1F8
01C0F8
00C040
008080
008100
008300
008600
01C400
01EC00
00FC00
007C00
003C00
001C00
001E00
000F00
000780
3FFF00
7FFE00
7FFE00
FFFC00
ENDCHAR
STARTCHAR 05E7
ENCODING 1511
SWIDTH 450 0
DWIDTH 20 0
BBX 22 31 -2 -8
BITMAP
018000
01FFF0
03FFF8
03FFFC
03FFFC
00FFFC
00001C
00000C
000008
000008
020018
060010
060030
060060
0C00C0
0C0180
0C0700
080C00
181800
183000
186000
30E000
30E000
30C000
200000
600000
600000
600000
C00000
C00000
800000
ENDCHAR
STARTCHAR 05E8
ENCODING 1512
SWIDTH 450 0
DWIDTH 20 0
BBX 15 24 4 -1
BITMAP
6000
7FF8
FFFC
FFFE
FFFE
3FFE
000E
000E
0006
0006
000C
000C
000C
0008
0018
0018
0010
0030
0030
0030
0020
0060
0060
0040
ENDCHAR
STARTCHAR 05E9
ENCODING 1513
SWIDTH 630 0
DWIDTH 28 0
BBX 25 25 4 0
BITMAP
40000000
60300C00
F83C1C00
FC7F1E00
FE7F1F00
7E3F1F80
3E1F0F80
10080700
20100600
20100400
60200800
60201000
40402000
40C06000
40804000
4180C000
41018000
42018000
46030000
6C030000
68060000
7FFE0000
7FFE0000
FFFC0000
FFFC0000
ENDCHAR
STARTCHAR 05EA
ENCODING 1514
SWIDTH 472 0
DWIDTH 21 0
BBX 22 24 -2 -1
BITMAP
004000
00FFF0
00FFFC
01FFFC
00FFFC
007FFC
00301C
00600C
00C00C
00800C
01800C
010008
030018
030018
030010
030030
030030
070020
070020
060060
3E0060
7E0040
FE00C0
FC0080
ENDCHAR
STARTCHAR 05F0
ENCODING 1520
SWIDTH 517 0
DWIDTH 23 0
BBX 19 25 4 -1
BITMAP
200000
600600
780F80
FE0FE0
FE0FE0
7F0FE0
3E03E0
0E00E0
0600E0
060040
0400C0
0C00C0
0C0080
080080
080180
180180
180100
100300
300300
300200
200600
600600
600600
400400
400C00
ENDCHAR
STARTCHAR 05F1
ENCODING 1521
SWIDTH 495 0
DWIDTH 22 0
BBX 18 26 4 -1
BITMAP
200000
600C00
701F00
FC1FC0
FE1FC0
7E1FC0
3E07C0
0E01C0
0601C0
060080
040180
0C0180
180180
700100
000300
000300
000200
000600
000600
000400
000400
000C00
000C00
000800
001800
001000
ENDCHAR
STARTCHAR 05F2
ENCODING 1522
SWIDTH 472 0
DWIDTH 21 0
BBX 18 14 4 11
BITMAP
200000
600C00
701E00
FC1F80
FE1FC0
7E0FC0
3E07C0
0E01C0
0600C0
060080
040080
0C0100
180200
700C00
ENDCHAR
STARTCHAR 05F3
ENCODING 1523
SWIDTH 180 0
DWIDTH 8 0
BBX 6 10 4 14
BITMAP
18
3C
7C
78
70
F0
E0
C0
C0
80
ENDCHAR
STARTCHAR 05F4
ENCODING 1524
SWIDTH 360 0
DWIDTH 16 0
BBX 14 10 4 14
BITMAP
1818
3C3C
7C78
7878
70F0
F0F0
E0E0
C0C0
C080
8180
ENDCHAR
STARTCHAR 1E80
ENCODING 7808
SWIDTH 832 0
DWIDTH 37 0
BBX 35 40 6 -1
BITMAP
0007C00000
0003C00000
0001E00000
0000E00000
0000600000
0000300000
0000300000
0000100000
0000000000
0000000000
FFC7FF0FE0
3E01F00780
1E00F00700
1E00F00600
1C01F00400
1C01E00C00
3C03E01800
3C07E01000
3C05E03000
3C0DE06000
3C19E04000
3C19E0C000
3C31E18000
3821E10000
3861E30000
78C1C60000
7881C40000
7983CC0000
7B03D80000
7A03D80000
7E03F00000
7C03E00000
7803E00000
7803C00000
7003800000
E003800000
E007000000
C006000000
C006000000
8004000000
ENDCHAR
STARTCHAR 1E81
ENCODING 7809
SWIDTH 675 0
DWIDTH 30 0
BBX 28 31 1 -1
BITMAP
000F8000
00078000
00038000
0001C000
0000C000
00004000
00004000
00000000
00000000
00000000
04004020
7C00C070
BE00C070
1E01C070
0E03C030
0E03C030
0E05C020
0E0DC020
0F09C040
0719C0C0
0711E080
0721E100
0760E300
0740E200
07C0E400
0780E800
0700F800
0700F000
0600E000
0600C000
04008000
ENDCHAR
STARTCHAR 1E82
ENCODING 7810
SWIDTH 832 0
DWIDTH 37 0
BBX 35 40 6 -1
BITMAP
00001F0000
00001E0000
00001E0000
00001C0000
0000380000
0000300000
0000200000
0000400000
0000000000
0000000000
FFC7FF0FE0
3E01F00780
1E00F00700
1E00F00600
1C01F00400
1C01E00C00
3C03E01800
3C07E01000
3C05E03000
3C0DE06000
3C19E04000
3C19E0C000
3C31E18000
3821E10000
3861E30000
78C1C60000
7881C40000
7983CC0000
7B03D80000
7A03D80000
7E03F00000
7C03E00000
7803E00000
7803C00000
7003800000
E003800000
E007000000
C006000000
C006000000
8004000000
ENDCHAR
STARTCHAR 1E83
ENCODING 7811
SWIDTH 675 0
DWIDTH 30 0
BBX 28 31 1 -1
BITMAP
00003C00
00007800
00007000
00007000
00006000
0000C000
00008000
00000000
00000000
00000000
04004020
7C00C070
BE00C070
1E01C070
0E03C030
0E03C030
0E05C020
0E0DC020
0F09C040
0719C0C0
0711E080
0721E100
0760E300
0740E200
07C0E400
0780E800
0700F800
0700F000
0600E000
0600C000
04008000
ENDCHAR
STARTCHAR 1E84
ENCODING 7812
SWIDTH 832 0
DWIDTH 37 0
BBX 35 38 6 -1
BITMAP
0007870000
000F8F8000
000F8F8000
0007070000
0000000000
0000000000
0000000000
0000000000
FFC7FF0FE0
3E01F00780
1E00F00700
1E00F00600
1C01F00400
1C01E00C00
3C03E01800
3C07E01000
3C05E03000
3C0DE06000
3C19E04000
3C19E0C000
3C31E18000
3821E10000
3861E30000
78C1C60000
7881C40000
7983CC0000
7B03D80000
7A03D80000
7E03F00000
7C03E00000
7803E00000
7803C00000
7003800000
E003800000
E007000000
C006000000
C006000000
8004000000
ENDCHAR
STARTCHAR 1E85
ENCODING 7813
SWIDTH 675 0
DWIDTH 30 0
BBX 28 30 1 -1
BITMAP
000F0E00
000F1F00
000F1F00
000F0F00
00040400
00000000
00000000
00000000
00000000
04004020
7C00C070
BE00C070
1E01C070
0E03C030
0E03C030
0E05C020
0E0DC020
0F09C040
0719C0C0
0711E080
0721E100
0760E300
0740E200
07C0E400
0780E800
0700F800
0700F000
0600E000
0600C000
04008000
ENDCHAR
STARTCHAR 1EA0
ENCODING 7840
SWIDTH 607 0
DWIDTH 27 0
BBX 26 37 -2 -7
BITMAP
00000080
00000180
00000380
00000780
00000700
00000F00
00001F00
00001700
00003F00
00006F00
0000CF00
00008F00
00018F00
00030F00
00060F00
00040E00
000C0E00
00180E00
00301E00
003FFE00
00601E00
00C01E00
00801E00
01801E00
03001E00
06001E00
0E001C00
0C003E00
3E003E00
FF81FFC0
00000000
00000000
00000000
00780000
00780000
00780000
00700000
ENDCHAR
STARTCHAR 1EA1
ENCODING 7841
SWIDTH 495 0
DWIDTH 22 0
BBX 20 27 1 -7
BITMAP
001810
00FEF0
01C2E0
0301E0
0701E0
0E01C0
1C01C0
1C01C0
3803C0
380380
700380
700780
F00700
F00F00
F01F00
F03F00
F06E20
F8CE40
7F8F80
7E0F00
000400
000000
000000
078000
078000
078000
030000
ENDCHAR
STARTCHAR 1EA2
ENCODING 7842
SWIDTH 607 0
DWIDTH 27 0
BBX 30 40 -2 0
BITMAP
00000030
000000CC
0000008C
00000098
00000010
00000020
00000040
00000000
00000000
00000000
00000080
00000180
00000380
00000780
00000700
00000F00
00001F00
00001700
00003F00
00006F00
0000CF00
00008F00
00018F00
00030F00
00060F00
00040E00
000C0E00
00180E00
00301E00
003FFE00
00601E00
00C01E00
00801E00
01801E00
03001E00
06001E00
0E001C00
0C003E00
3E003E00
FF81FFC0
ENDCHAR
STARTCHAR 1EA3
ENCODING 7843
SWIDTH 495 0
DWIDTH 22 0
BBX 20 31 1 -1
BITMAP
0007C0
0008C0
0008C0
000180
000300
000400
000400
000000
000000
000000
001810
00FEF0
01C2E0
0301E0
0701E0
0E01C0
1C01C0
1C01C0
3803C0
380380
700380
700780
F00700
F00F00
F01F00
F03F00
F06E20
F8CE40
7F8F80
7E0F00
000400
ENDCHAR
STARTCHAR 1EA4
ENCODING 7844
SWIDTH 607 0
DWIDTH 27 0
BBX 31 40 -2 0
BITMAP
0000001E
0000003C
00000030
00000020
00000000
000001F8
000003BC
00000C04
00000000
00000000
00000080
00000180
00000380
00000780
00000700
00000F00
00001F00
00001700
00003F00
00006F00
0000CF00
00008F00
00018F00
00030F00
00060F00
00040E00
000C0E00
00180E00
00301E00
003FFE00
00601E00
00C01E00
00801E00
01801E00
03001E00
06001E00
0E001C00
0C003E00
3E003E00
FF81FFC0
ENDCHAR
STARTCHAR 1EA5
ENCODING 7845
SWIDTH 495 0
DWIDTH 22 0
BBX 23 41 1 -1
BITMAP
00003E
00007C
000078
000070
0000E0
0000C0
000080
000000
000000
000000
0003C0
0007E0
000FE0
001C60
003060
006030
008010
000000
000000
000000
001810
00FEF0
01C2E0
0301E0
0701E0
0E01C0
1C01C0
1C01C0
3803C0
380380
700380
700780
F00700
F00F00
F01F00
F03F00
F06E20
F8CE40
7F8F80
7E0F00
000400
ENDCHAR
STARTCHAR 1EA6
ENCODING 7846
SWIDTH 607 0
DWIDTH 27 0
BBX 30 40 -2 0
BITMAP
000000F8
00000038
00000018
00000004
00000000
000001F8
000003BC
00000C04
00000000
00000000
00000080
00000180
00000380
00000780
00000700
00000F00
00001F00
00001700
00003F00
00006F00
0000CF00
00008F00
00018F00
00030F00
00060F00
00040E00
000C0E00
00180E00
00301E00
003FFE00
00601E00
00C01E00
00801E00
01801E00
03001E00
06001E00
0E001C00
0C003E00
3E003E00
FF81FFC0
ENDCHAR
STARTCHAR 1EA7
ENCODING 7847
SWIDTH 495 0
DWIDTH 22 0
BBX 20 41 1 -1
BITMAP
0007C0
0003C0
0001E0
0000E0
000060
000030
000030
000010
000000
000000
0003C0
0007E0
000FE0
001C60
003060
006030
008010
000000
000000
000000
001810
00FEF0
01C2E0
0301E0
0701E0
0E01C0
1C01C0
1C01C0
3803C0
380380
700380
700780
F00700
F00F00
F01F00
F03F00
F06E20
F8CE40
7F8F80
7E0F00
000400
ENDCHAR
STARTCHAR 1EA8
ENCODING 7848
SWIDTH 607 0
DWIDTH 27 0
BBX 30 40 -2 0
BITMAP
00000030
000000CC
00000018
00000020
00000000
000001F8
000003BC
00000C04
00000000
00000000
00000080
00000180
00000380
00000780
00000700
00000F00
00001F00
00001700
00003F00
00006F00
0000CF00
00008F00
00018F00
00030F00
00060F00
00040E00
000C0E00
00180E00
00301E00
003FFE00
00601E00
00C01E00
00801E00
01801E00
03001E00
06001E00
0E001C00
0C003E00
3E003E00
FF81FFC0
ENDCHAR
STARTCHAR 1EA9
ENCODING 7849
SWIDTH 495 0
DWIDTH 22 0
BBX 22 41 1 -1
BITMAP
000030
00004C
0000CC
00008C
000018
000020
000040
000040
000000
000000
0003C0
0007E0
000FE0
001C60
003060
006030
008010
000000
000000
000000
001810
00FEF0
01C2E0
0301E0
0701E0
0E01C0
1C01C0
1C01C0
3803C0
380380
700380
700780
F00700
F00F00
F01F00
F03F00
F06E20
F8CE40
7F8F80
7E0F00
000400
ENDCHAR
STARTCHAR 1EAA
ENCODING 7850
SWIDTH 607 0
DWIDTH 27 0
BBX 33 40 -2 0
BITMAP
0000008080
000007F080
0000047F00
0000081E00
0000000000
000001F800
000003BC00
00000C0400
0000000000
0000000000
0000008000
0000018000
0000038000
0000078000
0000070000
00000F0000
00001F0000
0000170000
00003F0000
00006F0000
0000CF0000
00008F0000
00018F0000
00030F0000
00060F0000
00040E0000
000C0E0000
00180E0000
00301E0000
003FFE0000
00601E0000
00C01E0000
00801E0000
01801E0000
03001E0000
06001E0000
0E001C0000
0C003E0000
3E003E0000
FF81FFC000
ENDCHAR
STARTCHAR 1EAB
ENCODING 7851
SWIDTH 495 0
DWIDTH 22 0
BBX 25 40 1 -1
BITMAP
0007C080
000FE080
001BF900
0010FF00
00103E00
00000000
00000000
00000000
00000000
0003C000
0007E000
000FE000
001C6000
00306000
00603000
00801000
00000000
00000000
00000000
00181000
00FEF000
01C2E000
0301E000
0701E000
0E01C000
1C01C000
1C01C000
3803C000
38038000
70038000
70078000
F0070000
F00F0000
F01F0000
F03F0000
F06E2000
F8CE4000
7F8F8000
7E0F0000
00040000
ENDCHAR
STARTCHAR 1EAC
ENCODING 7852
SWIDTH 607 0
DWIDTH 27 0
BBX 30 42 -2 -7
BITMAP
000001F8
000003BC
00000C04
00000000
00000000
00000080
00000180
00000380
00000780
00000700
00000F00
00001F00
00001700
00003F00
00006F00
0000CF00
00008F00
00018F00
00030F00
00060F00
00040E00
000C0E00
00180E00
00301E00
003FFE00
00601E00
00C01E00
00801E00
01801E00
03001E00
06001E00
0E001C00
0C003E00
3E003E00
FF81FFC0
00000000
00000000
00000000
00780000
00780000
00780000
00700000
ENDCHAR
STARTCHAR 1EAD
ENCODING 7853
SWIDTH 495 0
DWIDTH 22 0
BBX 20 37 1 -7
BITMAP
0003C0
0007E0
000FE0
001C60
003060
006030
008010
000000
000000
000000
001810
00FEF0
01C2E0
0301E0
0701E0
0E01C0
1C01C0
1C01C0
3803C0
380380
700380
700780
F00700
F00F00
F01F00
F03F00
F06E20
F8CE40
7F8F80
7E0F00
000400
000000
000000
078000
078000
078000
030000
ENDCHAR
STARTCHAR 1EAE
ENCODING 7854
SWIDTH 607 0
DWIDTH 27 0
BBX 31 40 -2 0
BITMAP
0000001E
0000003C
00000030
00000020
00000800
00000C06
000007FC
000001F0
00000000
00000000
00000080
00000180
00000380
00000780
00000700
00000F00
00001F00
00001700
00003F00
00006F00
0000CF00
00008F00
00018F00
00030F00
00060F00
00040E00
000C0E00
00180E00
00301E00
003FFE00
00601E00
00C01E00
00801E00
01801E00
03001E00
06001E00
0E001C00
0C003E00
3E003E00
FF81FFC0
ENDCHAR
STARTCHAR 1EAF
ENCODING 7855
SWIDTH 495 0
DWIDTH 22 0
BBX 22 41 1 -1
BITMAP
00007C
0000F8
0000F0
0000E0
0000C0
000180
000100
000000
000000
004004
004008
002018
0038F0
003FE0
001FC0
000F00
000000
000000
000000
000000
001810
00FEF0
01C2E0
0301E0
0701E0
0E01C0
1C01C0
1C01C0
3803C0
380380
700380
700780
F00700
F00F00
F01F00
F03F00
F06E20
F8CE40
7F8F80
7E0F00
000400
ENDCHAR
STARTCHAR 1EB0
ENCODING 7856
SWIDTH 607 0
DWIDTH 27 0
BBX 31 40 -2 0
BITMAP
000003E0
000000E0
00000070
00000010
00000800
00000C06
000007FC
000001F0
00000000
00000000
00000080
00000180
00000380
00000780
00000700
00000F00
00001F00
00001700
00003F00
00006F00
0000CF00
00008F00
00018F00
00030F00
00060F00
00040E00
000C0E00
00180E00
00301E00
003FFE00
00601E00
00C01E00
00801E00
01801E00
03001E00
06001E00
0E001C00
0C003E00
3E003E00
FF81FFC0
ENDCHAR
STARTCHAR 1EB1
ENCODING 7857
SWIDTH 495 0
DWIDTH 22 0
BBX 22 41 1 -1
BITMAP
001F00
000F00
000780
000380
000180
0000C0
000040
000040
000000
004004
004008
002018
0038F0
003FE0
001FC0
000F00
000000
000000
000000
000000
001810
00FEF0
01C2E0
0301E0
0701E0
0E01C0
1C01C0
1C01C0
3803C0
380380
700380
700780
F00700
F00F00
F01F00
F03F00
F06E20
F8CE40
7F8F80
7E0F00
000400
ENDCHAR
STARTCHAR 1EB2
ENCODING 7858
SWIDTH 607 0
DWIDTH 27 0
BBX 31 40 -2 0
BITMAP
00000030
000000CC
00000018
00000020
00000800
00000C06
000007FC
000001F0
00000000
00000000
00000080
00000180
00000380
00000780
00000700
00000F00
00001F00
00001700
00003F00
00006F00
0000CF00
00008F00
00018F00
00030F00
00060F00
00040E00
000C0E00
00180E00
00301E00
003FFE00
00601E00
00C01E00
00801E00
01801E00
03001E00
06001E00
0E001C00
0C003E00
3E003E00
FF81FFC0
ENDCHAR
STARTCHAR 1EB3
ENCODING 7859
SWIDTH 495 0
DWIDTH 22 0
BBX 22 41 1 -1
BITMAP
0000C0
000330
000230
000220
000040
000080
000100
000100
000000
004004
004008
002018
0038F0
003FE0
001FC0
000F00
000000
000000
000000
000000
001810
00FEF0
01C2E0
0301E0
0701E0
0E01C0
1C01C0
1C01C0
3803C0
380380
700380
700780
F00700
F00F00
F01F00
F03F00
F06E20
F8CE40
7F8F80
7E0F00
000400
ENDCHAR
ENDFONT
